<svg version="1.1" xmlns="http://www.w3.org/2000/svg" xmlns:xlink="http://www.w3.org/1999/xlink" width="107.08708" height="144.40451" viewBox="0,0,107.08708,144.40451"><defs><radialGradient cx="288.1278" cy="173.78096" r="10.22357" gradientUnits="userSpaceOnUse" id="color-1"><stop offset="0" stop-color="#fffbff"/><stop offset="1" stop-color="#817f81"/></radialGradient><linearGradient x1="274.47795" y1="165.04946" x2="274.47795" y2="181.29667" gradientUnits="userSpaceOnUse" id="color-2"><stop offset="0" stop-color="#817f81"/><stop offset="1" stop-color="#fffbff"/></linearGradient><linearGradient x1="241.91249" y1="215.9109" x2="263.8849" y2="215.9109" gradientUnits="userSpaceOnUse" id="color-3"><stop offset="0" stop-color="#0c358e"/><stop offset="1" stop-color="#1147ba"/></linearGradient><linearGradient x1="227.5221" y1="218.54139" x2="249.49453" y2="218.54139" gradientUnits="userSpaceOnUse" id="color-4"><stop offset="0" stop-color="#0c358e"/><stop offset="1" stop-color="#1147ba"/></linearGradient><linearGradient x1="260.74965" y1="167.04004" x2="260.74965" y2="179.88307" gradientUnits="userSpaceOnUse" id="color-5"><stop offset="0" stop-color="#880100"/><stop offset="1" stop-color="#ff0000"/></linearGradient><linearGradient x1="253.50054" y1="167.50425" x2="253.50054" y2="178.33917" gradientUnits="userSpaceOnUse" id="color-6"><stop offset="0" stop-color="#880100"/><stop offset="1" stop-color="#ff0000"/></linearGradient><radialGradient cx="265.08269" cy="236.48981" r="16.09074" gradientUnits="userSpaceOnUse" id="color-7"><stop offset="0" stop-color="#b46021"/><stop offset="1" stop-color="#3f1200"/></radialGradient><linearGradient x1="219.63108" y1="126.01758" x2="269.35745" y2="126.01758" gradientUnits="userSpaceOnUse" id="color-8"><stop offset="0" stop-color="#680000"/><stop offset="1" stop-color="#e90000"/></linearGradient><linearGradient x1="258.2338" y1="124.05547" x2="258.2338" y2="136.79562" gradientUnits="userSpaceOnUse" id="color-9"><stop offset="0" stop-color="#680000"/><stop offset="1" stop-color="#8d0000"/></linearGradient><radialGradient cx="271.26526" cy="149.73567" r="9.15518" gradientUnits="userSpaceOnUse" id="color-10"><stop offset="0" stop-color="#ffc699"/><stop offset="1" stop-color="#d08b69"/></radialGradient><linearGradient x1="228.41287" y1="165.43235" x2="228.41287" y2="178.92106" gradientUnits="userSpaceOnUse" id="color-11"><stop offset="0" stop-color="#8a0000"/><stop offset="1" stop-color="#8a0000" stop-opacity="0"/></linearGradient><radialGradient cx="249.60915" cy="238.96557" r="16.09074" gradientUnits="userSpaceOnUse" id="color-12"><stop offset="0" stop-color="#b46021"/><stop offset="1" stop-color="#3f1200"/></radialGradient><linearGradient x1="209.51201" y1="163.04448" x2="209.51201" y2="181.45797" gradientUnits="userSpaceOnUse" id="color-13"><stop offset="0" stop-color="#817f81"/><stop offset="1" stop-color="#fffbff"/></linearGradient><radialGradient cx="206.26257" cy="173.41174" r="14.85459" gradientUnits="userSpaceOnUse" id="color-14"><stop offset="0" stop-color="#ffffff"/><stop offset="1" stop-color="#7d7d7d"/></radialGradient></defs><g transform="translate(-186.45646,-107.79775)"><g data-paper-data="{&quot;isPaintingLayer&quot;:true}" fill-rule="nonzero" stroke-linejoin="miter" stroke-miterlimit="10" stroke-dasharray="" stroke-dashoffset="0" style="mix-blend-mode: normal"><path d="M273.2069,173.28359c0,-5.64633 4.55251,-10.22359 10.16833,-10.22359c5.61581,0 10.16831,4.57725 10.16831,10.22359c0,5.64633 -1.56833,10.66568 -7.18414,10.66568c-0.98911,0 -2.25886,-1.81359 -3.31548,-2.10101c-4.94245,-1.34443 -9.83702,-3.91282 -9.83702,-8.56467z" fill="url(#color-1)" stroke="none" stroke-width="0" stroke-linecap="butt"/><path d="M280.83315,173.17306c0,4.48654 -2.84533,8.1236 -6.3552,8.1236c-3.50988,0 -6.3552,-3.63706 -6.3552,-8.1236c0,-4.48654 2.84533,-8.1236 6.3552,-8.1236c3.50988,0 6.3552,3.63706 6.3552,8.1236z" fill="url(#color-2)" stroke="none" stroke-width="0" stroke-linecap="butt"/><path d="M243.20587,245.13727v-4.64206l29.09024,-0.30947v6.49888c0,0 -5.76744,2.72985 -9.56609,2.73237c-9.44448,0.0063 -12.61176,-2.99701 -12.61176,-2.99701c0,0 -1.68457,0.64452 -2.62895,0.46927c-1.26481,-0.23471 -4.28344,-1.75199 -4.28344,-1.75199z" fill="#bd6f3e" stroke="none" stroke-width="0" stroke-linecap="butt"/><path d="M241.91249,239.24098v-46.66017h21.97242l0.15474,37.39019l5.72521,5.40159z" fill="url(#color-3)" stroke="none" stroke-width="0" stroke-linecap="butt"/><path d="M227.5221,241.87148v-46.66017h21.97242v36.92599l6.49888,9.73419z" fill="url(#color-4)" stroke="none" stroke-width="0" stroke-linecap="butt"/><path d="M247.4424,179.88307v-12.84303h26.61447c0,0 4.04157,0.59061 4.17785,6.18941c0.12775,5.24842 -4.17785,6.65362 -4.17785,6.65362z" fill="url(#color-5)" stroke="none" stroke-width="0" stroke-linecap="butt"/><path d="M269.48406,191.45014c0,9.22946 -9.49124,19.80611 -18.33613,19.80611c-8.84489,0 -24.54947,-1.18707 -24.68028,-19.96085c-0.04241,-6.08554 1.77347,-12.40669 6.64215,-14.80739c3.29697,-1.62571 1.18469,-11.02026 5.25702,-11.24408c5.61585,-0.30867 13.23035,-2.44643 18.56803,0.66122c3.3858,1.97125 12.54923,20.62506 12.54923,25.54498z" fill="#1147ba" stroke="none" stroke-width="0" stroke-linecap="butt"/><path d="M228.50601,247.92252v-4.64206l29.09024,-0.30947v6.49888c0,0 -5.76744,2.72985 -9.56609,2.73237c-9.44448,0.0063 -12.61176,-2.99701 -12.61176,-2.99701c0,0 -1.68457,0.64452 -2.62895,0.46927c-1.26481,-0.23471 -4.28344,-1.75199 -4.28344,-1.75199z" fill="#bd6f3e" stroke="none" stroke-width="0" stroke-linecap="butt"/><path d="M255.82159,167.65899c0,0 1.5985,1.59832 2.48822,2.86936c1.18873,1.69817 4.01065,6.41477 4.01065,6.41477c0,0 -2.07874,1.33095 -3.41811,1.39094c-1.90975,0.08551 -6.94915,-0.92672 -6.94915,-0.92672c0,0 -1.14893,-2.60485 -2.08857,-3.88436c-1.33967,-1.82423 -5.18398,-6.01869 -5.18398,-6.01869z" fill="url(#color-6)" stroke="none" stroke-width="0" stroke-linecap="butt"/><path d="M273.96148,239.50307c0.22871,4.49448 -3.91059,8.1095 -8.68605,7.84157c-4.3004,-0.24128 -22.1813,-1.39645 -22.80526,-7.99597c-0.21464,-2.27018 -1.35564,-2.26152 -0.10308,-3.29758c0.56862,-0.47034 1.81707,0.76316 3.29003,0.55407c5.74317,-0.81525 17.90845,-5.90876 19.61832,-5.90876c5.26552,0 8.44477,4.06511 8.68605,8.80668z" fill="url(#color-7)" stroke="none" stroke-width="0" stroke-linecap="butt"/><path d="M211.77882,181.21534v-15.00932l26.45973,-0.61895c0,0 3.10342,3.71164 4.06924,5.72726c1.30383,2.72104 3.04858,9.12733 3.04858,9.12733c0,0 -5.84748,6.29206 -9.20682,6.36946c-2.04524,0.04712 -8.78369,-1.09348 -8.78369,-1.09348l0.24746,-3.52417z" fill="#ff0000" stroke="none" stroke-width="0" stroke-linecap="butt"/><path d="M265.64773,112.60022c3.10747,5.20451 4.45286,12.50831 3.30265,15.27824c-1.90179,4.57991 -9.97211,1.84775 -16.4164,5.59622c-10.34181,6.01555 -28.87656,14.71587 -32.33192,8.77549c-3.45536,-5.94039 9.47713,-24.27198 19.81895,-30.28754c10.34181,-6.01555 22.1037,-5.26294 25.62673,0.63758z" fill="url(#color-8)" stroke="none" stroke-width="0" stroke-linecap="butt"/><path d="M240.36937,135.85405c0,-4.16607 9.28712,-11.79856 19.47087,-11.79856c7.00486,0 13.09741,1.5979 16.21848,3.95129c1.41638,1.06801 -35.68934,12.01334 -35.68934,7.84727z" fill="url(#color-9)" stroke="none" stroke-width="0" stroke-linecap="butt"/><path d="M278.34277,130.58048c0.50477,3.39251 -6.54387,7.00479 -15.74359,8.06825c-9.19971,1.06346 -17.84041,0.98064 -18.34519,-2.41186c-0.50477,-3.39251 6.54387,-7.9074 15.74359,-8.97087c9.19971,-1.06346 17.84041,-0.07802 18.34519,3.31447z" fill="#a10000" stroke="none" stroke-width="0" stroke-linecap="butt"/><path d="M271.74211,155.46728c-2.74915,8.47633 -10.85688,14.61847 -20.43096,14.61847c-5.04748,0 -9.94825,-2.52832 -13.84625,-5.61439c-5.24248,-4.1505 -8.67115,-9.81047 -8.20352,-16.43539c0.77367,-10.96062 18.8931,-17.675 30.71495,-17.09825c7.72793,0.37703 7.85323,5.61936 7.6277,13.77912c-0.05214,1.88683 4.78756,8.74793 4.13808,10.75043z" fill="#ffb687" stroke="none" stroke-width="0" stroke-linecap="butt"/><path d="M234.05816,159.87325c0,1.03887 4.63491,4.60781 3.67606,5.36834c-4.93036,2.29894 -7.14924,-1.48697 -7.14924,-1.48697c0,0 -0.81486,0.14175 -1.24623,0.14175c-2.60646,0 -4.71943,-1.80121 -4.71943,-4.02312c0,-1.40433 0.84407,-2.64059 2.12331,-3.36027c0.74476,-0.41898 1.37733,-14.46124 2.13191,-15.05324c0.57965,-0.45477 3.48348,-2.67891 6.54066,-4.03014c1.56867,-0.69334 4.58642,-2.12598 4.58642,-2.12598c0,0 -1.0504,4.52822 -0.05172,5.80933c0.38889,0.49887 2.37952,2.13517 1.99992,3.751c-0.74009,3.15035 -3.67415,2.48124 -3.67415,2.48124c0,0 1.40154,1.40268 0.49674,2.70438c-2.94573,4.23789 -4.7378,-1.13938 -5.95159,1.40923c-0.78522,1.64873 1.23732,8.24906 1.23732,8.41444z" fill="#3f1200" stroke="none" stroke-width="0" stroke-linecap="butt"/><path d="M266.86203,142.31079c0,2.60646 -0.48494,4.71943 -1.08315,4.71943c-0.5982,0 -1.08315,-2.11297 -1.08315,-4.71943c0,-2.60647 0.48494,-4.71943 1.08315,-4.71943c0.5982,0 1.08315,2.11297 1.08315,4.71943z" fill="#ffffff" stroke="none" stroke-width="0" stroke-linecap="butt"/><path d="M259.89895,143.16183c0,3.58924 -2.21688,6.49888 -4.95154,6.49888c-2.73465,0 -4.95154,-2.90966 -4.95154,-6.49888c0,-3.58924 2.21688,-6.49888 4.95154,-6.49888c2.73465,0 4.95154,2.90966 4.95154,6.49888z" fill="#ffffff" stroke="none" stroke-width="0" stroke-linecap="butt"/><path d="M259.58949,143.39393c0,2.60646 -1.38555,4.71943 -3.0947,4.71943c-1.70916,0 -3.0947,-2.11297 -3.0947,-4.71943c0,-2.60646 1.38555,-4.71943 3.0947,-4.71943c1.70916,0 3.0947,2.11297 3.0947,4.71943z" fill="#258ed7" stroke="none" stroke-width="0" stroke-linecap="butt"/><path d="M266.70732,143.2392c0,2.00826 -0.4503,3.63627 -1.00578,3.63627c-0.55548,0 -1.00578,-1.62802 -1.00578,-3.63627c0,-2.00826 0.4503,-3.63627 1.00578,-3.63627c0.55548,0 1.00578,1.62802 1.00578,3.63627z" fill="#258ed7" stroke="none" stroke-width="0" stroke-linecap="butt"/><path d="M259.28001,143.4713c0,1.70916 -1.00452,3.0947 -2.24366,3.0947c-1.23915,0 -2.24366,-1.38555 -2.24366,-3.0947c0,-1.70916 1.00452,-3.0947 2.24366,-3.0947c1.23915,0 2.24366,1.38555 2.24366,3.0947z" fill="#000000" stroke="none" stroke-width="0" stroke-linecap="butt"/><path d="M265.93365,143.2392c0,1.23914 -0.24247,2.24366 -0.54158,2.24366c-0.29911,0 -0.54158,-1.00452 -0.54158,-2.24366c0,-1.23914 0.24247,-2.24366 0.54158,-2.24366c0.29911,0 0.54158,1.00452 0.54158,2.24366z" fill="#000000" stroke="none" stroke-width="0" stroke-linecap="butt"/><path d="M273.27333,154.4779c0,0 -2.14607,4.57169 -3.29095,4.61433c-0.32397,0.01206 -1.14885,-0.80391 -1.14885,-0.80391c0,0 -0.38816,1.72334 -0.88366,1.93331c-0.59019,0.2501 -2.4233,-0.53192 -2.4233,-0.53192c0,0 -0.66772,0.28121 -1.42727,0.49353c-0.29867,0.08349 -0.61155,0.15635 -0.90362,0.19726c-0.34585,0.04845 -0.66252,0.05212 -0.89187,-0.02433c-0.24603,-0.08201 -0.52491,-0.28236 -0.80511,-0.5372c-0.29193,-0.26549 -0.58531,-0.59013 -0.84456,-0.90172c-0.49382,-0.59354 -0.86377,-1.13975 -0.86377,-1.13975c0,0 -0.40922,0.17799 -1.01659,0.35124c-0.33628,0.09592 -0.73328,0.19038 -1.1552,0.25237c-0.2863,0.04207 -0.58407,0.06918 -0.88212,0.07166c-0.54851,0.00456 -1.09795,-0.07435 -1.57861,-0.29709c-0.29955,-0.13882 -0.57751,-0.32458 -0.83517,-0.54c-0.33201,-0.27759 -0.63035,-0.60444 -0.89785,-0.94363c-0.30394,-0.3854 -0.56806,-0.78672 -0.79654,-1.1498c-0.45175,-0.71783 -0.76418,-1.28609 -0.96957,-1.28609c-0.41436,0 -0.81692,-0.0447 -1.20181,-0.12896c-0.7017,-0.1536 -1.3447,-0.43864 -1.8936,-0.82385c-0.51089,-0.35855 -0.94026,-0.80385 -1.25954,-1.31072c-0.39855,-0.6327 -0.62559,-1.3613 -0.62559,-2.13674c0,-0.55208 0.11508,-1.08044 0.32521,-1.56733c0.11826,-0.274 0.44148,-0.77948 0.44148,-0.77948c0,0 15.80836,5.00004 19.7376,6.06323c1.34416,0.36372 6.09084,0.92562 6.09084,0.92562z" fill="#000000" stroke="none" stroke-width="0" stroke-linecap="butt"/><path d="M277.19678,150.76724c0,3.84561 -4.09891,6.96308 -9.15517,6.96308c-5.05626,0 -9.15518,-3.11749 -9.15518,-6.96308c0,-3.84561 4.09891,-6.96308 9.15518,-6.96308c5.05626,0 9.15517,3.11749 9.15517,6.96308z" fill="url(#color-10)" stroke="none" stroke-width="0" stroke-linecap="butt"/><path d="M234.21291,147.88126c0.80774,2.63954 4.60083,10.44463 -4.71943,9.51622c-4.03926,-0.40237 -9.98043,-5.45697 -9.98043,-9.51622c0,-4.05925 3.29067,-7.34993 7.34993,-7.34993c4.05925,0 6.10994,3.2979 7.34993,7.34993z" fill="#f3a27a" stroke="none" stroke-width="0" stroke-linecap="butt"/><path d="M231.48158,147.90472l0.10084,-0.13952c-1.70321,0 -3.18912,0.21716 -4.86947,0.45838c0,0 -0.57442,0.08205 -0.65649,-0.49237c-0.08207,-0.57442 0.49236,-0.65648 0.49236,-0.65648c1.72677,-0.24541 3.28225,-0.47004 5.03359,-0.47004l0.16246,0.10821c-0.33592,-1.94187 -2.99768,-3.90493 -4.91267,-3.16159c-1.54904,0.60129 -2.73897,1.98264 -3.77867,3.23144c0,0 -0.37147,0.44576 -0.81724,0.07428c-0.44576,-0.37147 -0.0743,-0.81723 -0.0743,-0.81723c1.16209,-1.39327 2.51826,-2.93786 4.26757,-3.57693c2.93699,-1.07293 6.50244,1.86481 6.50244,4.79296c-0.37836,1.51344 -0.12396,3.19924 -0.80537,4.61774l-0.13601,0.55835c0,0 -0.14074,0.56293 -0.70367,0.42219c-0.56293,-0.14073 -0.42219,-0.70367 -0.42219,-0.70367l0.17345,-0.67953c0.53196,-1.01428 0.46694,-2.28134 0.59177,-3.45971c-0.09194,-0.05009 -0.14839,-0.10652 -0.14839,-0.10652z" fill="#ae4026" stroke="none" stroke-width="0.5" stroke-linecap="butt"/><path d="M268.37072,161.26586c0,0.58026 -0.58026,0.58026 -0.58026,0.58026h-0.15474c-3.28791,0 -7.36545,-0.37163 -10.53599,0.44689c0,0 -0.56293,0.14073 -0.70367,-0.42219c-0.14073,-0.56293 0.42219,-0.70367 0.42219,-0.70367c3.30816,-0.80552 7.40247,-0.48152 10.81747,-0.48152h0.15474c0,0 0.58026,0 0.58026,0.58026z" fill="#ae4026" stroke="none" stroke-width="0.5" stroke-linecap="butt"/><path d="M256.49478,141.38238c0,-0.38456 0.31174,-0.69632 0.69632,-0.69632c0.38456,0 0.69632,0.31175 0.69632,0.69632c0,0.38456 -0.31175,0.69632 -0.69632,0.69632c-0.38456,0 -0.69632,-0.31175 -0.69632,-0.69632z" fill="#ffffff" stroke="none" stroke-width="0" stroke-linecap="butt"/><path d="M265.46943,141.76921c0.17091,0 0.30947,0.24247 0.30947,0.54158c0,0.29911 -0.13856,0.54158 -0.30947,0.54158c-0.17091,0 -0.30947,-0.24247 -0.30947,-0.54158c0,-0.29911 0.13856,-0.54158 0.30947,-0.54158z" fill="#ffffff" stroke="none" stroke-width="0" stroke-linecap="butt"/><path d="M249.02886,136.12675c0,0 -0.27014,-0.37891 -0.38739,-0.56805c-0.6345,-1.0234 -0.91568,-2.03111 -0.7542,-2.87589c0.04896,-0.25616 0.17478,-0.33259 0.17478,-0.33259c0,0 1.98796,-0.58408 2.96439,-0.77596c0.95353,-0.18739 2.8271,-0.36214 2.8271,-0.36214c0,0 0.59882,0.17945 0.90137,0.29266c0.62305,0.23315 1.2523,0.53325 1.87136,0.90358c1.67808,1.00386 3.00268,2.25788 3.81479,3.4998c0.19215,0.29384 0.48827,0.87604 0.48827,0.87604c0,0 -5.9055,-2.09963 -8.01578,-2.21621c-1.81038,-0.10001 -3.88469,1.55874 -3.88469,1.55874z" fill="#000000" stroke="none" stroke-width="0" stroke-linecap="butt"/><path d="M267.09311,135.8487c0,0 -0.51106,-0.81129 -1.52585,-0.81129c-0.84156,0 -1.76869,1.65843 -1.76869,1.65843c0,0 -0.0688,-0.79922 -0.0688,-1.22324c0,-0.94818 0.1199,-1.82783 0.32463,-2.55306c0.0669,-0.23697 0.22664,-0.94861 0.22664,-0.94861c0,0 1.27858,0.54228 2.15825,2.03248c0.35966,0.60926 0.65384,1.84529 0.65384,1.84529z" fill="#000000" stroke="none" stroke-width="0" stroke-linecap="butt"/><path d="M267.56055,118.66297c0,1.98829 -0.70372,3.78193 -1.83231,5.05071c-0.1931,0.21709 -0.61524,0.60352 -0.61524,0.60352c0,0 -2.11347,-0.13554 -3.2001,-0.16781c-1.25132,-0.03715 -3.88375,-0.04257 -3.88375,-0.04257c0,0 -0.19778,-0.17338 -0.36137,-0.35433c-1.1489,-1.27086 -1.86713,-3.08087 -1.86713,-5.08953c0,-3.84561 2.63254,-6.96308 5.87995,-6.96308c3.24739,0 5.87995,3.11749 5.87995,6.96308z" fill="#ffffff" stroke="none" stroke-width="0" stroke-linecap="butt"/><path d="M211.6241,178.30402v-12.47835l26.45973,-0.39334c0,0 3.10342,3.75135 4.06924,5.03228c1.30382,1.7292 3.04858,9.66875 3.04858,9.66875l-17.74304,-1.20776z" fill="url(#color-11)" stroke="none" stroke-width="0" stroke-linecap="butt"/><path d="M245.80956,183.39701c0,-1.9228 1.55874,-3.48155 3.48155,-3.48155c1.9228,0 3.48155,1.55874 3.48155,3.48155c0,1.9228 -1.55874,3.48155 -3.48155,3.48155c-1.9228,0 -3.48155,-1.55874 -3.48155,-3.48155z" fill="#fdff00" stroke="none" stroke-width="0" stroke-linecap="butt"/><path d="M266.75434,182.57455c1.03324,1.72207 1.60354,3.27847 1.27377,3.47634c-0.32976,0.19787 -1.43469,-1.03776 -2.46794,-2.75983c-1.03324,-1.72207 -1.60354,-3.27848 -1.27377,-3.47634c0.32976,-0.19787 1.43469,1.03778 2.46794,2.75983z" fill="#fdff00" stroke="none" stroke-width="0" stroke-linecap="butt"/><path d="M256.82236,120.02784l3.0947,-6.96308l2.63049,2.47577l1.70208,-2.47577l2.03252,7.89256l-1.22522,1.37237l-1.00934,-5.29063l-1.06187,1.25792l-2.42888,-1.89238l-1.72295,5.32532z" fill="#cc0008" stroke="none" stroke-width="0" stroke-linecap="butt"/><path d="M258.48794,241.97883c0.11978,2.35394 -0.95861,4.46665 -2.69902,5.90662c-1.58263,1.30941 -3.71267,2.06256 -5.98701,1.93494c-4.3004,-0.24128 -22.1813,-1.39646 -22.80526,-7.99599c-0.21464,-2.27018 -1.35564,-2.26152 -0.10308,-3.29758c0.56862,-0.47034 1.81705,0.76316 3.29002,0.55407c5.74317,-0.81525 17.90845,-5.90876 19.61832,-5.90876c5.26552,0 8.44477,4.06511 8.68605,8.80668z" fill="url(#color-12)" stroke="none" stroke-width="0" stroke-linecap="butt"/><path d="M219.72455,173.48911c0,5.08475 -4.57231,9.20676 -10.21254,9.20676c-5.64023,0 -10.21254,-4.122 -10.21254,-9.20676c0,-5.08475 4.57231,-9.20676 10.21254,-9.20676c5.64023,0 10.21254,4.122 10.21254,9.20676z" fill="url(#color-13)" stroke="none" stroke-width="0" stroke-linecap="butt"/><path d="M216.16564,174.49489c0,7.093 -6.65063,12.84303 -14.85459,12.84303c-0.59417,0 -3.62861,-1.73176 -3.62861,-1.73176c0,0 2.8655,-3.63959 0.27429,-3.59491c-8.83462,0.15236 -11.50027,-5.1974 -11.50027,-7.51636c0,-7.093 6.65063,-12.84303 14.85459,-12.84303c8.20397,0 14.85459,5.75001 14.85459,12.84303z" fill="url(#color-14)" stroke="none" stroke-width="0" stroke-linecap="butt"/><path d="M194.50269,181.92218l-5.72521,-8.20097l2.32103,-7.58203" fill="none" stroke="#000000" stroke-width="0.5" stroke-linecap="round"/><path d="M198.06161,181.76744l-4.17785,-7.89149l2.63049,-7.89149" fill="none" stroke="#000000" stroke-width="0.5" stroke-linecap="round"/><path d="M199.91844,183.00533l3.86838,-1.39262l3.40418,-3.40418l-3.24944,-2.47577l1.85682,-1.54736l3.24944,2.47577l-2.16629,1.70208" fill="none" stroke="#000000" stroke-width="0.5" stroke-linecap="round"/><path d="M204.25516,175.57352l0.05093,0.01273c0.14591,-0.59306 0.70174,-0.81858 1.30187,-1.00808c-0.16791,-0.19528 -0.17821,-0.37377 0.39179,-0.32754c0.11133,0.00903 0.2515,0.20866 0.39941,0.51011c0.35961,0.1101 0.73084,0.37557 1.14167,0.80138c0.29747,0.11898 1.63453,1.04002 1.56503,1.27387c-0.08438,0.2839 -1.09634,0.73095 -1.74609,0.89793c0.00665,0.04428 0.01013,0.07952 0.01013,0.1044v0.20632c0,0.10682 -0.08659,0.19342 -0.19342,0.19342c-0.06409,0 -0.12089,-0.03117 -0.15609,-0.07917l-0.15339,-0.20451l0.06284,-0.04713c-0.02055,-0.02959 -0.03683,-0.05726 -0.04919,-0.08325c-0.05863,-0.015 -0.09886,-0.05523 -0.09886,-0.05523l-0.11327,-0.12319c-1.04097,-0.21156 -1.39046,-1.33958 -2.3758,-1.5796c0,0 -0.18764,-0.0469 -0.14073,-0.23456c0.01324,-0.05297 0.0377,-0.08724 0.06597,-0.10916z" fill="#000000" stroke="none" stroke-width="0.5" stroke-linecap="butt"/><path d="M291.77514,180.10059l-2.43154,-4.31048l1.10525,-2.87365l0.77367,1.98945l-1.87893,1.10525" fill="none" stroke="#000000" stroke-width="0.5" stroke-linecap="round"/><path d="M291.18507,174.45008c0.08073,0.20818 0.12196,0.38952 0.09279,0.47232c-0.12209,0.34642 -1.25243,0.61056 -1.53814,1.00039c0,0 -0.11605,0.15474 -0.27078,0.03868c-0.15474,-0.11605 -0.03868,-0.27078 -0.03868,-0.27078c0.05162,-0.06762 0.10353,-0.12846 0.15654,-0.18404c-0.02043,-0.03067 -0.03233,-0.0675 -0.03233,-0.1071c0,-0.01437 0.00157,-0.02837 0.00454,-0.04185l0.03993,-0.19968l0.06084,0.01217c0.05718,-0.45581 0.23953,-1.07412 0.56113,-1.3345c0.01512,-0.13469 0.04154,-0.2299 0.07637,-0.29232l-0.04793,-0.00799l0.0402,-0.24118c0.01385,-0.09323 0.09423,-0.16476 0.19131,-0.16476c0.10682,0 0.19342,0.08659 0.19342,0.19342v0.1755c0.01981,0.04862 0.03599,0.09673 0.04949,0.1446c0.03883,0.04501 0.07783,0.09607 0.11618,0.15131c0.00573,0.0031 0.01147,0.00628 0.01722,0.00957c0.31201,0.17765 0.38388,0.41676 0.32795,0.64628z" fill="#000000" stroke="none" stroke-width="0.5" stroke-linecap="butt"/></g></g></svg>