<svg version="1.1" xmlns="http://www.w3.org/2000/svg" xmlns:xlink="http://www.w3.org/1999/xlink" width="506" height="323.55" viewBox="0,0,506,323.55"><g transform="translate(13.5,9.7)"><g data-paper-data="{&quot;isPaintingLayer&quot;:true}" fill-rule="nonzero" stroke-linejoin="miter" stroke-miterlimit="10" stroke-dasharray="" stroke-dashoffset="0" style="mix-blend-mode: normal"><path d="M-12.5,31.3v-40h504v40z" fill="#ffffff" stroke="#000000" stroke-width="2" stroke-linecap="butt"/><text transform="translate(14.5,22.3) scale(0.5,0.5)" font-size="40" xml:space="preserve" fill="#000000" fill-rule="nonzero" stroke="none" stroke-width="1" stroke-linecap="butt" stroke-linejoin="miter" stroke-miterlimit="10" stroke-dasharray="" stroke-dashoffset="0" font-family="Sans Serif" font-weight="normal" text-anchor="start" style="mix-blend-mode: normal"><tspan x="0" dy="0">paraloop.web</tspan></text><path d="M78.5,82.30001c0,0 8.54909,-0.0582 9,4c0.45091,4.0582 -2.87354,6.92242 -8,5c-5.12646,-1.92242 -8.61621,-6.68656 -8,-11c0.61621,-4.31344 3.93495,-5.20547 10,-3c6.06505,2.20547 10.87707,6.50827 12,11c1.12293,4.49173 -2.07601,7.70421 -7,9c-4.92399,1.29579 -5.10523,1.51582 -12,-4c-6.89477,-5.51582 -16.98694,-7.62742 -13,-16c3.98694,-8.37258 13.59065,-6.09411 23,-5c9.40935,1.09411 18.38909,-0.63201 20,10c1.61091,10.63201 -10.48477,19.57465 -15,23c-4.51523,3.42535 -5.05491,3.20945 -14,-1c-8.94509,-4.20946 -15.48409,-6.87136 -20,-15c-4.51591,-8.12864 -11.01787,-12.18571 0,-21c11.01787,-8.81429 21.7634,-9.82092 35,-7c13.2366,2.82092 24.04287,5.18176 26,20c1.95713,14.81824 -11.44108,27.02319 -19,33c-7.55892,5.97681 -11.01263,5.99514 -24,1c-12.98737,-4.99514 -22.21909,-8.74446 -28,-21c-5.78091,-12.25554 -10.79523,-20.50397 3,-32c13.79523,-11.49603 31.34695,-10.43136 45,-8c13.65305,2.43137 22.71046,9.99776 28,21c5.28954,11.00224 0.87766,19.36703 -3,31c-3.87766,11.63297 6.15815,18.16385 -15,23c-21.15815,4.83615 -41.50247,-1.43227 -55,-7c-13.49753,-5.56773 -21.66987,-8.83706 -25,-26c-3.33013,-17.16295 -5.47327,-27.43866 12,-41c17.47328,-13.56135 36.18836,-14.84324 55,-11c18.81164,3.84324 29.77071,13.10831 38,30c8.22929,16.8917 3.27256,36.2877 0,48c-3.27256,11.7123 4.54958,15.58445 -19,20c-23.54958,4.41555 -43.35798,0.82004 -61,-5c-17.64202,-5.82004 -30.00266,-3.82844 -36,-27c-5.99734,-23.17156 -4.03234,-40.20493 14,-58c18.03234,-17.79507 40.31255,-19.61052 62,-17c21.68746,2.61052 33.57662,9.67085 46,30c12.42338,20.32916 12.61913,43.89488 9,60c-3.61913,16.10512 -8.1318,22.25231 -29,29c-20.8682,6.74769 -40.59427,1.12654 -56.125,-1.47501c-15.53073,-2.60155 -37.75,-14.25 -37.75,-14.25" fill="none" stroke="#000000" stroke-width="2.5" stroke-linecap="round"/><text transform="translate(150.5,104.84397) scale(0.90975,0.90975)" font-size="40" xml:space="preserve" fill="#000000" fill-rule="nonzero" stroke="none" stroke-width="1" stroke-linecap="butt" stroke-linejoin="miter" stroke-miterlimit="10" stroke-dasharray="" stroke-dashoffset="0" font-family="Curly" font-weight="normal" text-anchor="start" style="mix-blend-mode: normal"><tspan x="0" dy="0">Paraloop</tspan></text><text transform="translate(283.5,94.90934) scale(0.38543,0.38543)" font-size="40" xml:space="preserve" fill="#000000" fill-rule="nonzero" stroke="none" stroke-width="1" stroke-linecap="butt" stroke-linejoin="miter" stroke-miterlimit="10" stroke-dasharray="" stroke-dashoffset="0" font-family="Handwriting" font-weight="normal" text-anchor="start" style="mix-blend-mode: normal"><tspan x="0" dy="0">Scratch Web Browsers</tspan><tspan x="0" dy="46.150000000000006px">at its best</tspan></text><text transform="translate(28.5,192.3) scale(0.5,0.5)" font-size="40" xml:space="preserve" fill="#000000" fill-rule="nonzero" stroke="none" stroke-width="1" stroke-linecap="butt" stroke-linejoin="miter" stroke-miterlimit="10" stroke-dasharray="" stroke-dashoffset="0" font-family="Curly" font-weight="normal" text-anchor="start" style="mix-blend-mode: normal"><tspan x="0" dy="0">Paraloop</tspan></text><text transform="translate(106.5,193.30001) scale(0.5,0.5)" font-size="40" xml:space="preserve" fill="#000000" fill-rule="nonzero" stroke="none" stroke-width="1" stroke-linecap="butt" stroke-linejoin="miter" stroke-miterlimit="10" stroke-dasharray="" stroke-dashoffset="0" font-family="Sans Serif" font-weight="normal" text-anchor="start" style="mix-blend-mode: normal"><tspan x="0" dy="0">is a Scratch web browser thats main</tspan></text><text transform="translate(28.5,215.3) scale(0.5,0.5)" font-size="40" xml:space="preserve" fill="#000000" fill-rule="nonzero" stroke="none" stroke-width="1" stroke-linecap="butt" stroke-linejoin="miter" stroke-miterlimit="10" stroke-dasharray="" stroke-dashoffset="0" font-family="Sans Serif" font-weight="normal" text-anchor="start" style="mix-blend-mode: normal"><tspan x="0" dy="0">purpose is to make a better web browser</tspan><tspan x="0" dy="46.150000000000006px">that everyone on Scratch can use and help</tspan><tspan x="0" dy="46.150000000000006px">out. Want to make a website for Paraloop?</tspan><tspan x="0" dy="46.150000000000006px">Check out </tspan><tspan x="0" dy="46.150000000000006px">https://scratch.mit.edu/discuss/topic/571091/</tspan></text></g></g></svg>