<svg version="1.1" xmlns="http://www.w3.org/2000/svg" xmlns:xlink="http://www.w3.org/1999/xlink" width="506" height="362.64999" viewBox="0,0,506,362.64999"><g transform="translate(13.5,9.69997)"><g data-paper-data="{&quot;isPaintingLayer&quot;:true}" fill-rule="nonzero" stroke-linecap="butt" stroke-linejoin="miter" stroke-miterlimit="10" stroke-dasharray="" stroke-dashoffset="0" style="mix-blend-mode: normal"><path d="M-12.5,31.30003v-40h504v40z" fill="#ffffff" stroke="#000000" stroke-width="2"/><text transform="translate(170.16666,106.66828) scale(2.02972,2.02972)" font-size="40" xml:space="preserve" fill="#000000" fill-rule="nonzero" stroke="none" stroke-width="1" stroke-linecap="butt" stroke-linejoin="miter" stroke-miterlimit="10" stroke-dasharray="" stroke-dashoffset="0" font-family="Handwriting" font-weight="normal" text-anchor="start" style="mix-blend-mode: normal"><tspan x="0" dy="0">404</tspan></text><text transform="translate(150.83332,151.80414) scale(0.60834,0.60834)" font-size="40" xml:space="preserve" fill="#000000" fill-rule="nonzero" stroke="none" stroke-width="1" stroke-linecap="butt" stroke-linejoin="miter" stroke-miterlimit="10" stroke-dasharray="" stroke-dashoffset="0" font-family="Handwriting" font-weight="normal" text-anchor="start" style="mix-blend-mode: normal"><tspan x="0" dy="0">Website not found</tspan></text><path d="M206.00072,129.40597c0,-1.38622 0.81257,-1.95986 1.48509,-2.19724c1.75579,-2.28649 3.6197,-4.53524 5.23093,-6.91095c2.65785,-3.91893 4.6527,-8.16018 7.39154,-12.03084c1.98963,-2.81184 3.76146,-6.2234 6.6332,-8.03086c0,0 2.05324,-1.17328 3.22652,0.87996c1.17328,2.05324 -0.87996,3.22652 -0.87996,3.22652c-0.83189,0.37047 -1.19871,1.3795 -1.69174,2.14515c-0.01885,0.02927 -2.94851,3.83601 -3.44663,4.53845c-2.71608,3.83014 -4.67905,8.05398 -7.32293,11.93272c-1.84292,2.70368 -3.98676,5.24449 -5.94893,7.86599l-2.31227,0.94593c0,0 -2.36482,0 -2.36482,-2.36482z" fill="#000000" stroke="none" stroke-width="0.5"/><text transform="translate(52.11009,172.61259) scale(0.38678,0.38678)" font-size="40" xml:space="preserve" fill="#000000" fill-rule="nonzero" stroke="none" stroke-width="1" stroke-linecap="butt" stroke-linejoin="miter" stroke-miterlimit="10" stroke-dasharray="" stroke-dashoffset="0" font-family="Sans Serif" font-weight="normal" text-anchor="start" style="mix-blend-mode: normal"><tspan x="0" dy="0">we're so sorry but the page you were looking</tspan><tspan x="0" dy="46.150000000000006px">for was not found. please look at pswb://all-sites.pl</tspan></text><text transform="translate(94,346.70002) scale(0.5,0.5)" font-size="40" xml:space="preserve" fill="#8d8d8d" fill-rule="nonzero" stroke="none" stroke-width="1" stroke-linecap="butt" stroke-linejoin="miter" stroke-miterlimit="10" stroke-dasharray="" stroke-dashoffset="0" font-family="Sans Serif" font-weight="normal" text-anchor="start" style="mix-blend-mode: normal"><tspan x="0" dy="0">Errcode 404: Website not found</tspan></text></g></g></svg>