<svg version="1.1" xmlns="http://www.w3.org/2000/svg" xmlns:xlink="http://www.w3.org/1999/xlink" width="525.52553" height="109.12012" viewBox="0,0,525.52553,109.12012"><defs><radialGradient cx="295.78244" cy="75.16721" r="70.13826" gradientTransform="translate(-241.83515,-180.70266) rotate(13.9734) scale(1.20594,1.20594)" gradientUnits="userSpaceOnUse" id="color-1"><stop offset="0" stop-color="#fdb825"/><stop offset="1" stop-color="#ff6f00"/></radialGradient></defs><g transform="translate(24.45096,-32.32817)"><g data-paper-data="{&quot;isPaintingLayer&quot;:true}" fill-rule="nonzero" stroke-linejoin="miter" stroke-miterlimit="10" stroke-dasharray="" stroke-dashoffset="0" style="mix-blend-mode: normal"><path d="M-24.45095,141.4483v-109.12012h525.52553v109.12012z" fill="#ff8600" stroke="none" stroke-width="0" stroke-linecap="butt"/><path d="M230.83437,114.08022c-1.76657,4.89498 -6.56857,7.87025 -14.26927,8.84378c-0.35003,0.04375 -0.6946,0.0711 -1.03916,0.08204c-0.44848,0.65631 -1.03369,1.22511 -1.72282,1.66812c-1.80485,1.15401 -3.49485,1.71734 -5.16297,1.71734c-3.42922,0 -7.12096,-2.55961 -7.12096,-8.182c0,-0.38285 0.01641,-0.88055 0.05469,-1.56967c0.01641,-0.29534 0.03282,-0.52505 0.03829,-0.6946c-0.09298,-0.4266 -0.1422,-0.85867 -0.1422,-1.29621v-2.64712c0,-0.43207 0.04375,-0.86414 0.13126,-1.29621c0.00547,-0.36644 0.02188,-0.77663 0.04923,-1.22511c-0.13126,-0.48129 -0.22971,-1.03916 -0.22971,-1.66265c0,-0.2844 0.02187,-0.5688 0.06016,-0.84773c0.20783,-1.46576 0.85867,-2.93698 1.95799,-4.11287c-0.37738,-1.05557 -0.57427,-2.1713 -0.57427,-3.31437v-2.78932c0,-1.13214 0.22424,-2.5432 1.32356,-6.05446c0.45942,-1.50951 0.60709,-1.97987 0.80945,-2.41741c1.07744,-2.41741 2.70181,-3.62611 3.88317,-4.22226c1.93065,-0.96259 4.0035,-1.45482 6.15838,-1.45482c0.9954,0 1.94705,0.10391 2.85495,0.30081c0.40473,-0.27346 0.8368,-0.50317 1.29621,-0.69459c0.58521,-0.25158 1.2087,-0.4266 1.89783,-0.53599c1.72281,-0.29534 3.54407,0.0711 5.13016,1.03369c1.66812,1.01728 3.58236,3.12841 3.34718,7.471c-0.03829,0.7657 -0.10391,1.78845 -0.20236,3.12294c-0.00547,0.03281 -0.00547,0.06563 -0.01094,0.09845c-0.08751,0.96806 -0.2133,2.41194 -0.38285,4.32071c0.04375,0.73835 0.02735,1.56421 -0.03828,2.53773c-0.02735,0.37191 -0.08751,0.74382 -0.18596,1.10479c-0.02188,0.08204 -0.04375,0.15861 -0.06563,0.22971c0.73835,0.94618 1.24152,1.89236 1.58608,2.71275c0.32268,0.65084 0.59615,1.40013 0.8368,2.31349c0.09298,0.34456 0.15314,0.69459 0.18048,1.05009c0.24612,3.06825 0.12032,4.87857 -0.44848,6.40996z" fill="#fbfbfb" stroke="none" stroke-width="1" stroke-linecap="butt"/><path d="M199.70827,124.1582c-1.84634,0 -4.5642,-0.58244 -7.02778,-3.35597c-0.04068,-0.04604 -0.08083,-0.09207 -0.12152,-0.13865c-0.7516,0.4288 -1.59795,0.73982 -2.51978,0.91112c-0.92558,0.17237 -2.28638,0.41702 -4.07598,0.73072c-1.83081,0.35599 -3.19055,0.52195 -4.27406,0.52195c-3.64451,0 -5.70231,-1.59528 -6.78741,-2.93359c-0.73554,-0.90684 -1.18468,-2.01283 -1.29014,-3.17556c-0.30139,-3.32117 1.40577,-6.18731 4.30136,-7.54062c-0.04229,-0.61509 -0.09047,-1.31208 -0.14561,-2.10009c-0.92879,-0.87098 -1.61347,-1.98606 -1.9775,-3.26764c-0.14882,-0.52355 -0.2243,-1.0653 -0.2243,-1.60973v-0.14186c0,-0.66702 0.11295,-1.31744 0.32387,-1.92771c0.15364,-0.60117 0.4015,-1.17612 0.73661,-1.70288c0.17398,-0.27355 0.36028,-0.53265 0.55781,-0.77783c-0.00428,-0.0471 -0.00856,-0.09476 -0.01177,-0.14186c-0.95502,-0.35813 -1.93949,-0.93093 -2.78853,-1.84795c-1.28746,-1.39185 -1.9154,-3.21035 -1.76711,-5.12201c0.35385,-4.25585 3.83722,-6.25691 6.81419,-6.71836c1.27836,-0.24518 3.61453,-0.59421 7.12735,-1.06477c0.55085,-0.07334 1.09475,-0.06906 1.6199,0.00643c0.33244,0.01499 1.06958,0.04282 2.66005,0.08458c0.10439,0.00268 0.20931,0.00856 0.31317,0.01659c3.80778,0.303 6.49459,1.01713 8.45442,2.24784c0.0364,0.02248 0.07227,0.0455 0.10813,0.06906c1.03814,0.68384 2.54336,-6.75755 6.73888,-5.05096c12.08265,4.91479 3.33009,28.31148 4.31885,31.2697c0.03908,0.11831 0.07494,0.23661 0.10653,0.35706c0.80835,3.04548 -0.71573,5.70552 -1.21626,6.57971c-1.01444,1.773 -2.18521,3.08884 -3.57706,4.01817c-1.44271,0.96359 -3.25479,1.54067 -5.5385,1.76444c-0.3046,0.02891 -0.5728,0.04068 -0.83779,0.04068z" fill="#ffffff" stroke="none" stroke-width="1" stroke-linecap="butt"/><g><path d="M65.22297,79.6937c0,0 8.19652,-8.16899 23.3499,-1.23263c0.40045,0.1833 1.08541,0.67185 1.08541,0.67185c0,0 22.87106,-3.39582 24.79054,2.03655c0.09761,0.27625 0.24973,0.91106 0.24973,0.91106c0,0 3.34566,-2.23917 5.22699,-2.74415c1.77192,-0.47561 5.75244,-0.20289 5.75244,-0.20289c0,0 16.44205,-7.68549 23.22512,0.52102c2.83133,3.42548 10.48326,8.79214 1.54704,20.29782c-0.82552,1.06289 9.01701,12.05783 0.29898,24.73563c-2.02499,2.94475 -13.55616,4.87365 -18.02436,5.57359c-1.9188,0.30058 -9.57504,-3.58194 -9.57504,-3.58194c0,0 -5.68044,1.42645 -8.50973,1.31239c-2.81478,-0.11347 -8.42272,-1.99498 -8.42272,-1.99498c0,0 -10.85046,1.64562 -14.58854,1.10463c-3.77501,-0.54633 -7.95182,-4.36673 -7.95182,-4.36673c0,0 -2.20541,-0.56434 -2.26867,0.12646c-0.1791,1.95564 -5.49085,5.19057 -9.91273,5.55252c-5.58617,0.45725 -10.5273,-2.26124 -10.5273,-2.26124c0,0 -2.04493,0.4082 -3.25299,0.48351c-1.018,0.06346 -3.52325,-0.06108 -3.52325,-0.06108c0,0 -7.07163,3.13654 -10.62731,3.04089c-4.03275,-0.10849 -12.31867,-3.65818 -12.31867,-3.65818c0,0 -0.78334,0.966 -1.23972,1.38138c-1.764,1.60554 -4.19224,2.50286 -7.51406,2.28949c-22.20044,-1.42595 -12.70181,-28.1096 -12.70181,-28.1096c0,0 0.09664,-5.71743 1.45344,-11.18328c2.88328,-11.61525 16.44859,-11.71816 16.44859,-11.71816c0,0 0.74456,-0.42617 1.14177,-0.59454c1.62826,-0.69018 3.51716,-0.90125 5.43797,-0.90125c3.6708,0 6.94597,1.60808 9.08656,4.1227c0.42258,0.49642 1.1294,1.58984 1.1294,1.58984c0,0 3.04914,-2.86597 6.11514,-3.29296c3.74737,-0.5219 14.61969,0.15228 14.61969,0.15228z" fill="#ffffff" stroke="none" stroke-width="0" stroke-linecap="butt"/><path d="M38.6903,92.42742c0,0.98636 1.33044,0.37223 2.76402,0.22512c1.40401,-0.14408 2.91178,0.18874 2.91178,0.18874c0,0 2.04882,-2.1817 3.14249,-1.92928c0.24827,0.0573 0.56201,0.60222 0.56201,0.60222c0,0 1.98608,-6.52709 18.99233,-3.12734c0.31073,0.06212 0.9473,0.19639 0.9473,0.19639c0,0 1.95373,-4.31576 4.96241,-4.45887c1.2206,-0.05806 5.10663,-1.54802 7.54706,-0.79199c3.32806,1.03102 5.18759,4.40909 5.18759,4.40909c0,0 20.20886,-3.56773 23.93542,0.38907c0.37468,0.39783 2.08036,2.78539 2.08036,2.78539c0,0 1.6599,0.0228 2.36678,-0.06821c0.5737,-0.07385 1.55895,-0.43719 1.55895,-0.43719c0,0 2.88478,-2.64246 5.11156,-3.27551c2.33136,-0.66278 8.57726,-0.61609 8.57726,-0.61609c0,0 5.59835,-1.98052 8.67832,-2.04578c14.35952,-0.30428 5.58535,10.7553 5.58535,10.7553l-0.39626,14.01125c0,0 5.92788,3.61224 2.86027,7.94902c-3.63271,5.13568 -9.73707,3.83381 -9.73707,3.83381c0,0 -3.23303,1.75769 -4.61047,1.39563c-1.37401,-0.36116 -3.64392,-3.56528 -3.64392,-3.56528c0,0 -1.3061,0.6393 -4.63731,0.56147c-1.03312,-0.02414 -2.63756,-0.99008 -2.63756,-0.99008c0,0 -0.72027,0.30275 -1.07071,0.43361c-8.47952,3.16627 -13.16357,-1.50538 -13.16357,-1.50538c0,0 -1.29603,2.44434 -13.56381,1.4695c-2.65734,-0.21116 -5.13249,-4.22965 -5.13249,-4.22965c0,0 -0.42524,0.27262 -0.64591,0.37155c-2.96535,1.32943 -6.7837,-1.66025 -6.7837,-1.66025c0,0 -0.24635,0.45268 -0.46454,0.60112c-0.7985,0.54326 -2.25308,0.45625 -2.25308,0.45625c0,0 -0.38243,0.56603 -0.57455,0.82966c-6.8973,9.46418 -14.50375,2.49149 -14.50375,2.49149c0,0 -0.25609,-0.06188 -0.54996,0.14717c-2.46744,1.75526 -9.49018,1.02364 -9.49018,1.02364c0,0 -6.46818,3.41633 -9.41745,3.07451c-2.74271,-0.31789 -7.70353,-5.05886 -7.70353,-5.05886c0,0 -0.68816,0.22217 -0.76262,0.53507c-0.393,1.65152 -6.90776,1.56031 -6.90776,1.56031c0,0 -0.48381,0.4966 -0.74622,0.71169c-1.19404,0.97874 -2.67701,1.48045 -4.53155,1.25196c-10.74529,-1.32383 -3.95377,-18.26853 -3.95377,-18.26853c0,0 -0.25553,-0.75062 -0.3437,-1.16102c-0.47747,-2.22249 -0.23328,-5.00144 -0.12055,-6.2328c0.94597,-10.33245 11.36261,-8.67251 11.36261,-8.67251c0,0 0.41381,-0.55 0.64085,-0.78852c0.88551,-0.93027 1.96589,-1.47669 3.13198,-1.47669c3.00404,0 5.43929,3.62642 5.43929,8.09983z" fill="#fdb825" stroke="none" stroke-width="0" stroke-linecap="butt"/><g fill="none" stroke="#ffffff" stroke-width="3" stroke-linecap="round"><path d="M130.32546,92.69131l-7.68597,0.11825"/><path d="M126.5416,92.80956l0.23649,19.74701"/><path d="M130.4437,113.26605l-7.21298,-0.11825"/><path d="M132.57212,116.10394l8.15895,-1.53719"/><path d="M137.30193,114.21201l-0.23649,-22.70315"/><path d="M133.75457,90.3264h7.09474"/><path d="M127.48756,103.56991l9.10491,-1.65544"/><path d="M119.80945,107.24779c0,0 -0.30376,7.44742 -5.5551,7.29403c-6.82157,-0.19926 -5.38518,-7.49339 -5.46745,-9.17651c-0.17006,-3.4789 1.1224,-7.83907 4.47121,-8.00641c0.97801,-0.04887 5.53294,3.8898 5.60539,3.74011c0.07898,-0.1632 0.23649,-5.91228 0.23649,-5.91228"/><path d="M90.49814,99.45135l-1.41895,-6.85825l17.02737,-0.35474v4.96632"/><path d="M97.59287,92.71135l0.35474,19.86526"/><path d="M102.55918,112.57661l-8.51368,0.11825"/><path d="M77.21271,107.72854h-6.03052"/><path d="M74.49304,89.87345l4.96632,-0.11825l-3.78386,17.50035"/><path d="M86.79061,107.01907l-7.09474,-17.3821"/><path d="M91.04744,105.48188l-6.97649,3.54737"/><path d="M76.85796,103.35346l8.15895,-1.3007"/><path d="M60.81625,112.10363l-7.21298,1.18246"/><path d="M57.62364,112.22187l-0.82772,-18.91929"/><path d="M52.53906,93.65731c0,0 13.68527,-1.58276 14.43832,2.30102c0.70699,3.64618 -12.19166,6.44916 -12.19166,6.44916"/><path d="M71.69486,110.80293c0,0 -0.97621,5.09072 -4.77625,3.24859c-1.94098,-0.94092 -1.00775,-8.21866 -1.41226,-10.07084c-0.51441,-2.35537 -2.9164,-3.22862 -2.9164,-3.22862"/><path d="M49.45331,109.25797c0,0 -0.30376,7.44742 -5.5551,7.29403c-6.82157,-0.19926 -5.38518,-7.49339 -5.46745,-9.17651c-0.17006,-3.4789 1.1224,-7.83907 4.47121,-8.00641c0.97801,-0.04887 5.53294,3.8898 5.60539,3.74011c0.07898,-0.1632 0.23649,-5.91228 0.23649,-5.91228"/><path d="M22.51364,115.56842c0,0 0.41116,-6.00291 0.50857,-7.42514c0.03927,-0.57337 -0.36859,-1.06813 0.08265,-1.20678c0.45125,-0.13865 0.211,0.41029 0.60195,0.99642c1.48157,2.22121 5.54761,6.96773 10.50935,1.48018c4.02971,-4.45674 -11.04795,-4.72132 -10.66098,-11.08685c0.14952,-2.45968 1.57327,-4.67948 3.46214,-5.86292c3.31552,-2.07728 5.415,7.1713 5.07421,7.26018c-0.31098,0.08111 0.94597,-8.27719 0.94597,-8.27719"/></g></g><path d="M110.65442,65.80813c0.4111,1.84268 0.00483,3.24524 -0.50782,4.18351c-1.31067,2.50043 -3.71921,3.99005 -6.47597,3.99005c-0.52717,0 -1.07852,-0.0532 -1.6734,-0.16927h-2.16188c-0.56586,0 -1.62988,-0.03385 -4.28023,-0.32888c-1.57183,-0.17895 -2.90185,-0.266 -3.94652,-0.266h-2.63101c-0.06771,0.00483 -0.3047,0.01935 -0.87055,0.07738c-0.88507,0.09189 -1.55733,0.13542 -2.12319,0.13542c-1.64438,0 -3.11466,-0.33855 -4.36729,-1.00114c-0.08222,-0.04353 -0.1596,-0.09189 -0.24182,-0.13542c-0.84153,-0.50782 -2.80029,-2.02163 -2.80029,-5.20399c0,-1.71693 0.63841,-3.30328 1.79431,-4.46885c0.56103,-0.5707 1.2091,-1.035 1.92006,-1.38805c-1.60085,-1.75078 -2.0845,-4.23187 -1.21878,-6.57753c0.33855,-0.89473 0.8367,-1.67824 1.47511,-2.34083c-2.90185,-0.97696 -4.29958,-3.42903 -4.39147,-5.79887c-0.24666,-1.82333 0.4643,-3.67568 1.9394,-4.8606c1.4606,-1.17525 3.22106,-1.86202 5.08791,-1.99745c0.12091,-0.00483 0.24666,-0.00967 0.3724,-0.00967h1.48478c3.19688,-0.05803 8.62334,-0.84637 16.12464,-2.34566c0.96728,-0.21764 1.96842,-0.17895 3.03243,0.12575c0.49332,0.14025 1.61053,0.4643 2.61167,1.44609c0.2128,0.20797 0.40142,0.43044 0.57553,0.66743c0.66743,0.91892 1.12688,1.95392 1.36871,3.07596c0.10157,0.48848 0.13542,0.9818 0.10157,1.47511c-0.05803,0.91408 -0.02418,1.9249 0.10157,3.00342c0.1596,1.30583 -0.17411,2.62618 -0.9286,3.69986c-1.1559,1.63471 -2.9212,2.6697 -4.9525,2.9212c0.00483,0.08705 0.00967,0.17895 0.00967,0.266v0.4111c1.49445,0.14025 2.868,0.77383 3.9175,1.8185c1.7266,1.73628 1.74111,3.88365 1.66373,4.99119c0.08705,0.58037 0.11607,0.95761 0.11607,1.33002c0,0.44978 -0.04353,0.9431 -0.14025,1.61053c-0.00967,0.07255 -0.01935,0.13058 -0.02902,0.18862v1.29133c0.01451,0.06287 0.02902,0.12091 0.04353,0.18378z" fill="#ffffff" stroke="none" stroke-width="1" stroke-linecap="butt"/><path d="M85.97175,75.07545c-0.97323,1.05679 -2.76241,2.30528 -5.79024,2.30528h-0.83069c-0.5112,0.02949 -0.90934,0.04424 -1.24357,0.04424c-0.20153,0 -0.41288,0.01474 -0.62916,0.0344c-0.16712,0.05899 -0.50136,0.17695 -1.09611,0.40798c-1.61714,0.64882 -2.87055,0.94374 -4.06988,0.94374c-1.68104,0 -3.26377,-0.59967 -4.57124,-1.73019c-0.7717,-0.66356 -1.36646,-1.45985 -1.7646,-2.33969c-0.62424,-0.04915 -1.41561,-0.12288 -2.42817,-0.21136h-2.56088c-0.11796,0 -0.23102,-0.00491 -0.34407,-0.01474c-1.27798,-0.07864 -2.51173,-0.44729 -3.65699,-1.09611c-2.12833,-1.20425 -3.39649,-3.27852 -3.39649,-5.54939c0,-2.47732 1.38612,-4.68429 3.71106,-5.90821c0.07373,-0.04424 0.15237,-0.08357 0.23103,-0.11797c0.16712,-0.07864 0.33424,-0.14745 0.50136,-0.21627c0.00491,-0.12288 0.00492,-0.25068 0.00984,-0.37848v-3.50953c0,-0.14746 0.00491,-0.29001 0.01474,-0.43254c-0.27526,-1.1551 -0.24577,-2.33478 0.08847,-3.42598c0,-0.0639 0,-0.14746 -0.00491,-0.25559c-0.00984,-0.10813 -0.00983,-0.21628 -0.00983,-0.3195c0,-0.37356 0.02458,-0.80611 0.09339,-1.44019c0.01475,-0.1622 0.0295,-0.29001 0.03441,-0.39323c-0.00491,-0.11797 -0.03441,-0.66356 -0.18679,-2.40851c-2.88529,-1.11578 -4.28615,-3.60293 -4.60074,-5.80991c-0.15237,-1.06171 0.01475,-2.1529 0.48662,-3.12122c1.33205,-2.74766 4.04039,-4.38937 7.24517,-4.38937c0.19661,0 0.39323,0.00983 0.58492,0.02949c0.20645,0.01966 0.84052,0.07373 1.8924,0.1622c0.90442,0.07864 1.40086,0.09339 1.66628,0.09339h0.17696c0.08357,-0.00983 0.14745,-0.01475 0.23102,-0.01966c0.90934,-0.04915 1.51884,-0.08356 1.82359,-0.10322c0.01966,0 0.04424,-0.00492 0.0639,-0.00492c0.10322,-0.10322 0.21136,-0.20644 0.32441,-0.30475c1.5729,-1.38121 3.53903,-2.10376 5.68702,-2.10376c0.74221,0 1.30256,0.00983 1.72036,0.02949c0.33425,0.01474 0.60458,0.03933 0.85526,0.07373c0.05899,0.00491 0.12288,0.01475 0.18679,0.02949h1.99562c0.09339,-0.00983 0.21627,-0.02458 0.37356,-0.03933c0.61442,-0.0639 1.10104,-0.09339 1.52867,-0.09339c3.07207,0 5.54448,1.509 6.66025,4.05514c0.42763,0.92899 0.64882,1.8924 0.64882,2.86563c0,2.28562 -1.26816,4.71378 -4.02564,5.86889c0.08847,1.79409 0.13271,3.54886 0.13271,5.25939v11.30522c0.00984,0.09831 0.02949,0.21627 0.04915,0.3539c0.00491,0.0344 0.00983,0.07373 0.01474,0.10813c0.04915,0.3539 0.08848,0.70781 0.11797,1.06171c2.23647,0.96832 3.75039,3.00817 3.95191,5.61329c0.10813,1.29273 -0.14746,3.19987 -1.8924,5.09226z" fill="#ffffff" stroke="none" stroke-width="1" stroke-linecap="butt"/><path d="M82.47401,70.41867c0.02851,0.28755 -0.13026,0.61933 -0.4758,0.99388c-0.34603,0.37455 -0.95161,0.56232 -1.81571,0.56232c-0.20202,0 -0.5338,0 -0.99437,0c-0.46105,0.02851 -0.82135,0.04326 -1.08087,0.04326c-0.54756,0 -1.10988,0.04326 -1.68595,0.13026c-0.31753,0.05702 -0.99437,0.28755 -2.03248,0.69158c-0.9226,0.37406 -1.61419,0.56231 -2.07525,0.56231c-0.37504,0 -0.72107,-0.13713 -1.03762,-0.41092c-0.31753,-0.27427 -0.47531,-0.59868 -0.47531,-0.97274c0,-0.60507 0.70583,-1.08039 2.1185,-1.42642c2.04625,-0.51906 3.09812,-0.79284 3.15613,-0.82135c-0.058,-1.84423 -0.12977,-3.96273 -0.21578,-6.35599c-0.08651,-2.24827 -0.13026,-3.31439 -0.13026,-3.19938v-2.42129c0,-0.02901 0,-0.24478 0,-0.64882c0.02901,-0.31704 0.02901,-0.54658 0,-0.69158c-0.02901,-0.25904 -0.12977,-0.4173 -0.30229,-0.47531c-0.02901,-0.02901 -0.46106,-0.04375 -1.29715,-0.04375c-1.44166,0.02949 -3.11286,0.23151 -5.01509,0.60507c-0.72108,0.17351 -1.80196,0.41878 -3.24313,0.73533v6.18249c0.02851,0.11551 0.04326,0.67782 0.04326,1.68644c0,0.80759 0.087,1.29715 0.25953,1.46968c0.14402,0.058 0.90786,0.11551 2.29152,0.17351c0.95111,0.02901 1.54144,0.37503 1.77247,1.03713c0.05702,0.17351 -0.00787,0.43255 -0.19464,0.77859c-0.18776,0.34555 -0.38192,0.56231 -0.58394,0.64833c-0.46105,0.17302 -0.77809,0.25904 -0.95111,0.25904c-0.63457,-0.02901 -2.20501,-0.15876 -4.71281,-0.3888h-2.81058c-0.46105,-0.02949 -0.90786,-0.16662 -1.34041,-0.41091c-0.43254,-0.24478 -0.64834,-0.52545 -0.64834,-0.84347c0,-0.46057 0.27379,-0.83511 0.82135,-1.12364c0.43254,-0.20153 0.90835,-0.30279 1.42692,-0.30279c0.20104,0 0.56231,0.00787 1.08038,0.02163c0.51906,0.01474 0.89311,0.00787 1.12413,-0.02163c-0.058,-1.11922 -0.058,-2.82778 0,-5.12569c0,0.02949 0,-1.16247 0,-3.57393c0,-0.08602 0.03589,-0.26543 0.10863,-0.53872c0.07177,-0.2728 0.10813,-0.48121 0.10813,-0.62424c-0.11551,-0.11502 -0.23151,-0.28705 -0.34603,-0.51709c-0.058,-0.22954 -0.058,-0.43009 0,-0.6036c0.20153,-0.45958 0.27379,-1.17673 0.21578,-2.1534c0,-0.17204 0.02212,-0.46597 0.06537,-0.8823c0.04326,-0.41633 0.06488,-0.7255 0.06488,-0.92654c0,-0.37307 -0.07225,-1.36351 -0.21627,-2.9718v-3.57491c0,-0.17154 -0.05653,-0.44435 -0.16958,-0.81791c-0.79235,0.08651 -1.37285,0.12977 -1.74002,0.12977c-1.64172,0 -2.54712,-0.59033 -2.7162,-1.77247c0.43206,-0.89262 1.2244,-1.34041 2.37802,-1.34041c-0.02949,0 0.64834,0.058 2.03199,0.17302c1.29715,0.11551 2.23352,0.14451 2.81058,0.08651c1.6137,-0.08651 2.33478,-0.12976 2.16126,-0.12976c1.58519,0 2.29152,0.4758 2.11899,1.42692c-0.14451,0.69158 -0.80759,1.05237 -1.98923,1.08038c-0.8936,0.02949 -1.77197,0.058 -2.63707,0.08651c0.1514,1.0096 0.25216,2.13374 0.30279,3.37239c0,0.77809 0,1.88847 0,3.32915c0,1.55619 0,2.68032 0,3.3719c0.02851,0.02949 0.07176,0.058 0.12977,0.0865c0.46105,0.02949 0.92212,0.04326 1.38317,0.04326c1.06613,0 2.43554,-0.0865 4.10723,-0.25904c2.24827,-0.25904 3.6162,-0.40305 4.10675,-0.43255c0.14402,-0.92211 0.21628,-2.01725 0.21628,-3.28589c0,-2.39228 -0.20202,-5.0726 -0.60507,-8.04194c0.02851,0 -0.54757,0 -1.7297,0c-0.60507,0 -1.15313,-0.1106 -1.64318,-0.33277c-0.49006,-0.22217 -0.73484,-0.67438 -0.73484,-1.35662c0,-0.2964 0.10076,-0.53331 0.30278,-0.71075c0.57608,-0.50381 1.28192,-0.75598 2.1185,-0.75598c1.55668,0 2.19026,0.04326 1.90222,0.12977h2.9831c0.11453,0 0.38143,-0.02163 0.79972,-0.06489c0.4178,-0.04326 0.74221,-0.06489 0.97274,-0.06489c0.92212,0 1.49868,0.28951 1.72969,0.86607c0.11453,0.23151 0.17302,0.44828 0.17302,0.64931c0,0.63506 -0.59082,1.01059 -1.77247,1.1261c-0.86461,0.02949 -1.72969,0.058 -2.59381,0.0865c0.31704,3.43433 0.4758,6.73939 0.4758,9.91469v11.47381c0,0.17351 0.03686,0.50578 0.11157,0.99585c0.09831,0.75057 0.14795,1.48639 0.14795,2.20796c-0.02901,1.29912 -0.02901,2.30971 0,3.03127c0.05751,0.08651 0.11453,0.15778 0.17302,0.21578c1.41217,-0.20202 2.10376,-0.30229 2.07574,-0.30229c1.03762,0.00098 1.5847,0.4183 1.64269,1.25488z" fill="#000000" stroke="none" stroke-width="1" stroke-linecap="butt"/><path d="M61.1736,53.85479c-0.96528,0.87753 -3.85594,11.94463 -3.85594,13.91131c0,2.92163 -1.68278,5.46129 -4.39277,6.62271c-0.0671,0.03097 -0.13937,0.06194 -0.20648,0.08775c-0.90849,0.34584 -1.93055,0.51619 -3.12811,0.51619c-0.4336,0 -0.89817,-0.02065 -1.40404,-0.0671c-0.30971,-0.01548 -0.76396,-0.01033 -1.3008,0.00516c-0.9756,0.1084 -2.34867,0.2168 -4.1863,0.32004c-0.03613,0 -0.07227,0.00516 -0.11356,0.00516c-0.24261,0.01033 -0.4749,0.01548 -0.70202,0.01548c-3.28813,0 -5.68841,-1.0427 -7.1389,-3.09197c-0.03097,-0.04129 -0.05678,-0.08259 -0.08259,-0.12388c-1.4763,-2.20413 -1.5176,-4.99155 -0.11356,-7.26795c0.01033,-0.02581 0.02581,-0.04646 0.04129,-0.07227c0.89301,-1.40404 2.19897,-2.40544 3.89207,-2.9939c0.02065,-0.99624 0.01548,-2.24542 -0.01548,-3.72689c-0.84139,0.35101 -1.81183,0.55748 -2.90099,0.55748c-2.87518,0 -5.24965,-1.70859 -6.07556,-4.30502c-0.17034,-0.52651 -0.33036,-1.29564 -0.70202,-3.03003c-0.01548,-0.06194 -0.02581,-0.12388 -0.03613,-0.18583l-0.76396,-4.26889c-0.02581,-0.09292 -0.06194,-0.20131 -0.10324,-0.3252c-0.39746,-1.13045 -0.5833,-2.09057 -0.5833,-3.01971c0,-1.1511 0.33552,-2.89066 1.92539,-4.62506c0.80009,-0.87753 2.25575,-2.01314 4.59925,-2.37963c0.28907,-0.04646 0.5833,-0.07227 0.87753,-0.07227h5.70906c0.12905,0 0.25809,0.00516 0.38714,0.01548c2.17832,0.07743 4.12952,0.07227 5.80197,-0.00516c2.33834,-0.10324 4.67152,-0.30455 6.95824,-0.59878c0.25809,-0.08259 0.53684,-0.16518 0.83623,-0.23744c0.2839,-0.07227 0.57297,-0.11873 0.86203,-0.14969c2.19897,-0.20131 4.24824,0.4336 5.84327,1.79634c1.03941,0.89286 -3.07303,3.37306 -3.17065,7.34003c-0.08805,3.57839 3.31518,9.29161 3.24291,9.35355z" fill="#ffffff" stroke="none" stroke-width="1" stroke-linecap="butt"/><path d="M57.56689,43.22292c-0.21164,0.8481 -0.39334,1.99765 -0.54458,3.45073c-0.06143,0.7268 -0.03149,1.3168 0.09085,1.77105c0.21061,0.75725 0.19666,1.25692 -0.04542,1.4985c-0.33346,0.30249 -0.78719,0.45373 -1.36223,0.45373c-0.6664,0 -1.10619,-0.1977 -1.3168,-0.59414c-0.03149,-1.21924 -0.016,-2.36311 0.04542,-3.4306c0.05936,-1.31112 0.09085,-1.99714 0.09085,-2.05805c-0.03149,0 -0.0764,-0.03045 -0.13627,-0.09188c-2.81581,0.12234 -5.46439,0.30404 -7.94623,0.54664c-0.06091,0.30404 -0.06091,0.78874 0,1.45566c0.12028,0.94049 0.1817,1.48662 0.1817,1.63735c-0.12079,0.94049 -0.1817,2.33525 -0.1817,4.18578c0.12028,0.78874 0.1817,4.17081 0.1817,10.14571v3.32168c0,0.51568 0.07485,0.87959 0.22506,1.09174h2.78794c0.50948,-0.06039 0.9214,0.06091 1.23679,0.3634c0.31436,0.30301 0.4718,0.66588 0.4718,1.08916c0,0.66537 -0.31745,1.1351 -0.9534,1.40816c-0.39385,0.15073 -1.08967,0.1817 -2.0885,0.09085c-0.48419,-0.03097 -1.19601,-0.03097 -2.13445,0c-0.84759,0.1053 -2.20929,0.21112 -4.08616,0.31745c-1.63477,0.06039 -2.6336,-0.16673 -2.99699,-0.68085c-0.24261,-0.36288 -0.24261,-0.74177 0,-1.1351c0.42328,-0.66537 1.52844,-0.99883 3.31497,-0.99883c0.63543,0 1.02825,-0.05265 1.18001,-0.15847c0.15124,-0.10582 0.22712,-0.31023 0.22712,-0.61272c0,-0.27152 0,-0.52806 0,-0.77015c0,-0.4527 0,-1.11755 0,-1.99352c0.09085,-1.53979 0.09085,-3.83632 0,-6.88752c-0.1213,-4.37987 -0.06091,-8.23065 0.1817,-11.55388c-0.03045,-0.02994 -0.07588,-0.07536 -0.13731,-0.13627c-1.09587,0.06091 -2.86124,0.03045 -5.29611,-0.09137c-0.2741,0 -1.20324,0.06143 -2.78536,0.18222c0.39334,2.75491 0.63543,4.82844 0.72628,6.2206c0,0.1817 -0.03045,0.59052 -0.09085,1.22595c-0.03045,0.45373 -0.40882,0.68085 -1.1351,0.68085c-0.39385,0 -0.62046,-0.13525 -0.68085,-0.40521c-0.03045,-0.05936 -0.21216,-0.87081 -0.54509,-2.43177c-0.1817,-1.0205 -0.43928,-2.46171 -0.7717,-4.32309c0,-0.11873 -0.10633,-0.49399 -0.31745,-1.1253c-0.18067,-0.51051 -0.271,-0.90075 -0.271,-1.17072c0,-0.20957 0.14299,-0.47335 0.43153,-0.7877c0.28752,-0.31488 0.71905,-0.51825 1.29409,-0.60858c0.09085,0 0.23383,0 0.43153,0c0.19615,0 0.35514,0 0.47645,0c3.60249,0 5.17635,0 4.72211,0c2.4519,0.09137 4.63125,0.09137 6.53806,0c2.72393,-0.12028 5.41741,-0.36288 8.08198,-0.72628c0.1817,-0.09085 0.45373,-0.1817 0.81661,-0.27203c0.6664,-0.06039 1.21098,0.09085 1.63529,0.45425c0.42328,0.36236 0.57452,0.84706 0.45373,1.45256z" fill="#000000" stroke="none" stroke-width="1" stroke-linecap="butt"/><path d="M105.67437,47.73152c-0.34,0.48268 -0.86524,0.72353 -1.57377,0.72353c-0.36902,0 -0.69548,-0.07061 -0.97841,-0.2128c-0.02854,-0.76561 -0.09963,-1.89975 -0.21232,-3.40339c-2.41096,0.45414 -6.25398,1.1206 -11.52858,1.99986c-0.25537,0.02854 -0.46817,0.09963 -0.63841,0.21232c0.14171,2.60973 0.2128,5.1624 0.2128,7.6575c0.28728,0.05707 1.19314,-0.07061 2.7171,-0.38305c0.74771,-0.11269 1.89878,-0.38256 3.45127,-0.80817c0.02805,-0.45365 -0.02854,-1.21249 -0.17024,-2.27602c-0.14219,-1.06353 -0.19878,-1.85042 -0.17024,-2.36114c0,-0.53829 0.36806,-0.80817 1.10609,-0.80817c0.85073,0 1.3039,0.35451 1.36097,1.06353c0.11269,1.07804 0.28293,2.69437 0.51073,4.84948v6.59398c0.08512,0.11366 0.14122,0.19878 0.17024,0.25488c-0.08512,0.34048 -0.32646,0.63163 -0.72304,0.87249c-0.39755,0.24134 -0.79462,0.36128 -1.19121,0.36128c-0.51073,0 -0.85121,-0.22635 -1.02097,-0.68049c0.05659,-0.28293 0.09914,-0.72304 0.12768,-1.31889v-3.91363c-1.79963,0.05707 -3.82706,0.42512 -6.08325,1.1056c0,0.51073 -0.01451,1.8156 -0.04256,3.91412c-0.02902,1.72999 -0.02902,2.90766 0,3.53107c0,0.14219 0.11269,0.39755 0.34048,0.76561c0.59536,0.02902 1.5167,0.08512 2.76499,0.17073c1.44657,0.14219 2.89266,0.28342 4.33924,0.42512c1.7295,0.19878 3.17608,0.27036 4.33972,0.2128c0.02805,-0.36853 0.09867,-0.95036 0.21232,-1.74401v-2.5101c-0.17024,-0.28293 -0.25537,-0.55328 -0.25537,-0.80817c0,-0.4256 0.17702,-0.78689 0.532,-1.08481c0.35403,-0.29744 0.74481,-0.44688 1.16993,-0.44688c0.34048,0 0.60987,0.10011 0.80865,0.29792c0.11269,0.11366 0.14122,0.48268 0.08512,1.10609c-0.02902,0.14219 -0.01451,0.3903 0.04256,0.74432c0.05659,0.355 0.08512,0.58908 0.08512,0.70176c0,0.17073 -0.02854,0.44688 -0.08512,0.82993c-0.05707,0.38256 -0.08512,0.58908 -0.08512,0.61664v2.55218c0,0.02902 0.0561,0.17024 0.17024,0.4256c0.05659,0.25488 0.05659,0.42512 0,0.51073c-0.39804,0.79462 -0.99533,1.19121 -1.78996,1.19121c-0.19926,0 -0.4406,-0.02805 -0.72498,-0.08512c-0.28486,-0.05659 -0.45462,-0.08512 -0.5117,-0.08512h-2.60006c-0.68193,0 -1.91087,-0.09914 -3.68729,-0.29792c-1.77593,-0.19781 -3.28973,-0.29744 -4.53946,-0.29744h-2.68518c-0.22779,0 -0.68193,0.03579 -1.36387,0.1064c-0.68193,0.07061 -1.20813,0.1064 -1.57764,0.1064c-0.76705,0 -1.39289,-0.12768 -1.87508,-0.38305c-0.14219,-0.08512 -0.21329,-0.29744 -0.21329,-0.63792c0,-0.31195 0.08464,-0.55328 0.25294,-0.72304c0.36515,-0.36853 0.87104,-0.58086 1.51767,-0.63792c0.42126,0 0.85653,0 1.3068,0c0.30857,0.05707 0.72982,0.02854 1.26424,-0.08512c0.16879,-0.08561 0.26746,-0.28342 0.29502,-0.59536c0.02805,-0.1983 0.02805,-0.49573 0,-0.89377c-0.02805,-0.45365 -0.04208,-0.70854 -0.04208,-0.76561c0,-2.94974 -0.01354,-4.63716 -0.04208,-5.06276c-0.50154,-0.0561 -1.19895,-0.24037 -2.09079,-0.55328c-0.3932,-0.31195 -0.49138,-0.73707 -0.29212,-1.27633c0.17024,-0.45365 0.55328,-0.77963 1.14865,-0.97841c0.42512,-0.14122 0.85073,-0.26939 1.27633,-0.38256c0.08512,-0.31195 0.09867,-0.69499 0.04256,-1.14865c-0.05707,-0.39658 -0.09963,-0.77963 -0.12768,-1.14865c-0.05707,-1.21926 -0.15622,-3.09096 -0.29792,-5.61557c-0.11366,0 -0.49622,0.03579 -1.14865,0.10689c-0.65292,0.07061 -1.16316,0.1064 -1.53121,0.1064c-1.30487,0 -1.9573,-0.3903 -1.9573,-1.17138c0,-0.11076 0.01403,-0.2365 0.04256,-0.37627c-0.02854,-0.05562 -0.0561,-0.08367 -0.08512,-0.08367c0.62341,-0.50105 1.33292,-0.78011 2.12706,-0.83622c0.51073,0 1.02048,0 1.53121,0c3.5451,-0.05659 9.28835,-0.87878 17.22927,-2.46755c0.08512,-0.02854 0.22683,-0.01403 0.4256,0.04256c0.19781,0.05707 0.31195,0.09963 0.34,0.12768c0.22683,0.31243 0.38305,0.66646 0.46817,1.06353c-0.08561,1.24828 -0.04304,2.58023 0.12672,3.99827z" fill="#000000" stroke="none" stroke-width="1" stroke-linecap="butt"/><path d="M180.06552,112.69428c0.4111,1.84268 0.00484,3.24524 -0.50782,4.18351c-1.31067,2.50043 -3.71921,3.99005 -6.47597,3.99005c-0.52717,0 -1.07852,-0.0532 -1.6734,-0.16927h-2.16188c-0.56587,0 -1.62988,-0.03385 -4.28024,-0.32888c-1.57184,-0.17895 -2.90185,-0.266 -3.94652,-0.266h-2.63101c-0.06771,0.00483 -0.3047,0.01934 -0.87055,0.07738c-0.88506,0.09189 -1.55733,0.13542 -2.12319,0.13542c-1.64439,0 -3.11466,-0.33855 -4.36729,-1.00114c-0.08222,-0.04353 -0.1596,-0.09189 -0.24182,-0.13542c-0.84153,-0.50782 -2.80029,-2.02163 -2.80029,-5.204c0,-1.71693 0.63841,-3.30328 1.79432,-4.46885c0.56103,-0.5707 1.2091,-1.035 1.92006,-1.38805c-1.60085,-1.75078 -2.08449,-4.23187 -1.21878,-6.57753c0.33855,-0.89473 0.8367,-1.67824 1.47511,-2.34083c-2.90185,-0.97696 -4.29958,-3.42902 -4.39147,-5.79887c-0.24666,-1.82333 0.46429,-3.67568 1.9394,-4.8606c1.4606,-1.17525 3.22106,-1.86202 5.08791,-1.99745c0.12091,-0.00484 0.24666,-0.00967 0.3724,-0.00967h1.48478c3.19688,-0.05803 8.62334,-0.84637 16.12464,-2.34566c0.96728,-0.21763 1.96842,-0.17895 3.03244,0.12575c0.49332,0.14025 1.61053,0.4643 2.61166,1.44609c0.2128,0.20796 0.40142,0.43044 0.57554,0.66743c0.66743,0.91892 1.12688,1.95391 1.36871,3.07596c0.10157,0.48848 0.13542,0.9818 0.10157,1.47511c-0.05804,0.91408 -0.02419,1.9249 0.10156,3.00342c0.1596,1.30584 -0.17411,2.62617 -0.92859,3.69986c-1.1559,1.63471 -2.9212,2.6697 -4.95249,2.9212c0.00483,0.08705 0.00967,0.17895 0.00967,0.266v0.4111c1.49445,0.14025 2.86799,0.77383 3.9175,1.8185c1.7266,1.73628 1.74112,3.88365 1.66374,4.99119c0.08705,0.58037 0.11607,0.95761 0.11607,1.33002c0,0.44979 -0.04353,0.9431 -0.14026,1.61053c-0.00967,0.07255 -0.01934,0.13059 -0.02901,0.18862v1.29133c0.01451,0.06287 0.02902,0.12091 0.04353,0.18378z" fill="#ffffff" stroke="none" stroke-width="1" stroke-linecap="butt"/><path d="M175.08545,94.61768c-0.34,0.48268 -0.86524,0.72353 -1.57377,0.72353c-0.36902,0 -0.69548,-0.07062 -0.97841,-0.2128c-0.02854,-0.76561 -0.09964,-1.89975 -0.21232,-3.40339c-2.41095,0.45414 -6.25398,1.1206 -11.52858,1.99986c-0.25537,0.02854 -0.46817,0.09963 -0.63841,0.21232c0.14171,2.60973 0.21281,5.1624 0.21281,7.65751c0.28728,0.05707 1.19314,-0.07061 2.7171,-0.38305c0.74771,-0.11269 1.89878,-0.38256 3.45127,-0.80817c0.02805,-0.45365 -0.02853,-1.21249 -0.17024,-2.27602c-0.14219,-1.06353 -0.19878,-1.85042 -0.17024,-2.36114c0,-0.53829 0.36806,-0.80817 1.10609,-0.80817c0.85073,0 1.3039,0.3545 1.36097,1.06353c0.11269,1.07804 0.28293,2.69437 0.51073,4.84948v6.59398c0.08512,0.11365 0.14122,0.19877 0.17024,0.25487c-0.08512,0.34049 -0.32645,0.63164 -0.72304,0.87249c-0.39755,0.24134 -0.79462,0.36128 -1.19121,0.36128c-0.51073,0 -0.85121,-0.22635 -1.02097,-0.68049c0.05659,-0.28293 0.09914,-0.72304 0.12768,-1.31889v-3.91364c-1.79963,0.05707 -3.82706,0.42513 -6.08325,1.1056c0,0.51073 -0.01451,1.8156 -0.04256,3.91412c-0.02902,1.72999 -0.02902,2.90766 0,3.53107c0,0.14219 0.11269,0.39756 0.34049,0.76561c0.59536,0.02901 1.5167,0.08512 2.76499,0.17073c1.44658,0.14219 2.89266,0.28341 4.33924,0.42512c1.7295,0.19877 3.17608,0.27035 4.33973,0.2128c0.02805,-0.36854 0.09866,-0.95036 0.21232,-1.74402v-2.5101c-0.17024,-0.28293 -0.25537,-0.55329 -0.25537,-0.80817c0,-0.4256 0.17702,-0.78688 0.53201,-1.0848c0.35403,-0.29744 0.74481,-0.44689 1.16993,-0.44689c0.34048,0 0.60987,0.10011 0.80865,0.29792c0.11269,0.11365 0.14122,0.48268 0.08511,1.10609c-0.02902,0.14219 -0.01451,0.3903 0.04256,0.74432c0.05659,0.355 0.08512,0.58908 0.08512,0.70176c0,0.17073 -0.02854,0.44688 -0.08512,0.82993c-0.05707,0.38256 -0.08511,0.58908 -0.08511,0.61665v2.55218c0,0.02901 0.0561,0.17024 0.17024,0.4256c0.05659,0.25488 0.05659,0.42513 0,0.51073c-0.39804,0.79463 -0.99533,1.19121 -1.78996,1.19121c-0.19926,0 -0.4406,-0.02805 -0.72498,-0.08512c-0.28486,-0.05659 -0.45462,-0.08512 -0.51169,-0.08512h-2.60007c-0.68194,0 -1.91087,-0.09914 -3.68729,-0.29792c-1.77593,-0.19781 -3.28973,-0.29744 -4.53946,-0.29744h-2.68518c-0.2278,0 -0.68194,0.03579 -1.36387,0.1064c-0.68194,0.07062 -1.20814,0.1064 -1.57764,0.1064c-0.76705,0 -1.39289,-0.12769 -1.87508,-0.38305c-0.14219,-0.08512 -0.21329,-0.29744 -0.21329,-0.63793c0,-0.31195 0.08464,-0.55328 0.25295,-0.72304c0.36515,-0.36853 0.87104,-0.58085 1.51767,-0.63792c0.42125,0 0.85653,0 1.3068,0c0.30857,0.05707 0.72982,0.02853 1.26424,-0.08512c0.16879,-0.08561 0.26746,-0.28342 0.29502,-0.59536c0.02805,-0.1983 0.02805,-0.49573 0,-0.89377c-0.02805,-0.45365 -0.04208,-0.70854 -0.04208,-0.76561c0,-2.94974 -0.01354,-4.63716 -0.04207,-5.06276c-0.50154,-0.0561 -1.19895,-0.24038 -2.09079,-0.55329c-0.3932,-0.31195 -0.49138,-0.73707 -0.29212,-1.27633c0.17024,-0.45365 0.55328,-0.77963 1.14865,-0.97841c0.42512,-0.14122 0.85073,-0.26939 1.27633,-0.38256c0.08512,-0.31195 0.09866,-0.695 0.04256,-1.14865c-0.05707,-0.39659 -0.09964,-0.77963 -0.12768,-1.14865c-0.05707,-1.21926 -0.15622,-3.09096 -0.29792,-5.61557c-0.11366,0 -0.49621,0.03579 -1.14865,0.10688c-0.65291,0.07062 -1.16316,0.10641 -1.53121,0.10641c-1.30487,0 -1.9573,-0.3903 -1.9573,-1.17139c0,-0.11076 0.01402,-0.2365 0.04256,-0.37627c-0.02854,-0.05562 -0.0561,-0.08367 -0.08512,-0.08367c0.62341,-0.50105 1.33292,-0.78011 2.12706,-0.83622c0.51073,0 1.02048,0 1.53122,0c3.5451,-0.05659 9.28835,-0.87878 17.22927,-2.46754c0.08512,-0.02854 0.22683,-0.01403 0.4256,0.04256c0.19781,0.05707 0.31195,0.09963 0.34,0.12768c0.22682,0.31243 0.38305,0.66646 0.46816,1.06353c-0.0856,1.24828 -0.04304,2.58023 0.12672,3.99827z" fill="#000000" stroke="none" stroke-width="1" stroke-linecap="butt"/><path d="M204.81902,112.89864c0.12473,0.47109 -0.08619,1.18575 -0.6349,2.14291c-0.54764,0.9577 -1.12686,1.64024 -1.73767,2.04816c-0.61081,0.40792 -1.55834,0.67505 -2.84152,0.80031c-1.03372,0.09422 -1.99677,-0.36134 -2.88862,-1.36562c-0.89293,-1.00428 -1.40095,-2.11882 -1.52622,-3.34312c-0.34529,-3.45287 -0.78372,-5.93303 -1.31584,-7.43998c-0.06317,-0.37633 -0.23501,-0.93308 -0.51713,-1.67129c-0.28158,-0.73715 -0.92344,-1.34207 -1.92557,-1.81315c-0.75214,-0.28212 -1.51872,-0.58029 -2.30137,-0.89453c-0.12527,-0.03105 -0.28159,-0.03105 -0.46948,0c-0.43843,0.12527 -1.34741,0.37633 -2.72481,0.7532v0.89453v3.67288c0,0.06317 0.02356,0.36135 0.07066,0.89454c0.04711,0.53425 0.07066,0.91112 0.07066,1.13007c0.06263,0.53425 0.14186,1.94698 0.23554,4.23765c0.21895,0.09475 0.4545,0.09475 0.7061,0c0.84742,-0.34529 1.60063,-0.42344 2.26015,-0.23501c0.47109,0.15738 0.7061,0.53425 0.7061,1.13007c0,0.87954 -0.46306,1.40524 -1.38918,1.57708c-0.92612,0.17291 -2.28371,0.41649 -4.07277,0.73018c-1.44431,0.28212 -2.51176,0.42344 -3.20179,0.42344c-1.06745,0 -1.80567,-0.25107 -2.21305,-0.7532c-0.09422,-1.03639 0.43897,-1.66326 1.60063,-1.88382c0.94218,-0.09422 1.88382,-0.20396 2.82492,-0.32976c0.12527,-0.15632 0.18897,-0.32923 0.18897,-0.51767c-0.03212,-0.72215 -0.20449,-3.31207 -0.5182,-7.76974c-0.09422,-1.0669 -0.12581,-1.88382 -0.09422,-2.44859c-0.56531,-0.03105 -0.94218,-0.07816 -1.13007,-0.14133c-0.47109,-0.15685 -0.7698,-0.45503 -0.89454,-0.89453v-0.14186c0.0621,-0.03105 0.10921,-0.18844 0.14133,-0.47056c0.43897,-0.69058 1.00428,-0.95716 1.69539,-0.80085c0.0621,-0.18843 0.04711,-0.69003 -0.04764,-1.50641c-0.28212,-2.98178 -0.45556,-5.36773 -0.51767,-7.15733c-0.1258,-0.12473 -0.39293,-0.15685 -0.80085,-0.09422c-0.62794,0.12581 -0.9577,0.18843 -0.98875,0.18843c-1.69538,0 -2.51176,-0.40738 -2.44859,-1.22429c0.06263,-0.7532 0.7061,-1.2077 1.93039,-1.36562c1.09849,-0.21895 3.40575,-0.56477 6.92232,-1.03586c-0.15738,0.03158 0.95717,0.07816 3.34312,0.14133c2.76175,0.22001 4.69268,0.67558 5.7917,1.36562c1.19271,0.78533 1.99302,1.82065 2.40095,3.10811c0.12473,0.40845 0.15685,1.02034 0.09422,1.83671c-0.03158,0.81638 -0.15738,1.39667 -0.37633,1.74195c-0.72269,1.31852 -2.182,2.49569 -4.37952,3.53209c0,0.09422 0.01553,0.15739 0.04711,0.18844c0.78479,0.56531 1.31851,1.06744 1.60116,1.50641c0.8153,1.31852 1.36562,3.23391 1.64774,5.7446c0.40792,3.42235 0.73715,5.57222 0.98875,6.45123c0.03158,0.18843 0.25107,0.48661 0.65899,0.89453c0.40792,0.40899 0.73768,0.62848 0.98928,0.65899c0.97216,0.06317 1.56958,-0.37633 1.7896,-1.31851c-0.03212,-0.34529 0.10921,-0.81584 0.42344,-1.41272c0.43951,-0.40792 0.9727,-0.61242 1.60116,-0.61242c0.62901,0.00107 1.03693,0.28425 1.2259,0.84849zM195.40155,96.37094c0.28212,-0.28212 0.42344,-0.72163 0.42344,-1.31852c0,-1.60063 -0.56531,-2.74623 -1.69485,-3.43733c-1.13007,-0.69004 -3.5792,-1.00427 -7.34629,-0.94164c-0.28212,0 -0.7061,0.12526 -1.2714,0.37633c0.09475,0.47109 0.09475,0.86349 0,1.17719c-0.03158,0.47109 -0.03158,0.91059 0,1.31851c0.01553,0.84742 0.04764,1.89988 0.09475,3.15522c0.15631,1.85223 0.23501,2.88862 0.23501,3.10757c0.53319,-0.03105 1.31851,-0.18844 2.35437,-0.47056c0.15631,-0.15685 0.37633,-0.32977 0.65899,-0.5182c0.21895,-0.06263 0.78426,-0.09422 1.69485,-0.09422c1.72696,0.00054 3.34419,-0.78371 4.85114,-2.35437z" fill="#000000" stroke="none" stroke-width="1" stroke-linecap="butt"/><path d="M201.97752,89.36915c-1.03875,-1.03875 0,-2.07751 0,-2.07751l0.3141,-0.31123c1.026,-1.13911 1.94822,-2.27619 2.82648,-3.53225c0,0 0.84242,-1.20346 2.04589,-0.36104c1.20346,0.84242 0.36104,2.04589 0.36104,2.04589c-0.94735,1.35195 -1.94554,2.58521 -3.04959,3.81284l-0.42041,0.42328c0,0 -1.03875,1.03875 -2.07751,0z" fill="#000000" stroke="none" stroke-width="0.5" stroke-linecap="butt"/><path d="M225.28636,108.15374c0.16025,1.98917 0.12743,3.27116 -0.09626,3.84871c-0.93087,2.63016 -4.05818,4.28133 -9.38086,4.95514c-1.79665,0.22479 -3.5922,-0.62513 -5.38885,-2.54976c0,0.28878 0.06399,1.15456 0.19306,2.59844c0.09626,1.0583 0.07985,1.92408 -0.04813,2.59735c-0.80234,0.51301 -1.44334,0.77007 -1.92463,0.77007c-0.73835,0 -1.10643,-0.72139 -1.10643,-2.16528c0,-0.25651 0.01586,-0.66506 0.04813,-1.2262c0.03172,-0.5606 0.04813,-0.95384 0.04813,-1.17863c0,-0.54528 -0.04813,-0.92977 -0.14439,-1.15456v-2.64602c0,-0.06399 0.01587,-0.13619 0.04813,-0.21658c0.03172,-0.07985 0.06399,-0.15204 0.09626,-0.21658c-0.03227,-0.44848 -0.01641,-1.13815 0.04813,-2.06847c0.06399,-0.57755 0.06399,-0.94563 0,-1.10643c-0.1608,-0.31995 -0.2401,-0.51247 -0.2401,-0.57701c0.12743,-0.89805 0.78593,-1.34707 1.97221,-1.34707c0.76952,0 1.23441,0.27291 1.39521,0.81765c0,0.51301 0.06399,1.26723 0.19252,2.26099c0.19307,1.15456 0.80179,2.30966 1.82837,3.46368c1.12229,1.31535 2.19645,1.92463 3.22358,1.82837c1.15456,-0.12743 2.30912,-0.40035 3.46368,-0.81765c1.60358,-0.57755 2.56562,-1.25082 2.88667,-2.02034c0.22369,-0.57755 0.33636,-1.18628 0.33636,-1.82837c0,-1.9558 -0.72139,-3.41555 -2.16473,-4.37759c-0.64209,-0.41676 -1.82837,-0.75366 -3.56048,-1.01072c-0.99431,-0.12743 -1.60413,-0.19252 -1.82783,-0.19252c-1.53959,0.03227 -2.97527,-0.46489 -4.30594,-1.49146c-1.33122,-1.02603 -1.99628,-2.21341 -1.99628,-3.56048v-2.78986c0,-0.60873 0.35277,-2.0362 1.05885,-4.28133c0.31995,-1.05885 0.49661,-1.61945 0.52943,-1.68398c0.28823,-0.67327 0.65685,-1.12229 1.10588,-1.34707c1.09002,-0.54474 2.24458,-0.81766 3.46368,-0.81766c2.37311,0 4.12108,0.96204 5.24392,2.88612c0.09626,0.09626 0.25651,0.24065 0.48129,0.43317c0.03172,-0.44848 0.09626,-1.13815 0.19252,-2.06847c-0.03227,-0.41676 -0.06453,-0.81765 -0.09626,-1.20269c0,-0.44848 0.22369,-0.75311 0.67326,-0.91391c0.12798,-0.06399 0.30464,-0.11212 0.52942,-0.14439c0.3205,-0.06399 0.66561,0.01641 1.03478,0.2401c0.36808,0.22479 0.52067,0.8986 0.45668,2.02034c-0.03227,0.70553 -0.09626,1.69984 -0.19252,2.98238c-0.09626,1.05885 -0.2401,2.67829 -0.43317,4.85943c0.06399,0.51301 0.06399,1.2191 0,2.1166c-0.1608,0.60928 -0.64209,0.91391 -1.44334,0.91391c-0.4173,0 -0.81765,-0.11212 -1.20269,-0.33636c-0.19252,-0.60873 -0.28823,-0.86633 -0.28823,-0.77007c0.06344,-0.86578 -0.11267,-2.02034 -0.52942,-3.46368c-0.35331,-0.73726 -0.84172,-1.78735 -1.4674,-3.15083c-0.62568,-1.36294 -1.45154,-2.09309 -2.47757,-2.18934c-1.28309,-0.09626 -2.1166,0.33691 -2.50164,1.29895c-0.12798,0.4173 -0.30518,1.02712 -0.52888,1.82837c-0.38504,1.18683 -0.62568,2.32552 -0.72194,3.41555c-0.03227,0.35331 -0.06453,0.4977 -0.09626,0.43317c0.09626,0.64209 0.20838,1.28309 0.3369,1.92463c0.16025,0.80179 0.55349,1.41162 1.17862,1.82783c0.62568,0.4173 1.81962,0.67327 3.584,0.76952c4.32946,0.2576 7.0072,1.76493 8.03378,4.52252c0.1597,0.25706 0.31995,0.68967 0.48075,1.2984z" fill="#000000" stroke="none" stroke-width="1" stroke-linecap="butt"/><text transform="translate(230.78533,96.98577) rotate(-13.9734) scale(0.82923,0.82923)" font-size="40" xml:space="preserve" fill="url(#color-1)" fill-rule="nonzero" stroke="none" stroke-width="1" stroke-linecap="butt" stroke-linejoin="miter" stroke-miterlimit="10" stroke-dasharray="" stroke-dashoffset="0" font-family="Marker" font-weight="normal" text-anchor="start" style="mix-blend-mode: normal"><tspan x="0" dy="0">RESORCE</tspan></text><text transform="translate(397.39204,68.66745) scale(0.5,0.5)" font-size="40" xml:space="preserve" fill="#ff8600" fill-rule="nonzero" stroke="none" stroke-width="1" stroke-linecap="butt" stroke-linejoin="miter" stroke-miterlimit="10" stroke-dasharray="" stroke-dashoffset="0" font-family="Marker" font-weight="normal" text-anchor="start" style="mix-blend-mode: normal"><tspan x="0" dy="0">JON</tspan></text></g></g></svg>