<svg version="1.1" xmlns="http://www.w3.org/2000/svg" xmlns:xlink="http://www.w3.org/1999/xlink" width="289.18232" height="251.58673" viewBox="0,0,289.18232,251.58673"><defs><radialGradient cx="335.83223" cy="177.4243" r="10.40065" gradientUnits="userSpaceOnUse" id="color-1"><stop offset="0" stop-color="#fffbff"/><stop offset="1" stop-color="#817f81"/></radialGradient><linearGradient x1="321.94595" y1="168.54158" x2="321.94595" y2="185.07018" gradientUnits="userSpaceOnUse" id="color-2"><stop offset="0" stop-color="#817f81"/><stop offset="1" stop-color="#fffbff"/></linearGradient><linearGradient x1="288.81647" y1="220.28393" x2="317.15122" y2="220.28393" gradientUnits="userSpaceOnUse" id="color-3"><stop offset="0" stop-color="#880100"/><stop offset="1" stop-color="#ff0000"/></linearGradient><linearGradient x1="274.17684" y1="222.95999" x2="303.14126" y2="222.95999" gradientUnits="userSpaceOnUse" id="color-4"><stop offset="0" stop-color="#880100"/><stop offset="1" stop-color="#ff0000"/></linearGradient><linearGradient x1="310.1064" y1="170.56665" x2="310.1064" y2="183.63211" gradientUnits="userSpaceOnUse" id="color-5"><stop offset="0" stop-color="#8a8a8a"/><stop offset="1" stop-color="#ffffff"/></linearGradient><linearGradient x1="300.60522" y1="171.03889" x2="300.60522" y2="182.06146" gradientUnits="userSpaceOnUse" id="color-6"><stop offset="0" stop-color="#8a8a8a"/><stop offset="1" stop-color="#ffffff"/></linearGradient><radialGradient cx="312.38797" cy="241.21926" r="16.36943" gradientUnits="userSpaceOnUse" id="color-7"><stop offset="0" stop-color="#b46021"/><stop offset="1" stop-color="#3f1200"/></radialGradient><linearGradient x1="266.14914" y1="128.83368" x2="316.73676" y2="128.83368" gradientUnits="userSpaceOnUse" id="color-8"><stop offset="0" stop-color="#696969"/><stop offset="1" stop-color="#e8e8e8"/></linearGradient><radialGradient cx="318.67762" cy="152.96256" r="9.31374" gradientUnits="userSpaceOnUse" id="color-9"><stop offset="0" stop-color="#ffc699"/><stop offset="1" stop-color="#d08b69"/></radialGradient><linearGradient x1="275.08303" y1="168.9311" x2="275.08303" y2="182.65343" gradientUnits="userSpaceOnUse" id="color-10"><stop offset="0" stop-color="#8a8a8a"/><stop offset="1" stop-color="#8a8a8a" stop-opacity="0"/></linearGradient><radialGradient cx="296.64644" cy="243.73791" r="16.36943" gradientUnits="userSpaceOnUse" id="color-11"><stop offset="0" stop-color="#b46021"/><stop offset="1" stop-color="#3f1200"/></radialGradient><linearGradient x1="255.85483" y1="166.50187" x2="255.85483" y2="185.23429" gradientUnits="userSpaceOnUse" id="color-12"><stop offset="0" stop-color="#817f81"/><stop offset="1" stop-color="#fffbff"/></linearGradient><radialGradient cx="252.54911" cy="177.04869" r="15.11187" gradientUnits="userSpaceOnUse" id="color-13"><stop offset="0" stop-color="#ffffff"/><stop offset="1" stop-color="#7d7d7d"/></radialGradient><linearGradient x1="333.90764" y1="206.91016" x2="357.68637" y2="211.41992" gradientUnits="userSpaceOnUse" id="color-14"><stop offset="0" stop-color="#ffb800"/><stop offset="1" stop-color="#c38200"/></linearGradient><radialGradient cx="334.08924" cy="210.54242" r="9.5433" gradientUnits="userSpaceOnUse" id="color-15"><stop offset="0" stop-color="#ffb900"/><stop offset="1" stop-color="#c88b00"/></radialGradient><radialGradient cx="384.63097" cy="282.10547" r="10.40066" gradientUnits="userSpaceOnUse" id="color-16"><stop offset="0" stop-color="#fffbff"/><stop offset="1" stop-color="#817f81"/></radialGradient><linearGradient x1="370.74469" y1="273.22274" x2="370.74469" y2="289.75135" gradientUnits="userSpaceOnUse" id="color-17"><stop offset="0" stop-color="#817f81"/><stop offset="1" stop-color="#fffbff"/></linearGradient><linearGradient x1="337.61521" y1="324.96509" x2="365.94996" y2="324.96509" gradientUnits="userSpaceOnUse" id="color-18"><stop offset="0" stop-color="#880100"/><stop offset="1" stop-color="#ff0000"/></linearGradient><linearGradient x1="322.97558" y1="327.64116" x2="351.94" y2="327.64116" gradientUnits="userSpaceOnUse" id="color-19"><stop offset="0" stop-color="#880100"/><stop offset="1" stop-color="#ff0000"/></linearGradient><linearGradient x1="356.77862" y1="275.24781" x2="356.77862" y2="288.31328" gradientUnits="userSpaceOnUse" id="color-20"><stop offset="0" stop-color="#880100"/><stop offset="1" stop-color="#ff0000"/></linearGradient><linearGradient x1="321.90213" y1="296.31477" x2="365.66432" y2="296.31477" gradientUnits="userSpaceOnUse" id="color-21"><stop offset="0" stop-color="#880100"/><stop offset="1" stop-color="#ff0000"/></linearGradient><radialGradient cx="361.67029" cy="345.69018" r="16.36943" gradientUnits="userSpaceOnUse" id="color-22"><stop offset="0" stop-color="#1147ba"/><stop offset="1" stop-color="#092b74"/></radialGradient><radialGradient cx="367.47636" cy="257.64373" r="9.31374" gradientUnits="userSpaceOnUse" id="color-23"><stop offset="0" stop-color="#ffc699"/><stop offset="1" stop-color="#d08b69"/></radialGradient><linearGradient x1="323.88177" y1="273.61227" x2="323.88177" y2="287.3346" gradientUnits="userSpaceOnUse" id="color-24"><stop offset="0" stop-color="#8a0000"/><stop offset="1" stop-color="#8a0000" stop-opacity="0"/></linearGradient><radialGradient cx="345.92876" cy="349.62556" r="16.36943" gradientUnits="userSpaceOnUse" id="color-25"><stop offset="0" stop-color="#1147ba"/><stop offset="1" stop-color="#092b74"/></radialGradient><linearGradient x1="304.65357" y1="271.18304" x2="304.65357" y2="289.91545" gradientUnits="userSpaceOnUse" id="color-26"><stop offset="0" stop-color="#817f81"/><stop offset="1" stop-color="#fffbff"/></linearGradient><radialGradient cx="301.34785" cy="281.72986" r="15.11187" gradientUnits="userSpaceOnUse" id="color-27"><stop offset="0" stop-color="#ffffff"/><stop offset="1" stop-color="#7d7d7d"/></radialGradient><radialGradient cx="247.67966" cy="311.22158" r="10.40065" gradientUnits="userSpaceOnUse" id="color-28"><stop offset="0" stop-color="#fffbff"/><stop offset="1" stop-color="#817f81"/></radialGradient><linearGradient x1="233.79339" y1="302.90957" x2="233.79339" y2="318.37623" gradientUnits="userSpaceOnUse" id="color-29"><stop offset="0" stop-color="#817f81"/><stop offset="1" stop-color="#fffbff"/></linearGradient><linearGradient x1="219.82731" y1="304.80453" x2="219.82731" y2="317.03055" gradientUnits="userSpaceOnUse" id="color-30"><stop offset="0" stop-color="#880100"/><stop offset="1" stop-color="#ff0000"/></linearGradient><radialGradient cx="204.39046" cy="178.99845" r="10.40065" gradientUnits="userSpaceOnUse" id="color-31"><stop offset="0" stop-color="#fffbff"/><stop offset="1" stop-color="#817f81"/></radialGradient><linearGradient x1="190.50419" y1="170.11573" x2="190.50419" y2="186.64433" gradientUnits="userSpaceOnUse" id="color-32"><stop offset="0" stop-color="#817f81"/><stop offset="1" stop-color="#fffbff"/></linearGradient><linearGradient x1="157.3747" y1="221.85809" x2="179.72767" y2="221.85809" gradientUnits="userSpaceOnUse" id="color-33"><stop offset="0" stop-color="#0c358e"/><stop offset="1" stop-color="#1147ba"/></linearGradient><linearGradient x1="142.73508" y1="224.53415" x2="165.08805" y2="224.53415" gradientUnits="userSpaceOnUse" id="color-34"><stop offset="0" stop-color="#0c358e"/><stop offset="1" stop-color="#1147ba"/></linearGradient><linearGradient x1="176.5381" y1="172.1408" x2="176.5381" y2="185.20627" gradientUnits="userSpaceOnUse" id="color-35"><stop offset="0" stop-color="#880100"/><stop offset="1" stop-color="#ff0000"/></linearGradient><linearGradient x1="169.16345" y1="172.61304" x2="169.16345" y2="183.63562" gradientUnits="userSpaceOnUse" id="color-36"><stop offset="0" stop-color="#880100"/><stop offset="1" stop-color="#ff0000"/></linearGradient><radialGradient cx="180.9462" cy="242.79342" r="16.36943" gradientUnits="userSpaceOnUse" id="color-37"><stop offset="0" stop-color="#b46021"/><stop offset="1" stop-color="#3f1200"/></radialGradient><linearGradient x1="134.70738" y1="130.40783" x2="185.29499" y2="130.40783" gradientUnits="userSpaceOnUse" id="color-38"><stop offset="0" stop-color="#680000"/><stop offset="1" stop-color="#e90000"/></linearGradient><linearGradient x1="173.97869" y1="128.41174" x2="173.97869" y2="141.37254" gradientUnits="userSpaceOnUse" id="color-39"><stop offset="0" stop-color="#680000"/><stop offset="1" stop-color="#8d0000"/></linearGradient><radialGradient cx="187.23586" cy="154.53672" r="9.31374" gradientUnits="userSpaceOnUse" id="color-40"><stop offset="0" stop-color="#ffc699"/><stop offset="1" stop-color="#d08b69"/></radialGradient><linearGradient x1="143.64126" y1="170.50525" x2="143.64126" y2="184.22758" gradientUnits="userSpaceOnUse" id="color-41"><stop offset="0" stop-color="#8a0000"/><stop offset="1" stop-color="#8a0000" stop-opacity="0"/></linearGradient><radialGradient cx="165.20467" cy="245.31206" r="16.36943" gradientUnits="userSpaceOnUse" id="color-42"><stop offset="0" stop-color="#b46021"/><stop offset="1" stop-color="#3f1200"/></radialGradient><linearGradient x1="124.41305" y1="168.07602" x2="124.41305" y2="186.80844" gradientUnits="userSpaceOnUse" id="color-43"><stop offset="0" stop-color="#817f81"/><stop offset="1" stop-color="#fffbff"/></linearGradient><radialGradient cx="121.10733" cy="178.62284" r="15.11187" gradientUnits="userSpaceOnUse" id="color-44"><stop offset="0" stop-color="#ffffff"/><stop offset="1" stop-color="#7d7d7d"/></radialGradient><linearGradient x1="206.17344" y1="336.76199" x2="228.52642" y2="336.76199" gradientUnits="userSpaceOnUse" id="color-45"><stop offset="0" stop-color="#0c358e"/><stop offset="1" stop-color="#1147ba"/></linearGradient><linearGradient x1="194.28859" y1="337.05253" x2="216.64156" y2="337.05253" gradientUnits="userSpaceOnUse" id="color-46"><stop offset="0" stop-color="#0c358e"/><stop offset="1" stop-color="#1147ba"/></linearGradient><radialGradient cx="229.74495" cy="343.13002" r="16.36943" gradientUnits="userSpaceOnUse" id="color-47"><stop offset="0" stop-color="#b46021"/><stop offset="1" stop-color="#3f1200"/></radialGradient><radialGradient cx="216.75819" cy="344.30598" r="16.36943" gradientUnits="userSpaceOnUse" id="color-48"><stop offset="0" stop-color="#b46021"/><stop offset="1" stop-color="#3f1200"/></radialGradient><linearGradient x1="216.38804" y1="304.65613" x2="216.38804" y2="314.97051" gradientUnits="userSpaceOnUse" id="color-49"><stop offset="0" stop-color="#880100"/><stop offset="1" stop-color="#ff0000"/></linearGradient><linearGradient x1="190.86585" y1="302.68376" x2="190.86585" y2="315.52443" gradientUnits="userSpaceOnUse" id="color-50"><stop offset="0" stop-color="#8a0000"/><stop offset="1" stop-color="#8a0000" stop-opacity="0"/></linearGradient><linearGradient x1="182.0664" y1="305.32984" x2="182.0664" y2="322.8587" gradientUnits="userSpaceOnUse" id="color-51"><stop offset="0" stop-color="#817f81"/><stop offset="1" stop-color="#fffbff"/></linearGradient><radialGradient cx="178.76069" cy="315.19903" r="15.11187" gradientUnits="userSpaceOnUse" id="color-52"><stop offset="0" stop-color="#ffffff"/><stop offset="1" stop-color="#7d7d7d"/></radialGradient><linearGradient x1="185.08027" y1="272.18875" x2="235.66789" y2="272.18875" gradientUnits="userSpaceOnUse" id="color-53"><stop offset="0" stop-color="#680000"/><stop offset="1" stop-color="#e90000"/></linearGradient><linearGradient x1="224.35158" y1="270.47778" x2="224.35158" y2="281.58725" gradientUnits="userSpaceOnUse" id="color-54"><stop offset="0" stop-color="#680000"/><stop offset="1" stop-color="#8d0000"/></linearGradient><radialGradient cx="237.60875" cy="292.02946" r="9.31374" gradientUnits="userSpaceOnUse" id="color-55"><stop offset="0" stop-color="#ffc699"/><stop offset="1" stop-color="#d08b69"/></radialGradient><radialGradient cx="340.83373" cy="247.49515" r="32.56529" gradientUnits="userSpaceOnUse" id="color-56"><stop offset="0" stop-color="#ff0000"/><stop offset="1" stop-color="#880100"/></radialGradient><linearGradient x1="305.16418" y1="205.91835" x2="333.6957" y2="205.91835" gradientUnits="userSpaceOnUse" id="color-57"><stop offset="0" stop-color="#ffb800"/><stop offset="1" stop-color="#c38200"/></linearGradient></defs><g transform="translate(-100.95818,-110.29829)"><g data-paper-data="{&quot;isPaintingLayer&quot;:true}" fill-rule="nonzero" stroke-linejoin="miter" stroke-miterlimit="10" stroke-dasharray="" stroke-dashoffset="0" style="mix-blend-mode: normal"><path d="M320.6529,176.91832c0,-5.74412 4.63136,-10.40066 10.34444,-10.40066c5.71307,0 10.34443,4.65653 10.34443,10.40066c0,5.74412 -1.5955,10.85041 -7.30857,10.85041c-1.00625,0 -2.29799,-1.845 -3.3729,-2.13739c-5.02806,-1.36772 -10.0074,-3.9806 -10.0074,-8.71301z" fill="url(#color-1)" stroke="none" stroke-width="0" stroke-linecap="butt"/><path d="M328.41123,176.80588c0,4.56425 -2.8946,8.2643 -6.46527,8.2643c-3.57067,0 -6.46527,-3.70005 -6.46527,-8.2643c0,-4.56425 2.89461,-8.2643 6.46527,-8.2643c3.57067,0 6.46527,3.70005 6.46527,8.2643z" fill="url(#color-2)" stroke="none" stroke-width="0" stroke-linecap="butt"/><path d="M290.13226,250.01651v-4.72246l29.59407,-0.31483v6.61144c0,0 -5.86732,2.77713 -9.73177,2.7797c-9.60806,0.0064 -12.83019,-3.04891 -12.83019,-3.04891c0,0 -1.71376,0.65568 -2.67449,0.4774c-1.28671,-0.23878 -4.35763,-1.78234 -4.35763,-1.78234z" fill="#bd6f3e" stroke="none" stroke-width="0" stroke-linecap="butt"/><path d="M288.81647,244.01809v-47.46832h22.35297l0.15742,38.03779l5.82437,5.49515z" fill="url(#color-3)" stroke="none" stroke-width="0" stroke-linecap="butt"/><path d="M274.17684,246.69415v-47.46832h22.35297v37.56555l6.61144,9.90278z" fill="url(#color-4)" stroke="none" stroke-width="0" stroke-linecap="butt"/><path d="M294.44216,183.63211v-13.06547h27.07543c0,0 4.11157,0.60083 4.25021,6.29661c0.12997,5.33932 -4.25021,6.76886 -4.25021,6.76886z" fill="url(#color-5)" stroke="none" stroke-width="0" stroke-linecap="butt"/><path d="M316.86557,195.39951c0,9.38931 -9.65563,20.14916 -18.65371,20.14916c-8.99809,0 -24.97466,-1.20763 -25.10774,-20.30657c-0.04314,-6.19095 1.80418,-12.62157 6.75719,-15.06385c3.35407,-1.65387 1.20521,-11.21113 5.34807,-11.43883c5.71312,-0.31401 13.4595,-2.48879 18.88962,0.67267c3.44445,2.00539 12.76658,20.98229 12.76658,25.98742z" fill="#ff0000" stroke="none" stroke-width="0" stroke-linecap="butt"/><path d="M275.17781,252.84999v-4.72246l29.59407,-0.31483v6.61144c0,0 -5.86732,2.77713 -9.73177,2.7797c-9.60805,0.0064 -12.83019,-3.04891 -12.83019,-3.04891c0,0 -1.71376,0.65568 -2.67449,0.4774c-1.28671,-0.23878 -4.35763,-1.78234 -4.35763,-1.78234z" fill="#bd6f3e" stroke="none" stroke-width="0" stroke-linecap="butt"/><path d="M302.96646,171.19631c0,0 1.62618,1.62601 2.53132,2.91905c1.20931,1.72759 4.08012,6.52586 4.08012,6.52586c0,0 -2.11473,1.35401 -3.47731,1.41502c-1.94283,0.08699 -7.06951,-0.94278 -7.06951,-0.94278c0,0 -1.16883,-2.64997 -2.12474,-3.95164c-1.36287,-1.85582 -5.27377,-6.12294 -5.27377,-6.12294z" fill="url(#color-6)" stroke="none" stroke-width="0" stroke-linecap="butt"/><path d="M321.42053,244.28471c0.23267,4.57232 -3.97832,8.24995 -8.83648,7.97738c-4.37489,-0.24546 -22.56547,-1.42064 -23.20024,-8.13447c-0.21836,-2.3095 -1.37912,-2.30069 -0.10487,-3.35469c0.57847,-0.47849 1.84854,0.77638 3.34701,0.56367c5.84265,-0.82937 18.21862,-6.0111 19.9581,-6.0111c5.35672,0 8.59103,4.13552 8.83648,8.9592z" fill="url(#color-7)" stroke="none" stroke-width="0" stroke-linecap="butt"/><path d="M258.16089,184.98746v-15.26928l26.91801,-0.62966c0,0 3.15717,3.77593 4.13972,5.82646c1.32641,2.76816 3.10139,9.28541 3.10139,9.28541c0,0 -5.94875,6.40103 -9.36629,6.47978c-2.08066,0.04794 -8.93581,-1.11242 -8.93581,-1.11242l0.25175,-3.58521z" fill="#ffffff" stroke="none" stroke-width="0" stroke-linecap="butt"/><path d="M312.96279,115.18393c3.16128,5.29466 4.52998,12.72496 3.35986,15.54286c-1.93473,4.65922 -10.14483,1.87975 -16.70073,5.69315c-10.52093,6.11974 -29.3767,14.97075 -32.89191,8.92749c-3.51521,-6.04328 9.64128,-24.69237 20.16221,-30.81211c10.52093,-6.11974 22.48653,-5.3541 26.07058,0.64861z" fill="url(#color-8)" stroke="none" stroke-width="0" stroke-linecap="butt"/><path d="M287.24662,138.84051c0,-4.23823 9.44797,-12.00292 19.80809,-12.00292c7.12617,0 13.32425,1.62557 16.49938,4.01973c1.44092,1.0865 -36.30747,12.22142 -36.30747,7.98318z" fill="#696969" stroke="none" stroke-width="0" stroke-linecap="butt"/><path d="M325.87771,133.4756c0.51351,3.45126 -6.65722,7.1261 -16.01626,8.20799c-9.35905,1.08188 -18.14941,0.99763 -18.66292,-2.45363c-0.51351,-3.45126 6.65721,-8.04435 16.01626,-9.12624c9.35905,-1.08188 18.14941,-0.07938 18.66292,3.37188z" fill="#a1a1a1" stroke="none" stroke-width="0" stroke-linecap="butt"/><path d="M319.16274,158.79345c-2.79676,8.62315 -11.04493,14.87167 -20.78482,14.87167c-5.13491,0 -10.12056,-2.57211 -14.08607,-5.71163c-5.33328,-4.22239 -8.82133,-9.98039 -8.3456,-16.72005c0.78708,-11.15045 19.22032,-17.98113 31.24693,-17.39439c7.86178,0.38356 7.98924,5.71669 7.75982,14.01777c-0.05305,1.91951 4.87048,8.89943 4.20975,10.93662z" fill="#ffb687" stroke="none" stroke-width="0" stroke-linecap="butt"/><path d="M280.82611,163.27571c0,1.05686 4.71518,4.68762 3.73972,5.46131c-5.01575,2.33876 -7.27307,-1.51272 -7.27307,-1.51272c0,0 -0.82897,0.14421 -1.26781,0.14421c-2.65161,0 -4.80117,-1.83241 -4.80117,-4.0928c0,-1.42865 0.85868,-2.68633 2.16009,-3.41846c0.75766,-0.42623 1.40118,-14.71171 2.16883,-15.31397c0.58969,-0.46264 3.54382,-2.72531 6.65395,-4.09994c1.59584,-0.70534 4.66586,-2.1628 4.66586,-2.1628c0,0 -1.06859,4.60666 -0.05262,5.90995c0.39562,0.50751 2.42074,2.17215 2.03456,3.81597c-0.75291,3.20491 -3.73778,2.52421 -3.73778,2.52421c0,0 1.42582,1.42698 0.50535,2.75122c-2.99675,4.31128 -4.81986,-1.15912 -6.05467,1.43364c-0.79882,1.67728 1.25876,8.39194 1.25876,8.56017z" fill="#3f1200" stroke="none" stroke-width="0" stroke-linecap="butt"/><path d="M314.19814,145.40908c0,2.65161 -0.49334,4.80117 -1.10191,4.80117c-0.60857,0 -1.10191,-2.14956 -1.10191,-4.80117c0,-2.65161 0.49334,-4.80117 1.10191,-4.80117c0.60857,0 1.10191,2.14956 1.10191,4.80117z" fill="#ffffff" stroke="none" stroke-width="0" stroke-linecap="butt"/><path d="M307.11446,146.27486c0,3.6514 -2.25527,6.61144 -5.03729,6.61144c-2.78202,0 -5.03729,-2.96004 -5.03729,-6.61144c0,-3.6514 2.25527,-6.61144 5.03729,-6.61144c2.78202,0 5.03729,2.96004 5.03729,6.61144z" fill="#ffffff" stroke="none" stroke-width="0" stroke-linecap="butt"/><path d="M306.79963,146.51098c0,2.65161 -1.40954,4.80117 -3.14831,4.80117c-1.73876,0 -3.14831,-2.14956 -3.14831,-4.80117c0,-2.65161 1.40954,-4.80117 3.14831,-4.80117c1.73876,0 3.14831,2.14956 3.14831,4.80117z" fill="#258ed7" stroke="none" stroke-width="0" stroke-linecap="butt"/><path d="M314.04073,146.35357c0,2.04305 -0.4581,3.69926 -1.0232,3.69926c-0.5651,0 -1.0232,-1.65621 -1.0232,-3.69926c0,-2.04305 0.4581,-3.69926 1.0232,-3.69926c0.5651,0 1.0232,1.65621 1.0232,3.69926z" fill="#258ed7" stroke="none" stroke-width="0" stroke-linecap="butt"/><path d="M306.4848,146.58969c0,1.73876 -1.02192,3.14831 -2.28252,3.14831c-1.26061,0 -2.28252,-1.40954 -2.28252,-3.14831c0,-1.73876 1.02192,-3.14831 2.28252,-3.14831c1.26061,0 2.28252,1.40954 2.28252,3.14831z" fill="#000000" stroke="none" stroke-width="0" stroke-linecap="butt"/><path d="M313.25365,146.35357c0,1.2606 -0.24667,2.28252 -0.55095,2.28252c-0.30428,0 -0.55095,-1.02192 -0.55095,-2.28252c0,-1.2606 0.24667,-2.28252 0.55095,-2.28252c0.30428,0 0.55095,1.02192 0.55095,2.28252z" fill="#000000" stroke="none" stroke-width="0" stroke-linecap="butt"/><path d="M320.72047,157.78692c0,0 -2.18325,4.65087 -3.34796,4.69424c-0.32957,0.01228 -1.16875,-0.81784 -1.16875,-0.81784c0,0 -0.39489,1.75319 -0.89897,1.9668c-0.60041,0.25444 -2.46527,-0.54114 -2.46527,-0.54114c0,0 -0.67928,0.28607 -1.45198,0.50208c-0.30384,0.08494 -0.62214,0.15905 -0.91927,0.20067c-0.35184,0.04929 -0.674,0.05302 -0.90731,-0.02475c-0.25029,-0.08344 -0.53399,-0.28725 -0.81906,-0.54651c-0.29699,-0.27009 -0.59545,-0.60035 -0.85918,-0.91734c-0.50238,-0.60382 -0.87872,-1.15949 -0.87872,-1.15949c0,0 -0.41631,0.18107 -1.03419,0.35732c-0.34209,0.09758 -0.74598,0.19368 -1.17521,0.25674c-0.29126,0.04279 -0.59419,0.07037 -0.8974,0.07289c-0.55801,0.00464 -1.11697,-0.07564 -1.60594,-0.30224c-0.30475,-0.14123 -0.58751,-0.3302 -0.84963,-0.54936c-0.33777,-0.2824 -0.64126,-0.61491 -0.91339,-0.95997c-0.3092,-0.39207 -0.5779,-0.80035 -0.81034,-1.16971c-0.45957,-0.73026 -0.77741,-1.30837 -0.98636,-1.30837c-0.42154,0 -0.83107,-0.04548 -1.22262,-0.1312c-0.71385,-0.15627 -1.36799,-0.44624 -1.92639,-0.83812c-0.51975,-0.36475 -0.95654,-0.81778 -1.28136,-1.33343c-0.40545,-0.64366 -0.63642,-1.38488 -0.63642,-2.17376c0,-0.56165 0.11707,-1.09915 0.33084,-1.59448c0.1203,-0.27875 0.44914,-0.79298 0.44914,-0.79298c0,0 16.08217,5.08663 20.07945,6.16825c1.36744,0.37002 6.19633,0.94166 6.19633,0.94166z" fill="#000000" stroke="none" stroke-width="0" stroke-linecap="butt"/><path d="M324.71188,154.012c0,3.91221 -4.1699,7.08369 -9.31374,7.08369c-5.14384,0 -9.31374,-3.17148 -9.31374,-7.08369c0,-3.91221 4.16991,-7.08369 9.31374,-7.08369c5.14384,0 9.31374,3.17148 9.31374,7.08369z" fill="url(#color-9)" stroke="none" stroke-width="0" stroke-linecap="butt"/><path d="M280.98353,151.07603c0.82173,2.68526 4.68052,10.62553 -4.80117,9.68104c-4.10922,-0.40933 -10.15329,-5.55148 -10.15329,-9.68104c0,-4.12956 3.34766,-7.47723 7.47723,-7.47723c4.12956,0 6.21577,3.35502 7.47723,7.47723z" fill="#f3a27a" stroke="none" stroke-width="0" stroke-linecap="butt"/><path d="M278.20488,151.0999l0.10258,-0.14193c-1.7327,0 -3.24435,0.22092 -4.9538,0.46632c0,0 -0.58437,0.08348 -0.66786,-0.5009c-0.08349,-0.58437 0.50089,-0.66785 0.50089,-0.66785c1.75668,-0.24965 3.33909,-0.47818 5.12077,-0.47818l0.16527,0.11009c-0.34175,-1.97551 -3.0496,-3.97256 -4.99775,-3.21635c-1.57587,0.6117 -2.7864,2.01698 -3.84411,3.28741c0,0 -0.37791,0.45349 -0.8314,0.07558c-0.45349,-0.37791 -0.07558,-0.83139 -0.07558,-0.83139c1.18222,-1.4174 2.56187,-2.98875 4.34148,-3.63887c2.98787,-1.09152 6.61505,1.89711 6.61505,4.87598c-0.38491,1.53966 -0.12611,3.25466 -0.81932,4.69772l-0.13837,0.56803c0,0 -0.14318,0.57268 -0.71585,0.42951c-0.57268,-0.14317 -0.42951,-0.71585 -0.42951,-0.71585l0.17645,-0.6913c0.54117,-1.03185 0.47502,-2.32086 0.60202,-3.51962c-0.09354,-0.05095 -0.15095,-0.10837 -0.15095,-0.10837z" fill="#ae4026" stroke="none" stroke-width="0.5" stroke-linecap="butt"/><path d="M315.73294,164.69245c0,0.59031 -0.59031,0.59031 -0.59031,0.59031h-0.15742c-3.34485,0 -7.49302,-0.37806 -10.71848,0.45462c0,0 -0.57268,0.14317 -0.71585,-0.42951c-0.14317,-0.57268 0.42951,-0.71585 0.42951,-0.71585c3.36546,-0.81947 7.53068,-0.48987 11.00482,-0.48987h0.15742c0,0 0.59031,0 0.59031,0.59031z" fill="#ae4026" stroke="none" stroke-width="0.5" stroke-linecap="butt"/><path d="M303.65133,144.46459c0,-0.39122 0.31714,-0.70837 0.70837,-0.70837c0.39122,0 0.70837,0.31715 0.70837,0.70837c0,0.39122 -0.31715,0.70837 -0.70837,0.70837c-0.39122,0 -0.70837,-0.31715 -0.70837,-0.70837z" fill="#ffffff" stroke="none" stroke-width="0" stroke-linecap="butt"/><path d="M312.78141,144.85812c0.17387,0 0.31483,0.24667 0.31483,0.55095c0,0.30428 -0.14096,0.55095 -0.31483,0.55095c-0.17387,0 -0.31483,-0.24667 -0.31483,-0.55095c0,-0.30428 0.14096,-0.55095 0.31483,-0.55095z" fill="#ffffff" stroke="none" stroke-width="0" stroke-linecap="butt"/><path d="M296.0561,139.11794c0,0 -0.27482,-0.38548 -0.3941,-0.57788c-0.6455,-1.04112 -0.93154,-2.0663 -0.76726,-2.9257c0.04981,-0.26059 0.17781,-0.33836 0.17781,-0.33836c0,0 2.02239,-0.5942 3.01572,-0.7894c0.97005,-0.19063 2.87606,-0.36841 2.87606,-0.36841c0,0 0.6092,0.18255 0.91698,0.29773c0.63384,0.23719 1.27399,0.54248 1.90378,0.91923c1.70714,1.02124 3.05469,2.29698 3.88086,3.56042c0.19548,0.29893 0.49672,0.89121 0.49672,0.89121c0,0 -6.00778,-2.13599 -8.15462,-2.2546c-1.84174,-0.10175 -3.95197,1.58575 -3.95197,1.58575z" fill="#000000" stroke="none" stroke-width="0" stroke-linecap="butt"/><path d="M314.4332,138.83507c0,0 -0.5199,-0.82534 -1.55229,-0.82534c-0.85614,0 -1.79932,1.68715 -1.79932,1.68715c0,0 -0.06999,-0.81307 -0.06999,-1.24442c0,-0.9646 0.12198,-1.85948 0.33026,-2.59728c0.06806,-0.24108 0.23056,-0.96504 0.23056,-0.96504c0,0 1.30072,0.55168 2.19563,2.06768c0.36589,0.61982 0.66516,1.87725 0.66516,1.87725z" fill="#000000" stroke="none" stroke-width="0" stroke-linecap="butt"/><path d="M314.90876,121.35168c0,2.02272 -0.71592,3.84743 -1.86405,5.13818c-0.19645,0.22085 -0.62589,0.61397 -0.62589,0.61397c0,0 -2.15007,-0.13789 -3.25552,-0.17072c-1.273,-0.0378 -3.95102,-0.0433 -3.95102,-0.0433c0,0 -0.20121,-0.17638 -0.36762,-0.36046c-1.16881,-1.29288 -1.89947,-3.13423 -1.89947,-5.17768c0,-3.91221 2.67814,-7.08369 5.98178,-7.08369c3.30364,0 5.98178,3.17148 5.98178,7.08369z" fill="#ffffff" stroke="none" stroke-width="0" stroke-linecap="butt"/><path d="M258.00348,182.02571v-12.69446l26.91801,-0.40015c0,0 3.15717,3.81633 4.13972,5.11944c1.3264,1.75916 3.10139,9.83622 3.10139,9.83622l-18.05035,-1.22868z" fill="url(#color-10)" stroke="none" stroke-width="0" stroke-linecap="butt"/><path d="M292.78104,187.20691c0,-1.95611 1.58574,-3.54184 3.54184,-3.54184c1.95611,0 3.54184,1.58574 3.54184,3.54184c0,1.95611 -1.58574,3.54184 -3.54184,3.54184c-1.95611,0 -3.54184,-1.58574 -3.54184,-3.54184z" fill="#fdff00" stroke="none" stroke-width="0" stroke-linecap="butt"/><path d="M314.08857,186.37021c1.05114,1.7519 1.6313,3.33525 1.29583,3.53654c-0.33547,0.20129 -1.45954,-1.05574 -2.51068,-2.80764c-1.05114,-1.7519 -1.6313,-3.33526 -1.29583,-3.53654c0.33547,-0.20129 1.45954,1.05574 2.51068,2.80764z" fill="#fdff00" stroke="none" stroke-width="0" stroke-linecap="butt"/><path d="M303.98458,122.7402l3.14831,-7.08369l2.67606,2.51864l1.73157,-2.51864l2.06772,8.02927l-1.24644,1.39614l-1.02682,-5.38226l-1.08026,1.2797l-2.47095,-1.92515l-1.7528,5.41756z" fill="#cc0008" stroke="none" stroke-width="0" stroke-linecap="butt"/><path d="M305.679,246.80336c0.12186,2.39471 -0.9752,4.54401 -2.74577,6.00893c-1.61004,1.33209 -3.77698,2.09827 -6.0907,1.96845c-4.37489,-0.24546 -22.56547,-1.42065 -23.20024,-8.13447c-0.21836,-2.3095 -1.37912,-2.30069 -0.10487,-3.35469c0.57847,-0.47849 1.84853,0.77638 3.347,0.56366c5.84265,-0.82937 18.21862,-6.0111 19.9581,-6.0111c5.35672,0 8.59103,4.13552 8.83648,8.95921z" fill="url(#color-11)" stroke="none" stroke-width="0" stroke-linecap="butt"/><path d="M266.24423,177.1274c0,5.17282 -4.6515,9.36621 -10.38941,9.36621c-5.73791,0 -10.38941,-4.19339 -10.38941,-9.36621c0,-5.17282 4.6515,-9.36621 10.38941,-9.36621c5.73791,0 10.38941,4.19339 10.38941,9.36621z" fill="url(#color-12)" stroke="none" stroke-width="0" stroke-linecap="butt"/><path d="M262.62369,178.1506c0,7.21585 -6.76582,13.06547 -15.11187,13.06547c-0.60445,0 -3.69146,-1.76176 -3.69146,-1.76176c0,0 2.91513,-3.70263 0.27904,-3.65717c-8.98764,0.155 -11.69945,-5.28742 -11.69945,-7.64654c0,-7.21585 6.76582,-13.06547 15.11187,-13.06547c8.34606,0 15.11187,5.84961 15.11187,13.06547z" fill="url(#color-13)" stroke="none" stroke-width="0" stroke-linecap="butt"/><path d="M240.58554,185.70653l-5.82437,-8.34301l2.36123,-7.71335" fill="none" stroke="#000000" stroke-width="0.5" stroke-linecap="round"/><path d="M244.20609,185.54912l-4.25021,-8.02818l2.67606,-8.02818" fill="none" stroke="#000000" stroke-width="0.5" stroke-linecap="round"/><path d="M246.09508,186.80844l3.93538,-1.41674l3.46314,-3.46314l-3.30572,-2.51864l1.88898,-1.57415l3.30572,2.51864l-2.20381,1.73157" fill="none" stroke="#000000" stroke-width="0.5" stroke-linecap="round"/><path d="M250.50692,179.24792l0.05181,0.01296c0.14844,-0.60333 0.71389,-0.83276 1.32441,-1.02554c-0.17083,-0.19867 -0.18129,-0.38024 0.39858,-0.33321c0.11325,0.00919 0.25585,0.21227 0.40633,0.51894c0.36584,0.112 0.7435,0.38207 1.16145,0.81525c0.30262,0.12104 1.66283,1.05804 1.59213,1.29593c-0.08585,0.28882 -1.11533,0.74361 -1.77634,0.91348c0.00676,0.04504 0.0103,0.0809 0.0103,0.10621v0.20989c0,0.10867 -0.0881,0.19677 -0.19677,0.19677c-0.06519,0 -0.12299,-0.03171 -0.15879,-0.08054l-0.15605,-0.20806l0.06393,-0.04795c-0.02091,-0.0301 -0.03747,-0.05826 -0.05004,-0.08468c-0.05964,-0.01527 -0.10056,-0.05618 -0.10056,-0.05618l-0.11523,-0.12533c-1.059,-0.21522 -1.41455,-1.36278 -2.41695,-1.60696c0,0 -0.1909,-0.04772 -0.14317,-0.23862c0.01347,-0.05388 0.03835,-0.08875 0.06711,-0.11105z" fill="#000000" stroke="none" stroke-width="0.5" stroke-linecap="butt"/><path d="M339.54273,183.85339l-2.47366,-4.38514l1.12439,-2.92342l0.78708,2.02391l-1.91147,1.12439" fill="none" stroke="#000000" stroke-width="0.5" stroke-linecap="round"/><path d="M338.94244,178.10502c0.08213,0.21179 0.12407,0.39627 0.09439,0.48049c-0.12421,0.35241 -1.27412,0.62114 -1.56477,1.01771c0,0 -0.11806,0.15742 -0.27548,0.03935c-0.15742,-0.11806 -0.03935,-0.27548 -0.03935,-0.27548c0.05251,-0.06879 0.10532,-0.13069 0.15925,-0.18723c-0.02079,-0.0312 -0.0329,-0.06866 -0.0329,-0.10896c0,-0.01462 0.0016,-0.02886 0.00462,-0.04257l0.04062,-0.20314l0.06189,0.01238c0.05817,-0.46371 0.24368,-1.09272 0.57085,-1.35762c0.01539,-0.13701 0.04227,-0.23388 0.07768,-0.29739l-0.04877,-0.00813l0.0409,-0.24536c0.01409,-0.09484 0.09586,-0.16761 0.19462,-0.16761c0.10867,0 0.19677,0.0881 0.19677,0.19677v0.17854c0.02015,0.04946 0.03661,0.09841 0.05034,0.1471c0.03951,0.04578 0.07917,0.09773 0.11819,0.15394c0.00582,0.00315 0.01166,0.00639 0.01753,0.00974c0.31742,0.18072 0.39053,0.42398 0.33363,0.65748z" fill="#000000" stroke="none" stroke-width="0.5" stroke-linecap="butt"/><path d="M333.61432,208.45675l0.58664,-3.09317l23.77873,4.50976l-0.58663,3.09317z" fill="url(#color-14)" stroke="none" stroke-width="0" stroke-linecap="butt"/><path d="M337.82786,210.64081c0,5.27062 -2.46671,9.5433 -5.50954,9.5433c-3.04283,0 -5.50954,-4.27268 -5.50954,-9.5433c0,-5.27062 2.46671,-9.5433 5.50954,-9.5433c3.04283,0 5.50954,4.27268 5.50954,9.5433z" fill="url(#color-15)" stroke="none" stroke-width="0" stroke-linecap="butt"/><path d="M338.22139,213.69073c0,2.28213 -2.11432,4.13215 -4.72246,4.13215c-2.60814,0 -4.72246,-1.85002 -4.72246,-4.13215c0,-2.28213 2.11432,-4.13215 4.72246,-4.13215c2.60814,0 4.72246,1.85002 4.72246,4.13215z" fill="#443533" stroke="none" stroke-width="0" stroke-linecap="butt"/><path d="M379.79607,271.19884c5.71307,0 10.34443,4.65653 10.34443,10.40065c0,5.74412 -1.59549,10.85042 -7.30856,10.85042c-1.00625,0 -2.29799,-1.84499 -3.3729,-2.13739c-5.02806,-1.36773 -10.0074,-3.98062 -10.0074,-8.71302c0,-5.74412 4.63136,-10.40065 10.34444,-10.40065z" fill="url(#color-16)" stroke="none" stroke-width="0" stroke-linecap="butt"/><path d="M327.59586,219.98734c0,-0.58991 0.08963,-5.77624 0.08963,-5.77624c0,0 4.15805,-2.48806 6.79729,-2.48806c2.99148,0 5.19973,1.80958 5.19973,1.80958l-0.09745,5.05164z" fill="#ec0000" stroke="none" stroke-width="0" stroke-linecap="butt"/><path d="M377.20997,281.48705c0,4.56425 -2.8946,8.2643 -6.46527,8.2643c-3.57067,0 -6.46527,-3.70005 -6.46527,-8.2643c0,-4.56425 2.8946,-8.2643 6.46527,-8.2643c3.57067,0 6.46527,3.70005 6.46527,8.2643z" fill="url(#color-17)" stroke="none" stroke-width="0" stroke-linecap="butt"/><path d="M338.931,354.69768v-4.72246l29.59407,-0.31483v6.61144c0,0 -5.86732,2.77713 -9.73177,2.7797c-9.60805,0.0064 -12.83019,-3.04891 -12.83019,-3.04891c0,0 -1.71376,0.65568 -2.67448,0.4774c-1.28671,-0.23878 -4.35764,-1.78235 -4.35764,-1.78235z" fill="#bdbdbd" stroke="none" stroke-width="0" stroke-linecap="butt"/><path d="M337.61521,348.69926v-47.46833h22.35297l0.15742,38.03779l5.82437,5.49516z" fill="url(#color-18)" stroke="none" stroke-width="0" stroke-linecap="butt"/><path d="M322.97558,351.37532v-47.46832h22.35297v37.56555l6.61144,9.90278z" fill="url(#color-19)" stroke="none" stroke-width="0" stroke-linecap="butt"/><path d="M343.2409,288.31328v-13.06547h27.07543c0,0 4.11157,0.60083 4.25021,6.29661c0.12997,5.33933 -4.25021,6.76886 -4.25021,6.76886z" fill="url(#color-20)" stroke="none" stroke-width="0" stroke-linecap="butt"/><path d="M365.66432,300.08068c0,9.38931 -9.65562,20.14916 -18.65371,20.14916c-8.99809,0 -24.97466,-1.20764 -25.10774,-20.30657c-0.04314,-6.19095 1.80418,-12.62156 6.75719,-15.06385c3.35406,-1.65386 1.20521,-11.21113 5.34807,-11.43883c5.71312,-0.31401 13.4595,-2.48879 18.88962,0.67268c3.44445,2.00539 12.76657,20.98229 12.76657,25.98742z" fill="url(#color-21)" stroke="none" stroke-width="0" stroke-linecap="butt"/><path d="M323.97655,357.53115v-4.72246l29.59407,-0.31483v6.61144c0,0 -5.86732,2.77713 -9.73177,2.7797c-9.60805,0.0064 -12.83019,-3.04891 -12.83019,-3.04891c0,0 -1.71376,0.65568 -2.67448,0.4774c-1.28671,-0.23878 -4.35764,-1.78235 -4.35764,-1.78235z" fill="#bdbdbd" stroke="none" stroke-width="0" stroke-linecap="butt"/><path d="M370.21927,348.96588c0.23267,4.57232 -3.97832,8.24995 -8.83648,7.97738c-4.37489,-0.24546 -22.56547,-1.42064 -23.20024,-8.13447c-0.21836,-2.3095 -1.37912,-2.30069 -0.10487,-3.35469c0.57847,-0.47849 1.84854,0.77638 3.347,0.56367c5.84265,-0.82937 18.21862,-6.0111 19.9581,-6.0111c5.35672,0 8.59102,4.13552 8.83648,8.95921z" fill="url(#color-22)" stroke="none" stroke-width="0" stroke-linecap="butt"/><path d="M306.95963,289.66863v-15.26928l26.91801,-0.62966c0,0 3.15717,3.77593 4.13972,5.82646c1.3264,2.76816 3.10139,9.28541 3.10139,9.28541c0,0 -5.94874,6.40103 -9.36629,6.47978c-2.08066,0.04794 -8.93582,-1.11242 -8.93582,-1.11242l0.25175,-3.58521z" fill="#ff0000" stroke="none" stroke-width="0" stroke-linecap="butt"/><path d="M357.60472,302.37506c0,0 -1.78789,-8.90662 -2.97916,-12.55728c-1.4634,-4.48459 -5.15396,-12.3668 -5.15396,-12.3668l5.50954,-1.31179c0,0 3.37675,9.59574 4.46815,13.8354c1.17605,4.56849 2.35318,12.66284 2.35318,12.66284z" fill="#ffffff" stroke="none" stroke-width="0" stroke-linecap="butt"/><path d="M376.44738,238.55031c0.51351,3.45126 -6.65722,7.1261 -16.01626,8.20799c-9.35905,1.08188 -18.14941,0.99763 -18.66292,-2.45363c-0.51351,-3.45126 6.65721,-8.04435 16.01626,-9.12624c9.35905,-1.08188 18.14941,-0.07938 18.66292,3.37188z" fill="#5e0000" stroke="none" stroke-width="0" stroke-linecap="butt"/><path d="M367.96148,263.47461c-2.79676,8.62315 -11.04493,14.87167 -20.78482,14.87167c-5.13491,0 -10.12056,-2.57211 -14.08607,-5.71163c-5.33328,-4.22239 -8.82133,-9.98039 -8.3456,-16.72005c0.78708,-11.15045 19.22032,-17.98113 31.24693,-17.39439c7.86178,0.38356 7.98924,5.71669 7.75982,14.01777c-0.05305,1.91951 4.87048,8.89943 4.20975,10.93662z" fill="#ffb687" stroke="none" stroke-width="0" stroke-linecap="butt"/><path d="M329.62485,267.95688c0,1.05686 4.71518,4.68762 3.73972,5.46131c-5.01575,2.33876 -7.27307,-1.51272 -7.27307,-1.51272c0,0 -0.82897,0.14421 -1.26781,0.14421c-2.65161,0 -4.80117,-1.83241 -4.80117,-4.0928c0,-1.42865 0.85868,-2.68633 2.16009,-3.41846c0.75766,-0.42623 1.40118,-14.71171 2.16883,-15.31397c0.58969,-0.46264 3.54382,-2.72531 6.65395,-4.09994c1.59584,-0.70534 4.66586,-2.1628 4.66586,-2.1628c0,0 -1.06859,4.60666 -0.05262,5.90995c0.39562,0.50751 2.42074,2.17215 2.03456,3.81597c-0.75291,3.20491 -3.73778,2.52421 -3.73778,2.52421c0,0 1.42582,1.42698 0.50535,2.75122c-2.99675,4.31128 -4.81986,-1.15912 -6.05467,1.43364c-0.79882,1.67728 1.25876,8.39194 1.25876,8.56017z" fill="#3f1200" stroke="none" stroke-width="0" stroke-linecap="butt"/><path d="M362.99688,250.09024c0,2.65161 -0.49334,4.80117 -1.10191,4.80117c-0.60857,0 -1.10191,-2.14956 -1.10191,-4.80117c0,-2.65161 0.49334,-4.80117 1.10191,-4.80117c0.60857,0 1.10191,2.14956 1.10191,4.80117z" fill="#ffffff" stroke="none" stroke-width="0" stroke-linecap="butt"/><path d="M355.9132,250.95603c0,3.6514 -2.25527,6.61144 -5.03729,6.61144c-2.78202,0 -5.03729,-2.96004 -5.03729,-6.61144c0,-3.6514 2.25527,-6.61144 5.03729,-6.61144c2.78202,0 5.03729,2.96004 5.03729,6.61144z" fill="#ffffff" stroke="none" stroke-width="0" stroke-linecap="butt"/><path d="M355.59837,251.19214c0,2.65161 -1.40954,4.80117 -3.14831,4.80117c-1.73876,0 -3.14831,-2.14956 -3.14831,-4.80117c0,-2.65161 1.40954,-4.80117 3.14831,-4.80117c1.73876,0 3.14831,2.14956 3.14831,4.80117z" fill="#258ed7" stroke="none" stroke-width="0" stroke-linecap="butt"/><path d="M362.83948,251.03474c0,2.04305 -0.4581,3.69926 -1.0232,3.69926c-0.5651,0 -1.0232,-1.65621 -1.0232,-3.69926c0,-2.04305 0.4581,-3.69926 1.0232,-3.69926c0.5651,0 1.0232,1.65621 1.0232,3.69926z" fill="#258ed7" stroke="none" stroke-width="0" stroke-linecap="butt"/><path d="M355.28354,251.27086c0,1.73876 -1.02192,3.14831 -2.28252,3.14831c-1.26061,0 -2.28252,-1.40954 -2.28252,-3.14831c0,-1.73876 1.02192,-3.14831 2.28252,-3.14831c1.26061,0 2.28252,1.40954 2.28252,3.14831z" fill="#000000" stroke="none" stroke-width="0" stroke-linecap="butt"/><path d="M362.0524,251.03474c0,1.2606 -0.24667,2.28252 -0.55095,2.28252c-0.30428,0 -0.55095,-1.02192 -0.55095,-2.28252c0,-1.2606 0.24667,-2.28252 0.55095,-2.28252c0.30428,0 0.55095,1.02192 0.55095,2.28252z" fill="#000000" stroke="none" stroke-width="0" stroke-linecap="butt"/><path d="M369.51921,262.46808c0,0 -2.18325,4.65087 -3.34796,4.69424c-0.32957,0.01228 -1.16875,-0.81784 -1.16875,-0.81784c0,0 -0.39489,1.75319 -0.89897,1.9668c-0.60041,0.25444 -2.46527,-0.54114 -2.46527,-0.54114c0,0 -0.67928,0.28607 -1.45198,0.50208c-0.30384,0.08494 -0.62214,0.15905 -0.91927,0.20067c-0.35184,0.04929 -0.674,0.05302 -0.90731,-0.02475c-0.25029,-0.08344 -0.53399,-0.28725 -0.81906,-0.54651c-0.29699,-0.27009 -0.59545,-0.60035 -0.85918,-0.91734c-0.50238,-0.60382 -0.87872,-1.15949 -0.87872,-1.15949c0,0 -0.41631,0.18107 -1.03419,0.35732c-0.34209,0.09758 -0.74598,0.19368 -1.17521,0.25674c-0.29126,0.04279 -0.59419,0.07037 -0.8974,0.07289c-0.55801,0.00464 -1.11697,-0.07564 -1.60594,-0.30224c-0.30475,-0.14123 -0.58751,-0.3302 -0.84963,-0.54936c-0.33777,-0.2824 -0.64126,-0.61491 -0.91339,-0.95997c-0.3092,-0.39207 -0.5779,-0.80035 -0.81034,-1.16971c-0.45957,-0.73026 -0.77741,-1.30837 -0.98636,-1.30837c-0.42154,0 -0.83107,-0.04548 -1.22262,-0.1312c-0.71385,-0.15627 -1.36799,-0.44624 -1.92639,-0.83812c-0.51975,-0.36475 -0.95654,-0.81778 -1.28136,-1.33343c-0.40545,-0.64366 -0.63642,-1.38488 -0.63642,-2.17376c0,-0.56165 0.11707,-1.09915 0.33084,-1.59448c0.1203,-0.27875 0.44914,-0.79298 0.44914,-0.79298c0,0 16.08217,5.08663 20.07945,6.16825c1.36744,0.37002 6.19633,0.94166 6.19633,0.94166z" fill="#000000" stroke="none" stroke-width="0" stroke-linecap="butt"/><path d="M373.51062,258.69316c0,3.91221 -4.1699,7.08369 -9.31374,7.08369c-5.14384,0 -9.31374,-3.17148 -9.31374,-7.08369c0,-3.91221 4.16991,-7.08369 9.31374,-7.08369c5.14384,0 9.31374,3.17148 9.31374,7.08369z" fill="url(#color-23)" stroke="none" stroke-width="0" stroke-linecap="butt"/><path d="M329.78227,255.75719c0.82173,2.68526 4.68052,10.62553 -4.80117,9.68104c-4.10922,-0.40933 -10.15329,-5.55148 -10.15329,-9.68104c0,-4.12956 3.34766,-7.47723 7.47723,-7.47723c4.12956,0 6.21577,3.35502 7.47723,7.47723z" fill="#f3a27a" stroke="none" stroke-width="0" stroke-linecap="butt"/><path d="M327.00363,255.78107l0.10258,-0.14193c-1.7327,0 -3.24435,0.22092 -4.9538,0.46632c0,0 -0.58437,0.08348 -0.66786,-0.5009c-0.08349,-0.58437 0.50089,-0.66785 0.50089,-0.66785c1.75668,-0.24965 3.33909,-0.47818 5.12077,-0.47818l0.16527,0.11009c-0.34175,-1.97551 -3.0496,-3.97256 -4.99775,-3.21635c-1.57587,0.6117 -2.7864,2.01698 -3.84411,3.28741c0,0 -0.37791,0.45349 -0.8314,0.07558c-0.45349,-0.37791 -0.07558,-0.83139 -0.07558,-0.83139c1.18222,-1.4174 2.56187,-2.98875 4.34148,-3.63887c2.98787,-1.09152 6.61505,1.89711 6.61505,4.87598c-0.38491,1.53966 -0.12611,3.25466 -0.81932,4.69772l-0.13837,0.56803c0,0 -0.14318,0.57268 -0.71585,0.42951c-0.57268,-0.14317 -0.42951,-0.71585 -0.42951,-0.71585l0.17645,-0.6913c0.54117,-1.03185 0.47502,-2.32086 0.60202,-3.51962c-0.09354,-0.05095 -0.15095,-0.10837 -0.15095,-0.10837z" fill="#ae4026" stroke="none" stroke-width="0.5" stroke-linecap="butt"/><path d="M364.53169,269.37362c0,0.59031 -0.59031,0.59031 -0.59031,0.59031h-0.15742c-3.34485,0 -7.49302,-0.37806 -10.71848,0.45462c0,0 -0.57268,0.14317 -0.71585,-0.42951c-0.14317,-0.57268 0.42951,-0.71585 0.42951,-0.71585c3.36546,-0.81947 7.53068,-0.48987 11.00482,-0.48987h0.15742c0,0 0.59031,0 0.59031,0.59031z" fill="#ae4026" stroke="none" stroke-width="0.5" stroke-linecap="butt"/><path d="M352.45007,249.14575c0,-0.39122 0.31714,-0.70837 0.70837,-0.70837c0.39122,0 0.70837,0.31715 0.70837,0.70837c0,0.39122 -0.31715,0.70837 -0.70837,0.70837c-0.39122,0 -0.70837,-0.31715 -0.70837,-0.70837z" fill="#ffffff" stroke="none" stroke-width="0" stroke-linecap="butt"/><path d="M361.58015,249.53929c0.17387,0 0.31483,0.24667 0.31483,0.55095c0,0.30428 -0.14096,0.55095 -0.31483,0.55095c-0.17387,0 -0.31483,-0.24667 -0.31483,-0.55095c0,-0.30428 0.14096,-0.55095 0.31483,-0.55095z" fill="#ffffff" stroke="none" stroke-width="0" stroke-linecap="butt"/><path d="M344.85483,243.7991c0,0 -0.27482,-0.38548 -0.3941,-0.57788c-0.6455,-1.04112 -0.93154,-2.0663 -0.76726,-2.9257c0.04981,-0.26059 0.17781,-0.33836 0.17781,-0.33836c0,0 2.02239,-0.5942 3.01572,-0.7894c0.97005,-0.19063 2.87606,-0.36841 2.87606,-0.36841c0,0 0.6092,0.18255 0.91698,0.29773c0.63384,0.23719 1.27399,0.54248 1.90378,0.91923c1.70714,1.02124 3.05469,2.29698 3.88086,3.56042c0.19548,0.29893 0.49672,0.89121 0.49672,0.89121c0,0 -6.00778,-2.13599 -8.15462,-2.2546c-1.84174,-0.10175 -3.95197,1.58575 -3.95197,1.58575z" fill="#000000" stroke="none" stroke-width="0" stroke-linecap="butt"/><path d="M363.23195,243.51624c0,0 -0.5199,-0.82534 -1.55229,-0.82534c-0.85614,0 -1.79932,1.68715 -1.79932,1.68715c0,0 -0.06999,-0.81307 -0.06999,-1.24442c0,-0.9646 0.12198,-1.85948 0.33026,-2.59728c0.06806,-0.24108 0.23056,-0.96504 0.23056,-0.96504c0,0 1.30072,0.55168 2.19563,2.06768c0.36589,0.61982 0.66516,1.87725 0.66516,1.87725z" fill="#000000" stroke="none" stroke-width="0" stroke-linecap="butt"/><path d="M306.80222,286.70688v-12.69446l26.91801,-0.40015c0,0 3.15717,3.81633 4.13972,5.11944c1.3264,1.75916 3.10139,9.83622 3.10139,9.83622l-18.05035,-1.22868z" fill="url(#color-24)" stroke="none" stroke-width="0" stroke-linecap="butt"/><path d="M354.47774,351.48453c0.12186,2.39472 -0.97521,4.54401 -2.74577,6.00893c-1.61004,1.33209 -3.77698,2.09827 -6.0907,1.96845c-4.37489,-0.24546 -22.56547,-1.42064 -23.20024,-8.13447c-0.21836,-2.3095 -1.37912,-2.30069 -0.10487,-3.35469c0.57847,-0.47849 1.84854,0.77638 3.347,0.56367c5.84265,-0.82937 18.21862,-6.0111 19.9581,-6.0111c5.35672,0 8.59102,4.13552 8.83648,8.95921z" fill="url(#color-25)" stroke="none" stroke-width="0" stroke-linecap="butt"/><path d="M315.04297,281.80857c0,5.17282 -4.6515,9.36621 -10.38941,9.36621c-5.73791,0 -10.38941,-4.19339 -10.38941,-9.36621c0,-5.17282 4.6515,-9.36621 10.38941,-9.36621c5.73791,0 10.38941,4.19339 10.38941,9.36621z" fill="url(#color-26)" stroke="none" stroke-width="0" stroke-linecap="butt"/><path d="M311.42241,282.83177c0,7.21585 -6.76582,13.06547 -15.11187,13.06547c-0.60445,0 -3.69146,-1.76176 -3.69146,-1.76176c0,0 2.91513,-3.70262 0.27904,-3.65716c-8.98764,0.155 -11.69945,-5.28742 -11.69945,-7.64654c0,-7.21585 6.76582,-13.06547 15.11187,-13.06547c8.34605,0 15.11187,5.84962 15.11187,13.06547z" fill="url(#color-27)" stroke="none" stroke-width="0" stroke-linecap="butt"/><path d="M289.38428,290.3877l-5.82437,-8.34301l2.36123,-7.71335" fill="none" stroke="#000000" stroke-width="0.5" stroke-linecap="round"/><path d="M293.00483,290.23029l-4.25021,-8.02818l2.67606,-8.02818" fill="none" stroke="#000000" stroke-width="0.5" stroke-linecap="round"/><path d="M294.8938,291.48961l3.93538,-1.41674l3.46314,-3.46314l-3.30572,-2.51864l1.88898,-1.57415l3.30572,2.51864l-2.20381,1.73157" fill="none" stroke="#000000" stroke-width="0.5" stroke-linecap="round"/><path d="M299.30566,283.92908l0.05181,0.01295c0.14844,-0.60333 0.71389,-0.83275 1.32441,-1.02554c-0.17083,-0.19867 -0.18129,-0.38024 0.39858,-0.33321c0.11325,0.00919 0.25585,0.21227 0.40632,0.51894c0.36584,0.112 0.7435,0.38207 1.16146,0.81525c0.30262,0.12104 1.66284,1.05804 1.59213,1.29593c-0.08585,0.28882 -1.11533,0.74361 -1.77634,0.91348c0.00676,0.04504 0.0103,0.0809 0.0103,0.10621v0.20989c0,0.10867 -0.0881,0.19677 -0.19677,0.19677c-0.06519,0 -0.12299,-0.0317 -0.15879,-0.08054l-0.15604,-0.20806l0.06393,-0.04795c-0.02091,-0.03009 -0.03748,-0.05826 -0.05004,-0.08468c-0.05964,-0.01527 -0.10056,-0.05618 -0.10056,-0.05618l-0.11523,-0.12532c-1.059,-0.21522 -1.41455,-1.36277 -2.41695,-1.60696c0,0 -0.19089,-0.04773 -0.14317,-0.23862c0.01347,-0.05388 0.03835,-0.08875 0.06711,-0.11105z" fill="#000000" stroke="none" stroke-width="0.5" stroke-linecap="butt"/><path d="M388.34147,288.53456l-2.47366,-4.38514l1.12439,-2.92342l0.78708,2.02391l-1.91147,1.12439" fill="none" stroke="#000000" stroke-width="0.5" stroke-linecap="round"/><path d="M387.74119,282.78619c0.08213,0.21179 0.12408,0.39627 0.09439,0.48049c-0.12422,0.35241 -1.27413,0.62114 -1.56478,1.01771c0,0 -0.11806,0.15742 -0.27548,0.03935c-0.15742,-0.11806 -0.03935,-0.27548 -0.03935,-0.27548c0.05251,-0.06879 0.10532,-0.13069 0.15924,-0.18723c-0.02079,-0.0312 -0.0329,-0.06866 -0.0329,-0.10896c0,-0.01462 0.0016,-0.02886 0.00462,-0.04257l0.04062,-0.20314l0.06189,0.01238c0.05817,-0.46371 0.24368,-1.09271 0.57084,-1.35762c0.0154,-0.13701 0.04227,-0.23388 0.07768,-0.2974l-0.04876,-0.00812l0.04089,-0.24536c0.01409,-0.09485 0.09586,-0.16762 0.19463,-0.16762c0.10867,0 0.19677,0.0881 0.19677,0.19677v0.17855c0.02015,0.04946 0.03661,0.09841 0.05034,0.1471c0.0395,0.04578 0.07917,0.09773 0.11819,0.15394c0.00582,0.00315 0.01166,0.00639 0.01753,0.00973c0.31741,0.18072 0.39053,0.42398 0.33362,0.65747z" fill="#000000" stroke="none" stroke-width="0.5" stroke-linecap="butt"/><path d="M232.50033,310.74811c0,-5.37506 4.63136,-9.73241 10.34444,-9.73241c5.71307,0 10.34443,4.35735 10.34443,9.73241c0,5.37506 -1.5955,10.15328 -7.30857,10.15328c-1.00625,0 -2.29799,-1.72646 -3.3729,-2.00006c-5.02806,-1.27985 -10.0074,-3.72486 -10.0074,-8.15321z" fill="url(#color-28)" stroke="none" stroke-width="0" stroke-linecap="butt"/><path d="M240.25866,310.64289c0,4.27099 -2.8946,7.73333 -6.46527,7.73333c-3.57067,0 -6.46527,-3.46233 -6.46527,-7.73333c0,-4.27099 2.89461,-7.73333 6.46527,-7.73333c3.57067,0 6.46527,3.46233 6.46527,7.73333z" fill="url(#color-29)" stroke="none" stroke-width="0" stroke-linecap="butt"/><path d="M206.2896,317.03055v-12.22602h27.07543c0,0 4.11157,0.56222 4.25021,5.89205c0.12997,4.99627 -4.25021,6.33397 -4.25021,6.33397z" fill="url(#color-30)" stroke="none" stroke-width="0" stroke-linecap="butt"/><path d="M251.39017,317.23761l-2.47366,-4.10339l1.12439,-2.7356l0.78708,1.89388l-1.91147,1.05215" fill="none" stroke="#000000" stroke-width="0.5" stroke-linecap="round"/><path d="M250.78989,311.85857c0.08213,0.19819 0.12407,0.37081 0.09439,0.44963c-0.12421,0.32977 -1.27412,0.58123 -1.56477,0.95232c0,0 -0.11806,0.1473 -0.27548,0.03683c-0.15742,-0.11047 -0.03935,-0.25778 -0.03935,-0.25778c0.05251,-0.06437 0.10532,-0.12229 0.15925,-0.1752c-0.02079,-0.02919 -0.0329,-0.06426 -0.0329,-0.10197c0,-0.01368 0.0016,-0.027 0.00462,-0.03983l0.04062,-0.19009l0.06189,0.01159c0.05817,-0.43391 0.24368,-1.02251 0.57085,-1.27039c0.01539,-0.12821 0.04227,-0.21885 0.07768,-0.27829l-0.04877,-0.0076l0.0409,-0.22959c0.01409,-0.08876 0.09586,-0.15685 0.19462,-0.15685c0.10867,0 0.19677,0.08244 0.19677,0.18413v0.16707c0.02015,0.04629 0.03661,0.09209 0.05034,0.13765c0.03951,0.04285 0.07917,0.09145 0.11819,0.14404c0.00582,0.00294 0.01166,0.00598 0.01753,0.00911c0.31742,0.16911 0.39053,0.39674 0.33363,0.61523z" fill="#000000" stroke="none" stroke-width="0.5" stroke-linecap="butt"/><path d="M189.21113,178.49247c0,-5.74412 4.63136,-10.40066 10.34444,-10.40066c5.71307,0 10.34443,4.65653 10.34443,10.40066c0,5.74412 -1.5955,10.85041 -7.30857,10.85041c-1.00625,0 -2.29799,-1.845 -3.3729,-2.13739c-5.02806,-1.36772 -10.0074,-3.9806 -10.0074,-8.71301z" fill="url(#color-31)" stroke="none" stroke-width="0" stroke-linecap="butt"/><path d="M196.96946,178.38003c0,4.56425 -2.8946,8.2643 -6.46527,8.2643c-3.57067,0 -6.46527,-3.70005 -6.46527,-8.2643c0,-4.56425 2.89461,-8.2643 6.46527,-8.2643c3.57067,0 6.46527,3.70005 6.46527,8.2643z" fill="url(#color-32)" stroke="none" stroke-width="0" stroke-linecap="butt"/><path d="M158.69048,251.59066v-4.72246l29.59407,-0.31483v6.61144c0,0 -5.86732,2.77713 -9.73177,2.7797c-9.60806,0.0064 -12.83019,-3.04891 -12.83019,-3.04891c0,0 -1.71376,0.65568 -2.67449,0.4774c-1.28671,-0.23878 -4.35763,-1.78234 -4.35763,-1.78234z" fill="#bd6f3e" stroke="none" stroke-width="0" stroke-linecap="butt"/><path d="M157.3747,245.59224v-47.46832h22.35297l0.15742,38.03779l5.82437,5.49515z" fill="url(#color-33)" stroke="none" stroke-width="0" stroke-linecap="butt"/><path d="M142.73508,248.2683v-47.46832h22.35297v37.56555l6.61144,9.90278z" fill="url(#color-34)" stroke="none" stroke-width="0" stroke-linecap="butt"/><path d="M163.00039,185.20627v-13.06547h27.07543c0,0 4.11157,0.60083 4.25021,6.29661c0.12997,5.33932 -4.25021,6.76886 -4.25021,6.76886z" fill="url(#color-35)" stroke="none" stroke-width="0" stroke-linecap="butt"/><path d="M185.4238,196.97367c0,9.38931 -9.65563,20.14916 -18.65371,20.14916c-8.99809,0 -24.97466,-1.20763 -25.10774,-20.30657c-0.04314,-6.19095 1.80418,-12.62157 6.75719,-15.06385c3.35407,-1.65387 1.20521,-11.21113 5.34807,-11.43883c5.71312,-0.31401 13.4595,-2.48879 18.88962,0.67267c3.44445,2.00539 12.76658,20.98229 12.76658,25.98742z" fill="#1147ba" stroke="none" stroke-width="0" stroke-linecap="butt"/><path d="M143.73603,254.42414v-4.72246l29.59407,-0.31483v6.61144c0,0 -5.86732,2.77713 -9.73177,2.7797c-9.60805,0.0064 -12.83019,-3.04891 -12.83019,-3.04891c0,0 -1.71376,0.65568 -2.67449,0.4774c-1.28671,-0.23878 -4.35763,-1.78234 -4.35763,-1.78234z" fill="#bd6f3e" stroke="none" stroke-width="0" stroke-linecap="butt"/><path d="M171.52469,172.77046c0,0 1.62618,1.62601 2.53132,2.91905c1.20931,1.72759 4.08012,6.52586 4.08012,6.52586c0,0 -2.11473,1.35401 -3.47731,1.41502c-1.94283,0.08699 -7.06951,-0.94278 -7.06951,-0.94278c0,0 -1.16883,-2.64997 -2.12474,-3.95164c-1.36287,-1.85582 -5.27377,-6.12294 -5.27377,-6.12294z" fill="url(#color-36)" stroke="none" stroke-width="0" stroke-linecap="butt"/><path d="M189.97876,245.85887c0.23267,4.57232 -3.97832,8.24995 -8.83648,7.97738c-4.37489,-0.24546 -22.56547,-1.42064 -23.20024,-8.13447c-0.21836,-2.3095 -1.37912,-2.30069 -0.10487,-3.35469c0.57847,-0.47849 1.84854,0.77638 3.34701,0.56367c5.84265,-0.82937 18.21862,-6.0111 19.9581,-6.0111c5.35672,0 8.59103,4.13552 8.83648,8.9592z" fill="url(#color-37)" stroke="none" stroke-width="0" stroke-linecap="butt"/><path d="M126.71912,186.56161v-15.26928l26.91801,-0.62966c0,0 3.15717,3.77593 4.13972,5.82646c1.32641,2.76816 3.10139,9.28541 3.10139,9.28541c0,0 -5.94875,6.40103 -9.36629,6.47978c-2.08066,0.04794 -8.93581,-1.11242 -8.93581,-1.11242l0.25175,-3.58521z" fill="#ff0000" stroke="none" stroke-width="0" stroke-linecap="butt"/><path d="M181.52103,116.75809c3.16128,5.29466 4.52998,12.72496 3.35986,15.54286c-1.93473,4.65922 -10.14483,1.87975 -16.70073,5.69315c-10.52093,6.11974 -29.3767,14.97075 -32.89191,8.92749c-3.51521,-6.04328 9.64128,-24.69237 20.16221,-30.81211c10.52093,-6.11974 22.48653,-5.3541 26.07058,0.64861z" fill="url(#color-38)" stroke="none" stroke-width="0" stroke-linecap="butt"/><path d="M155.80484,140.41466c0,-4.23823 9.44797,-12.00292 19.80809,-12.00292c7.12617,0 13.32425,1.62557 16.49938,4.01973c1.44092,1.0865 -36.30747,12.22142 -36.30747,7.98318z" fill="url(#color-39)" stroke="none" stroke-width="0" stroke-linecap="butt"/><path d="M194.43595,135.04976c0.51351,3.45126 -6.65722,7.1261 -16.01626,8.20799c-9.35905,1.08188 -18.14941,0.99763 -18.66292,-2.45363c-0.51351,-3.45126 6.65721,-8.04435 16.01626,-9.12624c9.35905,-1.08188 18.14941,-0.07938 18.66292,3.37188z" fill="#a10000" stroke="none" stroke-width="0" stroke-linecap="butt"/><path d="M187.72096,160.3676c-2.79676,8.62315 -11.04493,14.87167 -20.78482,14.87167c-5.13491,0 -10.12056,-2.57211 -14.08607,-5.71163c-5.33328,-4.22239 -8.82133,-9.98039 -8.3456,-16.72005c0.78708,-11.15045 19.22032,-17.98113 31.24693,-17.39439c7.86178,0.38356 7.98924,5.71669 7.75982,14.01777c-0.05305,1.91951 4.87048,8.89943 4.20975,10.93662z" fill="#ffb687" stroke="none" stroke-width="0" stroke-linecap="butt"/><path d="M149.38434,164.84987c0,1.05686 4.71518,4.68762 3.73972,5.46131c-5.01575,2.33876 -7.27307,-1.51272 -7.27307,-1.51272c0,0 -0.82897,0.14421 -1.26781,0.14421c-2.65161,0 -4.80117,-1.83241 -4.80117,-4.0928c0,-1.42865 0.85868,-2.68633 2.16009,-3.41846c0.75766,-0.42623 1.40118,-14.71171 2.16883,-15.31397c0.58969,-0.46264 3.54382,-2.72531 6.65395,-4.09994c1.59584,-0.70534 4.66586,-2.1628 4.66586,-2.1628c0,0 -1.06859,4.60666 -0.05262,5.90995c0.39562,0.50751 2.42074,2.17215 2.03456,3.81597c-0.75291,3.20491 -3.73778,2.52421 -3.73778,2.52421c0,0 1.42582,1.42698 0.50535,2.75122c-2.99675,4.31128 -4.81986,-1.15912 -6.05467,1.43364c-0.79882,1.67728 1.25876,8.39194 1.25876,8.56017z" fill="#3f1200" stroke="none" stroke-width="0" stroke-linecap="butt"/><path d="M182.75637,146.98323c0,2.65161 -0.49334,4.80117 -1.10191,4.80117c-0.60857,0 -1.10191,-2.14956 -1.10191,-4.80117c0,-2.65161 0.49334,-4.80117 1.10191,-4.80117c0.60857,0 1.10191,2.14956 1.10191,4.80117z" fill="#ffffff" stroke="none" stroke-width="0" stroke-linecap="butt"/><path d="M175.67268,147.84901c0,3.6514 -2.25527,6.61144 -5.03729,6.61144c-2.78202,0 -5.03729,-2.96004 -5.03729,-6.61144c0,-3.6514 2.25527,-6.61144 5.03729,-6.61144c2.78202,0 5.03729,2.96004 5.03729,6.61144z" fill="#ffffff" stroke="none" stroke-width="0" stroke-linecap="butt"/><path d="M175.35786,148.08513c0,2.65161 -1.40954,4.80117 -3.14831,4.80117c-1.73876,0 -3.14831,-2.14956 -3.14831,-4.80117c0,-2.65161 1.40954,-4.80117 3.14831,-4.80117c1.73876,0 3.14831,2.14956 3.14831,4.80117z" fill="#258ed7" stroke="none" stroke-width="0" stroke-linecap="butt"/><path d="M182.59897,147.92772c0,2.04305 -0.4581,3.69926 -1.0232,3.69926c-0.5651,0 -1.0232,-1.65621 -1.0232,-3.69926c0,-2.04305 0.4581,-3.69926 1.0232,-3.69926c0.5651,0 1.0232,1.65621 1.0232,3.69926z" fill="#258ed7" stroke="none" stroke-width="0" stroke-linecap="butt"/><path d="M175.04303,148.16384c0,1.73876 -1.02192,3.14831 -2.28252,3.14831c-1.26061,0 -2.28252,-1.40954 -2.28252,-3.14831c0,-1.73876 1.02192,-3.14831 2.28252,-3.14831c1.26061,0 2.28252,1.40954 2.28252,3.14831z" fill="#000000" stroke="none" stroke-width="0" stroke-linecap="butt"/><path d="M181.81189,147.92772c0,1.2606 -0.24667,2.28252 -0.55095,2.28252c-0.30428,0 -0.55095,-1.02192 -0.55095,-2.28252c0,-1.2606 0.24667,-2.28252 0.55095,-2.28252c0.30428,0 0.55095,1.02192 0.55095,2.28252z" fill="#000000" stroke="none" stroke-width="0" stroke-linecap="butt"/><path d="M189.2787,159.36107c0,0 -2.18325,4.65087 -3.34796,4.69424c-0.32957,0.01228 -1.16875,-0.81784 -1.16875,-0.81784c0,0 -0.39489,1.75319 -0.89897,1.9668c-0.60041,0.25444 -2.46527,-0.54114 -2.46527,-0.54114c0,0 -0.67928,0.28607 -1.45198,0.50208c-0.30384,0.08494 -0.62214,0.15905 -0.91927,0.20067c-0.35184,0.04929 -0.674,0.05302 -0.90731,-0.02475c-0.25029,-0.08344 -0.53399,-0.28725 -0.81906,-0.54651c-0.29699,-0.27009 -0.59545,-0.60035 -0.85918,-0.91734c-0.50238,-0.60382 -0.87872,-1.15949 -0.87872,-1.15949c0,0 -0.41631,0.18107 -1.03419,0.35732c-0.34209,0.09758 -0.74598,0.19368 -1.17521,0.25674c-0.29126,0.04279 -0.59419,0.07037 -0.8974,0.07289c-0.55801,0.00464 -1.11697,-0.07564 -1.60594,-0.30224c-0.30475,-0.14123 -0.58751,-0.3302 -0.84963,-0.54936c-0.33777,-0.2824 -0.64126,-0.61491 -0.91339,-0.95997c-0.3092,-0.39207 -0.5779,-0.80035 -0.81034,-1.16971c-0.45957,-0.73026 -0.77741,-1.30837 -0.98636,-1.30837c-0.42154,0 -0.83107,-0.04548 -1.22262,-0.1312c-0.71385,-0.15627 -1.36799,-0.44624 -1.92639,-0.83812c-0.51975,-0.36475 -0.95654,-0.81778 -1.28136,-1.33343c-0.40545,-0.64366 -0.63642,-1.38488 -0.63642,-2.17376c0,-0.56165 0.11707,-1.09915 0.33084,-1.59448c0.1203,-0.27875 0.44914,-0.79298 0.44914,-0.79298c0,0 16.08217,5.08663 20.07945,6.16825c1.36744,0.37002 6.19633,0.94166 6.19633,0.94166z" fill="#000000" stroke="none" stroke-width="0" stroke-linecap="butt"/><path d="M193.27011,155.58615c0,3.91221 -4.1699,7.08369 -9.31374,7.08369c-5.14384,0 -9.31374,-3.17148 -9.31374,-7.08369c0,-3.91221 4.16991,-7.08369 9.31374,-7.08369c5.14384,0 9.31374,3.17148 9.31374,7.08369z" fill="url(#color-40)" stroke="none" stroke-width="0" stroke-linecap="butt"/><path d="M149.54176,152.65018c0.82173,2.68526 4.68052,10.62553 -4.80117,9.68104c-4.10922,-0.40933 -10.15329,-5.55148 -10.15329,-9.68104c0,-4.12956 3.34766,-7.47723 7.47723,-7.47723c4.12956,0 6.21577,3.35502 7.47723,7.47723z" fill="#f3a27a" stroke="none" stroke-width="0" stroke-linecap="butt"/><path d="M146.76312,152.67405l0.10258,-0.14193c-1.7327,0 -3.24435,0.22092 -4.9538,0.46632c0,0 -0.58437,0.08348 -0.66786,-0.5009c-0.08349,-0.58437 0.50089,-0.66785 0.50089,-0.66785c1.75668,-0.24965 3.33909,-0.47818 5.12077,-0.47818l0.16527,0.11009c-0.34175,-1.97551 -3.0496,-3.97256 -4.99775,-3.21635c-1.57587,0.6117 -2.7864,2.01698 -3.84411,3.28741c0,0 -0.37791,0.45349 -0.8314,0.07558c-0.45349,-0.37791 -0.07558,-0.83139 -0.07558,-0.83139c1.18222,-1.4174 2.56187,-2.98875 4.34148,-3.63887c2.98787,-1.09152 6.61505,1.89711 6.61505,4.87598c-0.38491,1.53966 -0.12611,3.25466 -0.81932,4.69772l-0.13837,0.56803c0,0 -0.14318,0.57268 -0.71585,0.42951c-0.57268,-0.14317 -0.42951,-0.71585 -0.42951,-0.71585l0.17645,-0.6913c0.54117,-1.03185 0.47502,-2.32086 0.60202,-3.51962c-0.09354,-0.05095 -0.15095,-0.10837 -0.15095,-0.10837z" fill="#ae4026" stroke="none" stroke-width="0.5" stroke-linecap="butt"/><path d="M184.29118,166.2666c0,0.59031 -0.59031,0.59031 -0.59031,0.59031h-0.15742c-3.34485,0 -7.49302,-0.37806 -10.71848,0.45462c0,0 -0.57268,0.14317 -0.71585,-0.42951c-0.14317,-0.57268 0.42951,-0.71585 0.42951,-0.71585c3.36546,-0.81947 7.53068,-0.48987 11.00482,-0.48987h0.15742c0,0 0.59031,0 0.59031,0.59031z" fill="#ae4026" stroke="none" stroke-width="0.5" stroke-linecap="butt"/><path d="M172.20955,146.03874c0,-0.39122 0.31714,-0.70837 0.70837,-0.70837c0.39122,0 0.70837,0.31715 0.70837,0.70837c0,0.39122 -0.31715,0.70837 -0.70837,0.70837c-0.39122,0 -0.70837,-0.31715 -0.70837,-0.70837z" fill="#ffffff" stroke="none" stroke-width="0" stroke-linecap="butt"/><path d="M181.33964,146.43228c0.17387,0 0.31483,0.24667 0.31483,0.55095c0,0.30428 -0.14096,0.55095 -0.31483,0.55095c-0.17387,0 -0.31483,-0.24667 -0.31483,-0.55095c0,-0.30428 0.14096,-0.55095 0.31483,-0.55095z" fill="#ffffff" stroke="none" stroke-width="0" stroke-linecap="butt"/><path d="M164.61433,140.69209c0,0 -0.27482,-0.38548 -0.3941,-0.57788c-0.6455,-1.04112 -0.93154,-2.0663 -0.76726,-2.9257c0.04981,-0.26059 0.17781,-0.33836 0.17781,-0.33836c0,0 2.02239,-0.5942 3.01572,-0.7894c0.97005,-0.19063 2.87606,-0.36841 2.87606,-0.36841c0,0 0.6092,0.18255 0.91698,0.29773c0.63384,0.23719 1.27399,0.54248 1.90378,0.91923c1.70714,1.02124 3.05469,2.29698 3.88086,3.56042c0.19548,0.29893 0.49672,0.89121 0.49672,0.89121c0,0 -6.00778,-2.13599 -8.15462,-2.2546c-1.84174,-0.10175 -3.95197,1.58575 -3.95197,1.58575z" fill="#000000" stroke="none" stroke-width="0" stroke-linecap="butt"/><path d="M182.99145,140.40922c0,0 -0.5199,-0.82534 -1.55229,-0.82534c-0.85614,0 -1.79932,1.68715 -1.79932,1.68715c0,0 -0.06999,-0.81307 -0.06999,-1.24442c0,-0.9646 0.12198,-1.85948 0.33026,-2.59728c0.06806,-0.24108 0.23056,-0.96504 0.23056,-0.96504c0,0 1.30072,0.55168 2.19563,2.06768c0.36589,0.61982 0.66516,1.87725 0.66516,1.87725z" fill="#000000" stroke="none" stroke-width="0" stroke-linecap="butt"/><path d="M183.46699,122.92583c0,2.02272 -0.71592,3.84743 -1.86405,5.13818c-0.19645,0.22085 -0.62589,0.61397 -0.62589,0.61397c0,0 -2.15007,-0.13789 -3.25552,-0.17072c-1.273,-0.0378 -3.95102,-0.0433 -3.95102,-0.0433c0,0 -0.20121,-0.17638 -0.36762,-0.36046c-1.16881,-1.29288 -1.89947,-3.13423 -1.89947,-5.17768c0,-3.91221 2.67814,-7.08369 5.98178,-7.08369c3.30364,0 5.98178,3.17148 5.98178,7.08369z" fill="#ffffff" stroke="none" stroke-width="0" stroke-linecap="butt"/><path d="M126.56171,183.59987v-12.69446l26.91801,-0.40015c0,0 3.15717,3.81633 4.13972,5.11944c1.3264,1.75916 3.10139,9.83622 3.10139,9.83622l-18.05035,-1.22868z" fill="url(#color-41)" stroke="none" stroke-width="0" stroke-linecap="butt"/><path d="M161.33926,188.78106c0,-1.95611 1.58574,-3.54184 3.54184,-3.54184c1.95611,0 3.54184,1.58574 3.54184,3.54184c0,1.95611 -1.58574,3.54184 -3.54184,3.54184c-1.95611,0 -3.54184,-1.58574 -3.54184,-3.54184z" fill="#fdff00" stroke="none" stroke-width="0" stroke-linecap="butt"/><path d="M182.6468,187.94436c1.05114,1.7519 1.6313,3.33525 1.29583,3.53654c-0.33547,0.20129 -1.45954,-1.05574 -2.51068,-2.80764c-1.05114,-1.7519 -1.6313,-3.33526 -1.29583,-3.53654c0.33547,-0.20129 1.45954,1.05574 2.51068,2.80764z" fill="#fdff00" stroke="none" stroke-width="0" stroke-linecap="butt"/><path d="M172.54281,124.31435l3.14831,-7.08369l2.67606,2.51864l1.73157,-2.51864l2.06772,8.02927l-1.24644,1.39614l-1.02682,-5.38226l-1.08026,1.2797l-2.47095,-1.92515l-1.7528,5.41756z" fill="#cc0008" stroke="none" stroke-width="0" stroke-linecap="butt"/><path d="M174.23723,248.37751c0.12186,2.39471 -0.9752,4.54401 -2.74577,6.00893c-1.61004,1.33209 -3.77698,2.09827 -6.0907,1.96845c-4.37489,-0.24546 -22.56547,-1.42065 -23.20024,-8.13447c-0.21836,-2.3095 -1.37912,-2.30069 -0.10487,-3.35469c0.57847,-0.47849 1.84853,0.77638 3.347,0.56366c5.84265,-0.82937 18.21862,-6.0111 19.9581,-6.0111c5.35672,0 8.59103,4.13552 8.83648,8.95921z" fill="url(#color-42)" stroke="none" stroke-width="0" stroke-linecap="butt"/><path d="M134.80247,178.70155c0,5.17282 -4.6515,9.36621 -10.38941,9.36621c-5.73791,0 -10.38941,-4.19339 -10.38941,-9.36621c0,-5.17282 4.6515,-9.36621 10.38941,-9.36621c5.73791,0 10.38941,4.19339 10.38941,9.36621z" fill="url(#color-43)" stroke="none" stroke-width="0" stroke-linecap="butt"/><path d="M131.18192,179.72475c0,7.21585 -6.76582,13.06547 -15.11187,13.06547c-0.60445,0 -3.69146,-1.76176 -3.69146,-1.76176c0,0 2.91513,-3.70263 0.27904,-3.65717c-8.98764,0.155 -11.69945,-5.28742 -11.69945,-7.64654c0,-7.21585 6.76582,-13.06547 15.11187,-13.06547c8.34606,0 15.11187,5.84961 15.11187,13.06547z" fill="url(#color-44)" stroke="none" stroke-width="0" stroke-linecap="butt"/><path d="M109.14378,187.28069l-5.82437,-8.34301l2.36123,-7.71335" fill="none" stroke="#000000" stroke-width="0.5" stroke-linecap="round"/><path d="M112.76433,187.12327l-4.25021,-8.02818l2.67606,-8.02818" fill="none" stroke="#000000" stroke-width="0.5" stroke-linecap="round"/><path d="M114.65331,188.38259l3.93538,-1.41674l3.46314,-3.46314l-3.30572,-2.51864l1.88898,-1.57415l3.30572,2.51864l-2.20381,1.73157" fill="none" stroke="#000000" stroke-width="0.5" stroke-linecap="round"/><path d="M119.06514,180.82207l0.05181,0.01296c0.14844,-0.60333 0.71389,-0.83276 1.32441,-1.02554c-0.17083,-0.19867 -0.18129,-0.38024 0.39858,-0.33321c0.11325,0.00919 0.25585,0.21227 0.40633,0.51894c0.36584,0.112 0.7435,0.38207 1.16145,0.81525c0.30262,0.12104 1.66283,1.05804 1.59213,1.29593c-0.08585,0.28882 -1.11533,0.74361 -1.77634,0.91348c0.00676,0.04504 0.0103,0.0809 0.0103,0.10621v0.20989c0,0.10867 -0.0881,0.19677 -0.19677,0.19677c-0.06519,0 -0.12299,-0.03171 -0.15879,-0.08054l-0.15605,-0.20806l0.06393,-0.04795c-0.02091,-0.0301 -0.03747,-0.05826 -0.05004,-0.08468c-0.05964,-0.01527 -0.10056,-0.05618 -0.10056,-0.05618l-0.11523,-0.12533c-1.059,-0.21522 -1.41455,-1.36278 -2.41695,-1.60696c0,0 -0.1909,-0.04772 -0.14317,-0.23862c0.01347,-0.05388 0.03835,-0.08875 0.06711,-0.11105z" fill="#000000" stroke="none" stroke-width="0.5" stroke-linecap="butt"/><path d="M208.10096,185.42755l-2.47366,-4.38514l1.12439,-2.92342l0.78708,2.02391l-1.91147,1.12439" fill="none" stroke="#000000" stroke-width="0.5" stroke-linecap="round"/><path d="M207.50068,179.67917c0.08213,0.21179 0.12407,0.39627 0.09439,0.48049c-0.12421,0.35241 -1.27412,0.62114 -1.56477,1.01771c0,0 -0.11806,0.15742 -0.27548,0.03935c-0.15742,-0.11806 -0.03935,-0.27548 -0.03935,-0.27548c0.05251,-0.06879 0.10532,-0.13069 0.15925,-0.18723c-0.02079,-0.0312 -0.0329,-0.06866 -0.0329,-0.10896c0,-0.01462 0.0016,-0.02886 0.00462,-0.04257l0.04062,-0.20314l0.06189,0.01238c0.05817,-0.46371 0.24368,-1.09272 0.57085,-1.35762c0.01539,-0.13701 0.04227,-0.23388 0.07768,-0.29739l-0.04877,-0.00813l0.0409,-0.24536c0.01409,-0.09484 0.09586,-0.16761 0.19462,-0.16761c0.10867,0 0.19677,0.0881 0.19677,0.19677v0.17854c0.02015,0.04946 0.03661,0.09841 0.05034,0.1471c0.03951,0.04578 0.07917,0.09773 0.11819,0.15394c0.00582,0.00315 0.01166,0.00639 0.01753,0.00974c0.31742,0.18072 0.39053,0.42398 0.33363,0.65748z" fill="#000000" stroke="none" stroke-width="0.5" stroke-linecap="butt"/><path d="M207.48923,349.9866v-3.68068l29.59407,-0.24538v5.15296c0,0 -5.86732,2.1645 -9.73177,2.1665c-9.60806,0.00498 -12.83019,-2.37633 -12.83019,-2.37633c0,0 -1.71376,0.51104 -2.67449,0.37209c-1.28671,-0.1861 -4.35763,-1.38916 -4.35763,-1.38916z" fill="#bd6f3e" stroke="none" stroke-width="0" stroke-linecap="butt"/><path d="M206.17344,346.31953v-19.11506h22.35297l0.15742,15.31748l5.82437,2.21285z" fill="url(#color-45)" stroke="none" stroke-width="0" stroke-linecap="butt"/><path d="M194.28859,346.61007v-19.11506h22.35297v15.12731l6.61144,3.98775z" fill="url(#color-46)" stroke="none" stroke-width="0" stroke-linecap="butt"/><path d="M195.28955,351.40793v-3.68068l29.59407,-0.24538v5.15296c0,0 -5.86732,2.1645 -9.73177,2.1665c-9.60806,0.00498 -12.83019,-2.37632 -12.83019,-2.37632c0,0 -1.71376,0.51103 -2.67449,0.37208c-1.28671,-0.1861 -4.35763,-1.38917 -4.35763,-1.38917z" fill="#bd6f3e" stroke="none" stroke-width="0" stroke-linecap="butt"/><path d="M238.7775,345.51923c0.23267,3.56366 -3.97832,6.43001 -8.83648,6.21757c-4.37489,-0.19131 -22.56547,-1.10725 -23.20024,-6.34001c-0.21836,-1.80003 -1.37912,-1.79315 -0.10487,-2.61464c0.57847,-0.37293 1.84853,0.6051 3.347,0.43932c5.84265,-0.64642 18.21862,-4.68505 19.9581,-4.68505c5.35672,0 8.59103,3.22323 8.83648,6.98281z" fill="url(#color-47)" stroke="none" stroke-width="0" stroke-linecap="butt"/><path d="M225.79074,346.69519c0.12186,1.86644 -0.9752,3.5416 -2.74577,4.68336c-1.61004,1.03823 -3.77698,1.6354 -6.0907,1.53421c-4.37489,-0.19131 -22.56547,-1.10725 -23.20024,-6.34001c-0.21836,-1.80003 -1.37912,-1.79315 -0.10487,-2.61464c0.57847,-0.37293 1.84853,0.60511 3.347,0.43932c5.84265,-0.64642 18.21862,-4.68505 19.9581,-4.68505c5.35672,0 8.59103,3.22323 8.83648,6.98281z" fill="url(#color-48)" stroke="none" stroke-width="0" stroke-linecap="butt"/><path d="M233.43547,323.75952c0,6.24075 -9.65563,13.39246 -18.65371,13.39246c-8.99809,0 -24.97466,-0.80267 -25.10774,-13.49709c-0.04314,-4.11491 1.80418,-8.38913 6.75719,-10.01243c3.35407,-1.09926 1.20521,-7.45165 5.34807,-7.60301c5.71312,-0.20871 13.4595,-1.65421 18.88962,0.44711c3.44445,1.33291 12.76658,13.94622 12.76658,17.27295z" fill="#1147ba" stroke="none" stroke-width="0" stroke-linecap="butt"/><path d="M218.74928,304.80344c0,0 1.62618,1.52153 2.53132,2.7315c1.20931,1.61659 4.08012,6.10658 4.08012,6.10658c0,0 -2.11473,1.26701 -3.47731,1.32411c-1.94283,0.08141 -7.06951,-0.8822 -7.06951,-0.8822c0,0 -1.16883,-2.47971 -2.12474,-3.69775c-1.36287,-1.73659 -5.27377,-5.72955 -5.27377,-5.72955z" fill="url(#color-49)" stroke="none" stroke-width="0" stroke-linecap="butt"/><path d="M173.9437,317.70851l0.19677,-12.12377l26.72125,-2.75367c0,0 3.15717,3.53333 4.13972,5.45212c1.32641,2.59031 3.10139,8.68882 3.10139,8.68882c0,0 -5.94875,5.98977 -9.36629,6.06346c-2.08066,0.04486 -8.93581,-1.04096 -8.93581,-1.04096l0.25175,-3.35486z" fill="#ff0000" stroke="none" stroke-width="0" stroke-linecap="butt"/><path d="M173.78629,314.93705l0.19677,-9.71439l26.72125,-2.5389c0,0 3.15717,3.57112 4.13972,4.79051c1.32641,1.64613 3.10139,9.20425 3.10139,9.20425l-18.05035,-1.14975z" fill="url(#color-50)" stroke="none" stroke-width="0" stroke-linecap="butt"/><path d="M208.56386,319.78535c0,-1.83042 1.58574,-3.31428 3.54184,-3.31428c1.95611,0 3.54184,1.48385 3.54184,3.31428c0,1.83042 -1.58574,3.31428 -3.54184,3.31428c-1.95611,0 -3.54184,-1.48385 -3.54184,-3.31428z" fill="#fdff00" stroke="none" stroke-width="0" stroke-linecap="butt"/><path d="M229.87139,319.00241c1.05114,1.63933 1.6313,3.12097 1.29583,3.30932c-0.33547,0.18836 -1.45954,-0.98791 -2.51068,-2.62725c-1.05114,-1.63933 -1.6313,-3.12096 -1.29583,-3.30932c0.33547,-0.18836 1.45954,0.98791 2.51068,2.62725z" fill="#fdff00" stroke="none" stroke-width="0" stroke-linecap="butt"/><path d="M192.45582,315.27268c0,4.84047 -4.6515,8.76443 -10.38941,8.76443c-5.73791,0 -10.38941,-3.92397 -10.38941,-8.76443c0,-4.84047 4.6515,-8.76443 10.38941,-8.76443c5.73791,0 10.38941,3.92397 10.38941,8.76443z" fill="url(#color-51)" stroke="none" stroke-width="0" stroke-linecap="butt"/><path d="M188.83526,316.23014c0,6.75224 -6.76582,12.22602 -15.11187,12.22602c-0.60445,0 -3.69146,-1.64857 -3.69146,-1.64857c0,0 2.91513,-3.46473 0.27904,-3.42219c-8.98764,0.14504 -11.69945,-4.9477 -11.69945,-7.15526c0,-6.75224 6.76581,-12.22602 15.11187,-12.22602c8.34606,0 15.11187,5.47378 15.11187,12.22602z" fill="url(#color-52)" stroke="none" stroke-width="0" stroke-linecap="butt"/><path d="M170.41768,323.15331l-4.25021,-7.51237l2.67606,-7.51238" fill="none" stroke="#000000" stroke-width="0.5" stroke-linecap="round"/><path d="M172.30665,324.33172l3.93538,-1.32571l3.46314,-3.24063l-3.30572,-2.35682l1.88898,-1.47301l3.30572,2.35682l-2.20381,1.62031" fill="none" stroke="#000000" stroke-width="0.5" stroke-linecap="round"/><path d="M176.71851,317.25696l0.05181,0.01211c0.14844,-0.56456 0.71389,-0.77925 1.32441,-0.95964c-0.17083,-0.18591 -0.18129,-0.35581 0.39858,-0.3118c0.11325,0.00859 0.25585,0.19863 0.40632,0.48559c0.36584,0.1048 0.7435,0.35753 1.16145,0.76287c0.30262,0.11327 1.66283,0.99006 1.59213,1.21266c-0.08585,0.27026 -1.11532,0.69583 -1.77634,0.85479c0.00676,0.04215 0.0103,0.07571 0.0103,0.09938v0.19641c0,0.10169 -0.0881,0.18413 -0.19677,0.18413c-0.06519,0 -0.12298,-0.02966 -0.15878,-0.07536l-0.15604,-0.19469l0.06393,-0.04487c-0.02092,-0.02816 -0.03747,-0.05451 -0.05003,-0.07924c-0.05964,-0.01429 -0.10056,-0.05257 -0.10056,-0.05257l-0.11523,-0.11727c-1.059,-0.20138 -1.41455,-1.27521 -2.41695,-1.50371c0,0 -0.1909,-0.04466 -0.14317,-0.22329c0.01347,-0.05041 0.03835,-0.08305 0.06711,-0.10391z" fill="#000000" stroke="none" stroke-width="0.5" stroke-linecap="butt"/><path d="M167.78097,323.64168l-5.82437,-8.34301l2.36123,-7.71335" fill="none" stroke="#000000" stroke-width="0.5" stroke-linecap="round"/><path d="M231.89392,260.48874c3.16128,4.53836 4.52998,10.90731 3.35986,13.3227c-1.93473,3.9937 -10.14483,1.61125 -16.70073,4.87994c-10.52093,5.24559 -29.3767,12.83231 -32.89191,7.65227c-3.51521,-5.18005 9.64128,-21.16529 20.16221,-26.41088c10.52093,-5.24559 22.48653,-4.58932 26.07058,0.55597z" fill="url(#color-53)" stroke="none" stroke-width="0" stroke-linecap="butt"/><path d="M206.17774,280.76619c0,-3.63283 9.44797,-10.2884 19.80809,-10.2884c7.12617,0 13.32425,1.39338 16.49938,3.44555c1.44092,0.93131 -36.30747,10.4757 -36.30747,6.84286z" fill="url(#color-54)" stroke="none" stroke-width="0" stroke-linecap="butt"/><path d="M244.80884,276.16761c0.51351,2.95828 -6.65722,6.10821 -16.01626,7.03555c-9.35905,0.92734 -18.14941,0.85513 -18.66292,-2.10315c-0.51351,-2.95828 6.65721,-6.89529 16.01626,-7.82263c9.35905,-0.92734 18.14941,-0.06803 18.66292,2.89024z" fill="#a10000" stroke="none" stroke-width="0" stroke-linecap="butt"/><path d="M238.09386,297.86904c-2.79676,7.3914 -11.04493,12.74738 -20.78482,12.74738c-5.13491,0 -10.12056,-2.20471 -14.08607,-4.89578c-5.33328,-3.61926 -8.82133,-8.55478 -8.3456,-14.33173c0.78708,-9.55771 19.22032,-15.41269 31.24693,-14.90976c7.86178,0.32877 7.98924,4.90011 7.75982,12.01545c-0.05305,1.64532 4.87048,7.62823 4.20975,9.37443z" fill="#ffb687" stroke="none" stroke-width="0" stroke-linecap="butt"/><path d="M199.75724,301.71105c0,0.90589 4.71518,4.01803 3.73972,4.68121c-5.01575,2.00469 -7.27307,-1.29664 -7.27307,-1.29664c0,0 -0.82897,0.1236 -1.26781,0.1236c-2.65161,0 -4.80117,-1.57066 -4.80117,-3.50817c0,-1.22458 0.85868,-2.30262 2.16009,-2.93017c0.75766,-0.36535 1.40118,-12.61028 2.16883,-13.12651c0.58969,-0.39656 3.54382,-2.33602 6.65395,-3.5143c1.59584,-0.60459 4.66586,-1.85386 4.66586,-1.85386c0,0 -1.06859,3.94864 -0.05262,5.06577c0.39562,0.43501 2.42074,1.86188 2.03456,3.27089c-0.75291,2.74713 -3.73778,2.16365 -3.73778,2.16365c0,0 1.42582,1.22314 0.50535,2.35823c-2.99675,3.69546 -4.81986,-0.99355 -6.05467,1.22885c-0.79882,1.4377 1.25876,7.19323 1.25876,7.33743z" fill="#3f1200" stroke="none" stroke-width="0" stroke-linecap="butt"/><path d="M239.65159,296.85202c0,0 -2.18325,4.4083 -3.34796,4.44942c-0.32957,0.01164 -1.16875,-0.77518 -1.16875,-0.77518c0,0 -0.39489,1.66175 -0.89897,1.86422c-0.60041,0.24117 -2.46527,-0.51291 -2.46527,-0.51291c0,0 -0.67928,0.27116 -1.45198,0.4759c-0.30384,0.08051 -0.62214,0.15076 -0.91927,0.1902c-0.35184,0.04671 -0.674,0.05025 -0.90731,-0.02346c-0.25029,-0.07909 -0.53399,-0.27227 -0.81906,-0.518c-0.29699,-0.256 -0.59545,-0.56904 -0.85918,-0.86949c-0.50238,-0.57233 -0.87872,-1.09902 -0.87872,-1.09902c0,0 -0.41631,0.17163 -1.03419,0.33869c-0.34209,0.0925 -0.74598,0.18358 -1.17521,0.24335c-0.29126,0.04057 -0.59419,0.0667 -0.8974,0.06909c-0.55801,0.00439 -1.11697,-0.07169 -1.60594,-0.28647c-0.30475,-0.13386 -0.58751,-0.31298 -0.84963,-0.5207c-0.33777,-0.26767 -0.64126,-0.58285 -0.91339,-0.90991c-0.3092,-0.37163 -0.5779,-0.75862 -0.81034,-1.10871c-0.45957,-0.69217 -0.77741,-1.24013 -0.98636,-1.24013c-0.42154,0 -0.83107,-0.04311 -1.22262,-0.12436c-0.71385,-0.14811 -1.36799,-0.42297 -1.92639,-0.7944c-0.51975,-0.34573 -0.95654,-0.77514 -1.28136,-1.26389c-0.40545,-0.61009 -0.63642,-1.31265 -0.63642,-2.06039c0,-0.53236 0.11707,-1.04183 0.33084,-1.51131c0.1203,-0.26421 0.44914,-0.75162 0.44914,-0.75162c0,0 16.08217,4.82134 20.07945,5.84655c1.36744,0.35072 6.19633,0.89254 6.19633,0.89254z" fill="#000000" stroke="none" stroke-width="0" stroke-linecap="butt"/><path d="M233.12927,285.25336c0,2.39912 -0.49334,4.34399 -1.10191,4.34399c-0.60857,0 -1.10191,-1.94487 -1.10191,-4.34399c0,-2.39913 0.49334,-4.34399 1.10191,-4.34399c0.60857,0 1.10191,1.94487 1.10191,4.34399z" fill="#ffffff" stroke="none" stroke-width="0" stroke-linecap="butt"/><path d="M226.04558,286.03671c0,3.30371 -2.25527,5.98188 -5.03729,5.98188c-2.78202,0 -5.03729,-2.67819 -5.03729,-5.98188c0,-3.30371 2.25527,-5.98189 5.03729,-5.98189c2.78202,0 5.03729,2.67819 5.03729,5.98189z" fill="#ffffff" stroke="none" stroke-width="0" stroke-linecap="butt"/><path d="M225.73076,286.25034c0,2.39912 -1.40954,4.34399 -3.14831,4.34399c-1.73876,0 -3.14831,-1.94487 -3.14831,-4.34399c0,-2.39912 1.40954,-4.34399 3.14831,-4.34399c1.73876,0 3.14831,1.94487 3.14831,4.34399z" fill="#258ed7" stroke="none" stroke-width="0" stroke-linecap="butt"/><path d="M232.97186,286.10792c0,1.8485 -0.4581,3.34701 -1.0232,3.34701c-0.5651,0 -1.0232,-1.49851 -1.0232,-3.34701c0,-1.8485 0.4581,-3.347 1.0232,-3.347c0.5651,0 1.0232,1.49851 1.0232,3.347z" fill="#258ed7" stroke="none" stroke-width="0" stroke-linecap="butt"/><path d="M225.41592,286.32156c0,1.57319 -1.02192,2.84852 -2.28252,2.84852c-1.26061,0 -2.28252,-1.27532 -2.28252,-2.84852c0,-1.57319 1.02192,-2.84852 2.28252,-2.84852c1.26061,0 2.28252,1.27532 2.28252,2.84852z" fill="#000000" stroke="none" stroke-width="0" stroke-linecap="butt"/><path d="M222.58245,284.71364c0,-0.35397 0.31714,-0.64092 0.70837,-0.64092c0.39122,0 0.70837,0.28695 0.70837,0.64092c0,0.35397 -0.31715,0.64092 -0.70837,0.64092c-0.39122,0 -0.70837,-0.28695 -0.70837,-0.64092z" fill="#ffffff" stroke="none" stroke-width="0" stroke-linecap="butt"/><path d="M232.18479,286.11729c0,1.29063 -0.24667,2.33691 -0.55095,2.33691c-0.30428,0 -0.55095,-1.04627 -0.55095,-2.33691c0,-1.29063 0.24667,-2.3369 0.55095,-2.3369c0.30428,0 0.55095,1.04627 0.55095,2.3369z" fill="#000000" stroke="none" stroke-width="0" stroke-linecap="butt"/><path d="M231.71253,284.58621c0.17387,0 0.31483,0.25254 0.31483,0.56408c0,0.31153 -0.14096,0.56408 -0.31483,0.56408c-0.17387,0 -0.31483,-0.25255 -0.31483,-0.56408c0,-0.31153 0.14096,-0.56408 0.31483,-0.56408z" fill="#ffffff" stroke="none" stroke-width="0" stroke-linecap="butt"/><path d="M243.643,293.0564c0,3.82835 -4.1699,6.93183 -9.31374,6.93183c-5.14384,0 -9.31374,-3.10348 -9.31374,-6.93183c0,-3.82834 4.16991,-6.93183 9.31374,-6.93183c5.14384,0 9.31374,3.10349 9.31374,6.93183z" fill="url(#color-55)" stroke="none" stroke-width="0" stroke-linecap="butt"/><path d="M199.91465,291.25398c0.82173,2.30169 4.68052,9.10777 -4.80117,8.29819c-4.10922,-0.35087 -10.15329,-4.7585 -10.15329,-8.29819c0,-3.53969 3.34766,-6.40917 7.47723,-6.40917c4.12956,0 6.21577,2.87578 7.47723,6.40917z" fill="#f3a27a" stroke="none" stroke-width="0" stroke-linecap="butt"/><path d="M197.136,291.69371l0.10258,-0.13198c-1.7327,0 -3.24435,0.20543 -4.9538,0.43362c0,0 -0.58437,0.07762 -0.66786,-0.46577c-0.08349,-0.54339 0.50089,-0.62102 0.50089,-0.62102c1.75668,-0.23215 3.33909,-0.44464 5.12077,-0.44464l0.16527,0.10237c-0.34175,-1.83697 -3.0496,-3.69398 -4.99775,-2.9908c-1.57587,0.5688 -2.7864,1.87553 -3.84411,3.05687c0,0 -0.37791,0.42169 -0.8314,0.07028c-0.45349,-0.35141 -0.07558,-0.77309 -0.07558,-0.77309c1.18222,-1.318 2.56187,-2.77916 4.34148,-3.38369c2.98787,-1.01497 6.61505,1.76407 6.61505,4.53405c-0.38491,1.43168 -0.12611,3.02643 -0.81932,4.36829l-0.13837,0.52819c0,0 -0.14318,0.53252 -0.71585,0.39939c-0.57268,-0.13313 -0.42951,-0.66565 -0.42951,-0.66565l0.17645,-0.64282c0.54117,-0.95949 0.47502,-2.15811 0.60202,-3.27281c-0.09354,-0.04737 -0.15095,-0.10077 -0.15095,-0.10077z" fill="#ae4026" stroke="none" stroke-width="0.5" stroke-linecap="butt"/><path d="M234.66407,303.31896c0,0.50599 -0.59031,0.50599 -0.59031,0.50599h-0.15742c-3.34485,0 -7.49302,-0.32406 -10.71848,0.38969c0,0 -0.57268,0.12271 -0.71585,-0.36816c-0.14317,-0.49088 0.42951,-0.6136 0.42951,-0.6136c3.36546,-0.70242 7.53068,-0.4199 11.00482,-0.4199h0.15742c0,0 0.59031,0 0.59031,0.50599z" fill="#ae4026" stroke="none" stroke-width="0.5" stroke-linecap="butt"/><path d="M214.98722,281.00399c0,0 -0.27482,-0.33041 -0.3941,-0.49533c-0.6455,-0.89241 -0.93154,-1.77114 -0.76726,-2.50779c0.04981,-0.22336 0.17781,-0.29002 0.17781,-0.29002c0,0 2.02239,-0.50933 3.01572,-0.67664c0.97005,-0.1634 2.87606,-0.31579 2.87606,-0.31579c0,0 0.6092,0.15647 0.91698,0.25519c0.63384,0.20331 1.27399,0.465 1.90378,0.78793c1.70714,0.87536 3.05469,1.96888 3.88086,3.05184c0.19548,0.25623 0.49672,0.7639 0.49672,0.7639c0,0 -6.00778,-1.83089 -8.15462,-1.93255c-1.84174,-0.08721 -3.95197,1.35924 -3.95197,1.35924z" fill="#000000" stroke="none" stroke-width="0" stroke-linecap="butt"/><path d="M233.36434,280.76153c0,0 -0.5199,-0.70745 -1.55229,-0.70745c-0.85614,0 -1.79932,1.44616 -1.79932,1.44616c0,0 -0.06999,-0.69692 -0.06999,-1.06667c0,-0.82682 0.12198,-1.59388 0.33026,-2.22629c0.06806,-0.20665 0.23056,-0.82719 0.23056,-0.82719c0,0 1.30072,0.47288 2.19563,1.77233c0.36589,0.53129 0.66516,1.6091 0.66516,1.6091z" fill="#000000" stroke="none" stroke-width="0" stroke-linecap="butt"/><path d="M233.83989,265.77548c0,1.7338 -0.71592,3.29787 -1.86405,4.40424c-0.19645,0.18931 -0.62589,0.52627 -0.62589,0.52627c0,0 -2.15007,-0.11819 -3.25552,-0.14633c-1.273,-0.0324 -3.95102,-0.03713 -3.95102,-0.03713c0,0 -0.20121,-0.15118 -0.36762,-0.30897c-1.16881,-1.1082 -1.89947,-2.68654 -1.89947,-4.4381c0,-3.35339 2.67814,-6.07185 5.98178,-6.07185c3.30364,0 5.98178,2.71846 5.98178,6.07185z" fill="#ffffff" stroke="none" stroke-width="0" stroke-linecap="butt"/><path d="M222.9157,267.55719l3.14831,-6.66337l2.67606,2.3692l1.73157,-2.3692l2.06772,7.55285l-1.24644,1.31331l-1.02682,-5.06291l-1.08026,1.20377l-2.47095,-1.81092l-1.7528,5.09611z" fill="#cc0008" stroke="none" stroke-width="0" stroke-linecap="butt"/><path d="M366.12761,301.17853c0,0 -7.74493,1.35 -12.78342,1.4661c-7.88048,0.18158 -29.91548,-0.48225 -29.91548,-0.48225" fill="none" stroke="#000000" stroke-width="1" stroke-linecap="round"/><path d="M342.50759,237.91945c-15.24782,16.8671 -3.94876,27.32591 -2.7581,36.30274c0.48034,3.62149 -13.557,0.59146 -14.75435,0.59146c-1.65487,0 -1.69062,-19.65654 4.52475,-33.46707c5.6211,-12.49008 17.39413,-19.26706 18.89077,-19.26706c1.30127,0 19.83791,5.20033 20.36949,10.65365c0.34454,3.53452 -2.05132,-1.01316 -9.80573,-0.96867c-4.29379,0.02464 -12.96052,2.27625 -16.46684,6.15493z" fill="#5e0000" stroke="none" stroke-width="0" stroke-linecap="butt"/><path d="M308.26844,247.49515c0,-17.98531 14.57998,-32.56529 32.56529,-32.56529c14.83187,0 26.87354,15.35367 26.87354,15.35367c0,0 -3.50749,-0.98629 -5.18199,-1.68085c-0.26577,-0.11024 -0.60254,-0.19619 -1.00072,-0.2575c-4.09886,-0.63116 -14.70494,1.34767 -21.35131,6.30209c-10.9884,8.19113 -14.25461,18.38646 -7.51352,35.81868c1.17805,3.0464 -8.88156,4.45865 -8.88156,4.45865c0,0 1.68684,1.49439 -1.16702,-0.43595c-8.65399,-5.85353 -14.34271,-15.75918 -14.34271,-26.9935z" fill="url(#color-56)" stroke="none" stroke-width="0" stroke-linecap="butt"/><path d="M339.10797,241.89784c0,0 0.51363,-1.1615 0.83219,-1.71805c3.17946,-5.55482 10.36465,-9.42998 18.71917,-9.42998c6.72826,0 12.69813,2.51336 16.42805,6.39328c0.39223,0.408 1.29743,1.85833 1.29743,1.85833c0,0 -9.44681,-0.23182 -13.61646,0.16026c-6.82671,0.64193 -23.66038,2.73615 -23.66038,2.73615z" fill="#930000" stroke="none" stroke-width="0" stroke-linecap="butt"/><path d="M365.14376,308.85252c0,0 -10.10507,1.17913 -16.13666,1.29348c-7.48967,0.14198 -25.38163,-0.5064 -25.38163,-0.5064" fill="none" stroke="#000000" stroke-width="1" stroke-linecap="round"/><path d="M352.35377,308.65575l0.39354,-4.72246" fill="none" stroke="#000000" stroke-width="4.5" stroke-linecap="round"/><path d="M315.10116,232.90569c4.29257,0 7.77238,6.16675 7.77238,13.77384c0,7.60709 -3.47981,13.77384 -7.77238,13.77384c-4.29257,0 -7.77238,-6.16675 -7.77238,-13.77384c0,-7.60709 3.47981,-13.77384 7.77238,-13.77384z" fill="#ffffff" stroke="none" stroke-width="0" stroke-linecap="butt"/><path d="M307.87443,251.43697l4.27241,-11.81592l3.63155,4.20122l2.34982,-4.20122l2.806,13.39318l-1.69147,2.32883l-1.39345,-8.97787l-1.46597,2.1346l-3.35321,-3.21125l-2.37862,9.03675z" fill="#cc0008" stroke="none" stroke-width="0" stroke-linecap="butt"/><path d="M333.6957,205.91835c0,4.72725 -6.387,8.55946 -14.26576,8.55946c-7.87876,0 -14.26576,-3.8322 -14.26576,-8.55946c0,-4.72725 6.387,-8.55946 14.26576,-8.55946c7.87876,0 14.26576,3.8322 14.26576,8.55946z" fill="url(#color-57)" stroke="none" stroke-width="0" stroke-linecap="butt"/></g></g></svg>