<svg version="1.1" xmlns="http://www.w3.org/2000/svg" xmlns:xlink="http://www.w3.org/1999/xlink" width="108" height="48" viewBox="0,0,108,48"><g transform="translate(-186,-156)"><g data-paper-data="{&quot;isPaintingLayer&quot;:true}" fill-rule="nonzero" stroke="none" stroke-linecap="butt" stroke-linejoin="miter" stroke-miterlimit="10" stroke-dasharray="" stroke-dashoffset="0" style="mix-blend-mode: normal"><path d="M186,196.75574c0,-10.26707 0,-28.42442 0,-34c0,-3.20621 2.38193,-6.75574 6.42336,-6.75574c20.59918,0 84.31133,0 95.47564,0c3.26775,0 6.101,3.85407 6.101,7.25574c0,5.46686 0,22.25868 0,32.5c0,4.85958 -2.83325,8.24426 -6.101,8.24426c-11.25623,0 -75.9292,0 -95.97564,0c-3.73716,0 -5.92336,-2.92339 -5.92336,-7.24426z" fill="#ff6100" stroke-width="NaN"/><path d="M246.93263,183.49707c-0.25477,2.74786 -1.08095,4.83333 -2.51857,6.35102c-0.8371,0.88441 -2.07818,1.58321 -4.14545,2.32567c-0.04004,0.01456 -0.08371,0.02912 -0.12738,0.04367c-0.98996,0.31664 -2.07091,0.48042 -3.21009,0.48042c-1.73607,0 -3.34839,-0.34212 -4.79329,-1.01544c-2.13642,-0.99724 -3.19917,-2.39119 -3.7269,-3.56676c-0.07643,-0.12738 -0.1565,-0.25841 -0.23293,-0.40035c-0.21837,-0.39671 -0.37123,-0.82618 -0.44403,-1.27384c-0.10555,-0.626 -0.27297,-1.56865 -0.50226,-2.82065c-0.04367,-0.24021 -0.06551,-0.48042 -0.06551,-0.72427v-3.16641c0,-0.39307 0.03276,-0.96812 0.26933,-2.52585c0.22929,-1.52497 0.32756,-1.99811 0.50954,-2.46398c0.47678,-1.2702 1.90349,-5.00439 5.36106,-5.74322c1.13554,-0.24021 2.41302,-0.27297 3.62136,-0.14194c0.8553,-1.37211 2.38391,-2.19101 4.11997,-2.19101c3.01355,0 4.68047,1.9872 4.99347,3.95255c0.03276,0.20745 0.04731,0.41855 0.04731,0.62964v5.05534c0,0.00364 0,0.00728 0,0.00728c0,0.00364 0,0.00364 0,0.00728c0,0 0,0 0,0.00364c0,0.3312 -0.04367,0.64784 -0.11647,0.9572c0.70243,0.79706 1.09187,1.77974 1.11006,2.83157c0.02184,1.05547 -0.02912,2.19829 -0.14922,3.38842z" fill="#ffffff" stroke-width="1"/><path d="M234.90933,187.86478c-0.03741,0.04761 -0.07482,0.09523 -0.11903,0.14284c-0.7346,0.84003 -1.68686,1.26515 -2.35345,1.51001c-1.26175,0.49654 -2.34324,1.0985 -3.21048,1.78889c-0.04421,0.03741 -0.08843,0.07142 -0.13603,0.10543c-0.84343,0.60877 -1.89772,0.93185 -3.23088,0.97607c-0.04421,0.0034 -0.08843,0.0034 -0.13263,0.0034c-1.03388,0 -2.02695,-0.3673 -2.87039,-1.06109c-0.41152,-0.33669 -0.75161,-0.7346 -1.01348,-1.17332c-0.54755,0.21086 -1.13591,0.31969 -1.73787,0.31969c-0.22446,0 -0.43872,-0.017 -0.64957,-0.05441c-0.14284,-0.0204 -0.44212,-0.06122 -0.90465,-0.12584c-0.09523,-0.01021 -0.54755,-0.05441 -2.5575,-0.22106c-0.0204,0 -0.04081,-0.0034 -0.06122,-0.0068c-1.442,-0.14284 -2.39086,-0.41152 -3.17987,-0.89785c-0.03741,-0.0204 -0.07482,-0.04421 -0.10883,-0.07142c-1.21073,-0.80602 -1.93513,-2.14939 -1.93513,-3.58798c0,-2.32624 1.54402,-4.14573 3.84305,-4.53004c0.03061,-0.0034 0.05782,-0.0068 0.08843,-0.0136c0.27547,-0.03741 0.56455,-0.05441 0.86044,-0.05782c0.0068,-0.05101 0.017,-0.10203 0.02721,-0.15644c0.0136,-0.07482 0.03061,-0.14964 0.05101,-0.22446c0.30268,-1.20393 0.61557,-2.58471 0.93865,-4.13554c-1.22773,-0.19725 -2.06096,-0.90465 -2.36365,-1.16312c-0.52034,-0.44212 -0.91145,-1.02028 -1.12911,-1.66646c-0.52375,-1.57463 -0.11563,-3.2887 1.0679,-4.47563c0.7312,-0.7312 1.64265,-1.21073 2.62892,-1.38418c0.21426,-0.03741 0.54755,-0.09863 1.00327,-0.19045l0.05101,-0.01021c1.01008,-0.18705 2.16979,-0.32309 3.54717,-0.41491c0.99307,-0.06802 0.99307,-0.06802 1.14271,-0.06802c0.15644,0 0.31288,0.01021 0.46933,0.03061c1.4556,0.18365 2.72074,1.00668 3.46555,2.26502c0.3469,0.58156 0.62237,1.29235 0.87744,2.24462c0.15305,0.56455 0.22786,0.81283 0.25847,0.90465c0.06802,0.15984 0.16664,0.38091 0.29248,0.66318c0.05101,0.11223 0.09523,0.22786 0.13263,0.34349c0.0034,0.0068 0.06462,0.18365 0.29928,0.69379c0.017,0.04081 0.03401,0.07822 0.05101,0.11903c0.45913,1.0951 1.17672,2.80917 2.15279,5.14221c0.017,0.04421 0.03741,0.08843 0.05441,0.13263c0.10543,0.28228 0.23126,0.61557 0.37751,0.99647c1.22093,-0.09183 2.40786,0.29588 3.38733,1.0985c0.09863,0.07822 0.19385,0.16324 0.28228,0.25167c0.93185,0.93185 1.12911,2.08817 1.19372,2.46908c0.017,0.11563 0.03061,0.23126 0.04081,0.3503c0.11223,1.52362 -0.42171,2.5473 -0.89104,3.13906zM219.01677,190.32025c-0.42511,-0.13263 -0.82302,-0.33669 -1.16992,-0.59856c0.3469,0.26528 0.7414,0.47273 1.16992,0.59856z" fill="#ffffff" stroke-width="1"/><path d="M217.86483,181.92604c-0.00676,0.25 -0.04054,0.49664 -0.09798,0.73988c-0.40879,1.71964 -1.46287,3.20278 -3.13183,4.40889c-0.01351,0.01013 -0.03041,0.02027 -0.04392,0.03379c-1.01016,0.7061 -1.90545,1.223 -2.73655,1.58449c-0.6115,0.26352 -1.21624,0.52028 -1.81085,0.76691c-0.64191,0.26352 -1.54396,0.52704 -2.85142,0.83448c-1.34462,0.31419 -1.9764,0.5169 -2.23654,0.6115c-1.15205,0.43244 -1.84126,0.59461 -2.53384,0.59461c-0.37839,0 -0.74664,-0.05068 -1.098,-0.15203c-0.01351,-0.00338 -0.02702,-0.00676 -0.04054,-0.01351c-0.61826,-0.18581 -1.10813,-0.41893 -1.54058,-0.73651c-0.72299,-0.52704 -1.2703,-1.24665 -1.58449,-2.08451c-0.04054,-0.11149 -0.0777,-0.22636 -0.10811,-0.34122c-0.42906,-1.61153 0.0777,-3.23994 1.3007,-4.3447c-0.07432,-1.05746 -0.16892,-2.3683 -0.28717,-3.91563c-0.01689,-0.28717 -0.03379,-0.54393 -0.05068,-0.77704c-0.16555,-0.53379 -0.20947,-1.10138 -0.125,-1.66896c0.03041,-0.19257 0.05743,-0.43582 0.06757,-0.73651c-0.64866,-0.22636 -1.34462,-0.60812 -2.02707,-1.23313c-0.68245,-0.62839 -1.10813,-1.4899 -1.18922,-2.41222c-0.03717,-0.42906 -0.11487,-1.31084 0.32433,-2.26694c0.38515,-0.84462 1.59125,-2.69601 4.72646,-2.69601c0.07095,0 0.14528,0 0.2196,0.00338c0.02027,-0.00338 0.04392,-0.00676 0.06757,-0.01013c0.17906,-0.02702 0.30406,-0.0473 0.38177,-0.06081l0.42906,-0.08446c0.18244,-0.03717 0.36825,-0.06081 0.55745,-0.07095c2.33451,-0.11149 3.85482,-0.16555 4.642,-0.16555c0.32096,0 0.55068,0.01013 0.75677,0.02702c1.9291,0.14866 2.6656,0.28041 3.08791,0.37501c0.01351,0.00338 0.02365,0.00676 0.03717,0.01013c2.11491,0.50001 3.68928,1.5203 4.68254,3.0271c0.02027,0.03379 0.04054,0.06419 0.06081,0.09798c0.47298,0.76691 1.3649,7.28733 1.38517,7.31774c0.73988,1.11489 0.8007,2.3683 0.76691,3.33792z" fill="#ffffff" stroke-width="1"/><path d="M214.1519,181.80475c-0.19831,0.83212 -0.76285,1.58517 -1.69396,2.2585c-0.79259,0.55508 -1.48585,0.96151 -2.08012,1.21827c-0.59427,0.25778 -1.17874,0.50542 -1.75308,0.74292c-0.43616,0.17838 -1.19901,0.39663 -2.28823,0.65407c-1.18888,0.27771 -2.08012,0.52535 -2.67439,0.74292c-0.73313,0.27737 -1.16929,0.39663 -1.30747,0.35677c-0.19831,-0.0598 -0.33717,-0.11926 -0.41589,-0.17838c-0.13886,-0.09899 -0.23785,-0.22737 -0.2973,-0.38649c-0.07939,-0.2973 0.03952,-0.54461 0.35677,-0.74292c0.13818,-0.09899 0.52467,-0.19764 1.15915,-0.2973c0,-0.0196 -0.01487,-0.07872 -0.0446,-0.17805c-0.03007,-0.09899 -0.04493,-0.17805 -0.04493,-0.23785c0.0598,-0.45542 0.08953,-0.70272 0.08953,-0.74258c-0.07939,-1.20813 -0.20811,-3.00176 -0.38649,-5.37884c-0.03987,-0.59461 -0.0696,-1.07942 -0.08953,-1.45646c-0.01993,-0.03919 -0.05946,-0.08919 -0.11892,-0.14831c0.19798,-1.28787 0.13851,-2.87236 -0.17805,-4.75484l0.05946,-0.05946c-0.17838,-0.0196 -0.35677,-0.02973 -0.53481,-0.02973c-0.15912,0 -0.3669,0.02027 -0.62434,0.05946c-0.25778,0.03987 -0.45575,0.05946 -0.59427,0.05946c-0.43548,0 -0.85171,-0.18176 -1.248,-0.54596c-0.0196,-0.2223 -0.0196,-0.35373 0,-0.39393c0.17805,-0.40305 0.74258,-0.57535 1.69396,-0.51589c0.05946,0 0.22264,-0.0196 0.49022,-0.05946c0.26757,-0.03952 0.45035,-0.06926 0.54967,-0.08919c0.09899,-0.01993 0.2473,-0.04932 0.44562,-0.08953c2.89264,-0.13818 4.5268,-0.18818 4.90349,-0.14831c1.28787,0.09932 2.14938,0.19831 2.58519,0.2973c1.16894,0.27737 1.98079,0.76285 2.43688,1.45611c0.15845,0.25778 0.17805,0.64394 0.05946,1.15915c-0.21825,0.77265 -0.85171,1.44631 -1.90173,2.02065c-0.41589,0.2375 -1.26827,0.58447 -2.55547,1.03989c2.79331,0.57502 4.74437,1.64464 5.85419,3.20953c0.11825,0.1777 0.16757,0.56386 0.14798,1.15848zM209.7839,173.06772c-0.71319,-0.19798 -1.57504,-0.3169 -2.58553,-0.35677h-1.60477c-0.45609,0 -0.9507,0.05946 -1.4855,0.17805c0.15845,1.10982 0.2473,1.92201 0.26757,2.43688v1.78315c1.02975,-0.15845 2.44634,-0.54461 4.24943,-1.15915c0.9311,-0.3169 1.51524,-0.6436 1.75308,-0.98077c0.3169,-0.45542 0.47535,-0.79225 0.47535,-1.01016c0,-0.39562 -0.35677,-0.69292 -1.06962,-0.89124zM212.27956,182.07233c0.15845,-0.3169 0.15845,-0.58414 0,-0.80238c-1.42638,-1.76322 -3.52643,-2.64499 -6.29981,-2.64499c-0.45609,0 -0.9507,0.02027 -1.4855,0.05946c0.09899,2.06086 0.2473,4.17071 0.44562,6.32988c0,0.13851 0,0.21825 0,0.2375c0.07838,0.13886 0.1473,0.2973 0.20609,0.47535c1.06151,-0.11892 2.39262,-0.51995 3.99435,-1.20341c1.60139,-0.68346 2.64837,-1.50071 3.13926,-2.45141z" fill="#ff6100" stroke-width="1"/><path d="M231.97977,185.5399c-0.14012,0.15984 -0.4292,0.319 -0.86758,0.47851c-1.63619,0.63836 -3.04146,1.42601 -4.21783,2.3633c-0.2197,0.1595 -0.60911,0.24895 -1.1672,0.26901c-0.15984,0 -0.32445,-0.07006 -0.49347,-0.20916c-0.16971,-0.13944 -0.25439,-0.29928 -0.25439,-0.47851c0,-0.23943 0.26935,-0.54823 0.80772,-0.92777c0.37853,-0.23909 0.75807,-0.48871 1.13727,-0.74787c0.01938,-0.09931 -0.30948,-1.27603 -0.98831,-3.52983c-1.09782,-0.01973 -2.82447,0.33873 -5.17928,1.0764c-0.14012,0.04013 -0.22004,0.11971 -0.23976,0.23943c-0.02007,0.11971 -0.04999,0.31867 -0.08978,0.59788c-0.03843,0.05986 -0.07652,0.1493 -0.11461,0.26901c0,0.07992 0.11461,0.16495 0.34418,0.25473c0.22888,0.09012 0.3741,0.17515 0.43362,0.25439c0.05986,0.07992 0.08978,0.17923 0.08978,0.29928c0,0.23909 -0.10475,0.46389 -0.31424,0.67338c-0.20916,0.20916 -0.46355,0.31391 -0.76249,0.31391c0.01973,0 -0.33941,-0.04965 -1.07707,-0.1493c-0.13978,-0.01973 -1.04715,-0.09965 -2.72244,-0.23909c-0.79786,-0.07958 -1.32637,-0.1993 -1.58517,-0.35914c-0.17957,-0.11971 -0.26935,-0.27922 -0.26935,-0.47851c0,-0.47885 0.23943,-0.75807 0.71793,-0.83765c0.27887,-0.03979 0.63802,-0.02007 1.07673,0.05986c0.09965,0.04013 0.88696,0.10951 2.3633,0.20916c0.11971,-0.83765 0.319,-2.00451 0.59823,-3.4999c0.61795,-2.45309 1.26651,-5.56426 1.94465,-9.33351c-0.19963,-0.03945 -0.40879,-0.05986 -0.62815,-0.05986c-0.3792,0 -0.9424,0.10985 -1.6906,0.32921c-0.74752,0.2197 -1.30119,0.32921 -1.66034,0.32921c-0.13944,0 -0.33907,-0.10917 -0.59823,-0.32921c-0.07992,-0.23943 -0.02516,-0.45334 0.16426,-0.64312c0.18943,-0.18943 0.39893,-0.30405 0.62849,-0.34418c0.22922,-0.03979 0.59312,-0.10951 1.09204,-0.2095c0.85737,-0.1595 1.89432,-0.27887 3.11083,-0.35914c0.57816,-0.03945 0.87744,-0.05986 0.8975,-0.05986c0.319,0.04013 0.55843,0.19454 0.71793,0.46355c0.1595,0.26935 0.319,0.70297 0.47851,1.30119c0.1993,0.73834 0.33363,1.18693 0.40403,1.34643c0.06972,0.15984 0.18433,0.41866 0.34418,0.77779c0.07924,0.23909 0.22888,0.59823 0.44858,1.07673c0.45879,1.09714 1.17639,2.81223 2.15415,5.14527c0.3588,0.95736 0.92744,2.41364 1.70523,4.36781c0.33873,-0.03979 0.77779,-0.2095 1.31582,-0.50844c0.5387,-0.29928 0.9373,-0.44858 1.19713,-0.44858c0.23909,0 0.46831,0.08978 0.68801,0.26901c0.05986,0.05986 0.10883,0.2095 0.1493,0.44858c0.02007,0.25983 -0.00986,0.4394 -0.0891,0.53905zM225.33843,181.20337c-0.34043,-0.65808 -0.76997,-1.65591 -1.28964,-2.99282c-0.19997,-0.45879 -0.73936,-1.65558 -1.61919,-3.59139l-1.4794,7.54191c1.79127,-0.33873 3.19382,-0.59823 4.20899,-0.77813c0.11937,-0.07924 0.17923,-0.13944 0.17923,-0.17957z" fill="#ff6100" stroke-width="1"/><path d="M267.63743,186.30632v0.21441c0,2.26506 -1.46278,4.10823 -3.73821,4.72377c-0.62938,0.18328 -1.34175,0.23515 -3.01547,0.23515c0,0 -0.27319,0.01729 -0.97518,0.19711c-0.82649,0.21441 -1.63568,0.42535 -2.43105,0.62591c-0.04496,0.01383 -0.08645,0.02421 -0.13141,0.03112c-0.6605,0.14524 -1.238,0.21441 -1.76709,0.21441c-0.11758,0 -0.23515,-0.00346 -0.34581,-0.01038c-0.76424,-0.03804 -1.82588,-0.31123 -2.86331,-1.29333c-0.04841,-0.04496 -0.09337,-0.08991 -0.13832,-0.13487c-0.62246,0.13487 -1.32446,0.19365 -2.14749,0.16944c-0.08645,0.01729 -0.1902,0.0415 -0.30777,0.0657c-0.77116,0.16944 -1.321,0.24898 -1.8155,0.2559c-0.03458,0.00346 -0.10374,0.01383 -0.22132,0.03804c-0.60517,0.11758 -1.13426,0.17636 -1.60802,0.17636c-1.07893,0 -2.09907,-0.26282 -3.03276,-0.78499c-0.08991,-0.04841 -0.17291,-0.10029 -0.2559,-0.15562c-1.32791,-0.87836 -2.02645,-2.41722 -1.82242,-4.0114c0.24206,-1.85008 1.3452,-3.27828 2.94976,-3.93878v-0.40806c-0.15562,-0.60517 -0.16253,-1.24838 -0.01038,-1.86738c0.00691,-0.05188 0.02421,-0.22823 0.01383,-0.58788c-0.00346,-0.01729 -0.00346,-0.03458 -0.00346,-0.04841c-0.01729,-1.13772 -0.02075,-2.00916 -0.00691,-2.64891c-0.35964,-0.12795 -0.70545,-0.29394 -1.03052,-0.49797c-1.35212,-0.84378 -2.1544,-2.28235 -2.1544,-3.85233c0,-1.39016 0.62591,-3.83504 4.81714,-4.59236c0.74349,-0.13832 1.857,-0.34927 3.34399,-0.62591c0.10029,-0.02421 0.26973,-0.06916 0.50834,-0.13141c0.63629,-0.16944 1.16884,-0.24898 1.67372,-0.24898c0.49105,0 0.94406,0.06224 1.35903,0.16944c0.1902,-0.07953 0.38385,-0.1487 0.58096,-0.20403c0.63975,-0.18674 1.41437,-0.26627 4.01486,-0.26627c0.63975,-0.0415 1.48699,-0.07262 2.57975,-0.09337c0.13487,0 0.27319,0.00346 0.40806,0.01383c0.03112,0 0.0657,-0.00346 0.1072,-0.00346c0.08645,-0.00691 0.16944,-0.01038 0.2559,-0.01038h0.72966c2.15094,0 3.93533,1.04781 4.77218,2.80452c0.02421,0.04496 0.04496,0.09337 0.0657,0.14179c0.69508,1.62531 0.38039,3.44427 -0.84032,4.86901c-0.7677,0.91294 -1.75326,1.28296 -2.55208,1.50082c-0.61554,0.18328 -1.2795,0.24206 -2.08524,0.1902c-0.15907,0.13141 -0.4288,0.37002 -0.82994,0.78153c-0.02075,0.02075 -0.03804,0.0415 -0.05879,0.06224c0.09337,0.2317 0.19711,0.47722 0.30085,0.73658c0.45993,1.12043 0.69508,1.63914 0.80228,1.86046c0.11066,0.15907 0.21441,0.32852 0.30085,0.50488c0.17636,0.34927 0.43226,0.84378 0.7677,1.48007c0.083,-0.01038 0.17291,-0.02421 0.26282,-0.03458c0.81611,-0.15215 1.6841,-0.06224 2.55554,0.26282c1.22071,0.45993 2.14749,1.31408 2.62125,2.4103l0.09337,0.21786c0.20057,0.47376 0.30432,0.9821 0.30432,1.49736z" fill="#ffffff" stroke-width="1"/><path d="M263.7436,186.09434c0.06086,0.14213 0.09129,0.21302 0.09129,0.21302c0,0 0,0.07124 0,0.21267c0,0.54776 -0.32437,0.90256 -0.97311,1.06475c-0.18224,0.06086 -0.8417,0.09129 -1.977,0.09129c-0.46685,0 -1.1104,0.10651 -1.9317,0.31953c-0.8213,0.21267 -1.62738,0.4212 -2.41825,0.6235c-0.46685,0.10201 -0.83133,0.14213 -1.09483,0.12207c-0.12172,0 -0.27389,-0.0861 -0.45612,-0.25867c-0.18259,-0.17187 -0.27389,-0.33924 -0.27389,-0.50177c0,-0.08057 0.02005,-0.15181 0.06086,-0.21302c0.26351,-0.38489 0.75006,-0.65843 1.46035,-0.8213c0.83098,-0.16218 1.358,-0.32437 1.58139,-0.48655c-0.54742,-0.89219 -1.32826,-2.26091 -2.34183,-4.1065c-0.26385,-0.628 -0.74072,-1.66266 -1.42958,-3.10261c-0.10201,-0.2431 -0.28425,-0.63871 -0.54776,-1.18648c-0.48655,0.34512 -1.05472,0.85173 -1.70346,1.52087c-0.75041,0.77081 -1.29782,1.30786 -1.6426,1.61217c-0.14179,0.10167 -0.36483,0.28391 -0.66914,0.54742c-0.04081,1.74427 0.04012,3.09258 0.2431,4.04564c0.28391,0.0204 0.64355,-0.00519 1.07997,-0.07643c0.43572,-0.07055 0.71479,-0.10651 0.83651,-0.10651c0.32437,0 0.55745,0.14213 0.69958,0.42569c0.08057,0.18259 0.12172,0.33475 0.12172,0.45612c0,0.75041 -0.86211,1.07512 -2.58563,0.97311c-0.10167,0 -0.40599,0.05636 -0.91259,0.16737c-0.5073,0.1117 -0.86695,0.16703 -1.07997,0.16703c-0.21267,0 -0.50177,0.03596 -0.86695,0.10686c-0.36518,0.07124 -0.65912,0.10651 -0.88216,0.10651c-0.42569,0 -0.8213,-0.10132 -1.18648,-0.30432c-0.12172,-0.08057 -0.17256,-0.20265 -0.15181,-0.36518c0.07919,-0.60828 0.43745,-0.94302 1.0734,-1.00354c1.03294,-0.12172 1.60906,-0.21302 1.72836,-0.27389c0.11931,-0.06086 0.17948,-0.22305 0.17948,-0.48655c0,-0.18224 0,-0.4665 0,-0.85173c0,-0.40529 0,-0.6892 0,-0.85173v-2.06829c0,-0.02005 -0.04081,-0.10132 -0.12207,-0.2431c0.10132,-0.38489 0.14179,-0.92263 0.12207,-1.61217c-0.02075,-1.27743 -0.02075,-2.21042 0,-2.79864c0.02005,-0.85173 0.09129,-1.89573 0.21267,-3.13304c0.04046,-0.30432 0.02005,-0.47618 -0.06086,-0.51699c-0.22339,0.0204 -0.58822,0.08645 -1.09483,0.19746c-0.5073,0.1117 -0.87213,0.16703 -1.09518,0.16703c-0.28425,0 -0.54742,-0.07608 -0.79087,-0.22789c-0.2431,-0.15181 -0.36518,-0.35964 -0.36518,-0.62384c0,-0.36483 0.56782,-0.64874 1.70346,-0.85173c0.75006,-0.14144 1.88605,-0.35411 3.40693,-0.63871c0.10132,-0.02005 0.34477,-0.08057 0.73001,-0.18259c0.30432,-0.08057 0.53704,-0.12172 0.69958,-0.12172c0.56748,0 0.85173,0.20299 0.85173,0.60862c0,0.32437 -0.1027,0.61865 -0.30811,0.88216c-0.24622,0.16253 -0.61105,0.25832 -1.09276,0.28875c-0.4824,0.03043 -0.74418,0.07124 -0.78534,0.12207c-0.04115,0.05083 -0.11239,0.50177 -0.21475,1.3535c-0.12346,0.97311 -0.18467,1.65297 -0.18467,2.03821c0,0.22339 0,0.66914 0,1.33829c0,0.64908 0,1.14567 0,1.49044l0.09129,0.09164l6.75264,-6.37225c-0.28425,-0.02005 -0.71998,-0.04046 -1.30786,-0.06155c-0.99386,-0.02005 -1.52087,-0.41809 -1.58174,-1.19408c0,-0.12241 0.0861,-0.27042 0.25832,-0.44437c0.17222,-0.1736 0.33924,-0.2808 0.50212,-0.32195c0.26316,-0.08161 1.29748,-0.12241 3.10261,-0.12241c0.58788,-0.04081 1.42958,-0.07124 2.52442,-0.09198c0.16218,0.02075 0.39595,0.02075 0.69958,0c0.34442,0 0.58822,0 0.73001,0c0.68886,0 1.13529,0.21302 1.33863,0.63906c0.12172,0.28391 0.03977,0.58822 -0.2438,0.91259c-0.08092,0.10167 -0.31469,0.20299 -0.69958,0.30432c-0.2431,0.08092 -0.6688,0.08092 -1.27708,0c-0.2642,-0.02005 -0.65912,-0.02005 -1.18613,0c-0.06086,0.20299 -0.18293,0.3548 -0.36552,0.45612c-0.46685,0.28391 -1.05438,0.79087 -1.76433,1.52053c-0.58822,0.60862 -1.1761,1.22728 -1.76433,1.85562c0.24345,0.64908 0.64874,1.663 1.21691,3.04175c0.6892,1.6834 1.09518,2.5552 1.21691,2.61571c0.20265,0.40599 0.50661,0.99386 0.91259,1.76433c0.87179,1.37909 1.3784,2.06829 1.52087,2.06829c0.58753,-0.06086 1.4697,-0.17187 2.64614,-0.33475c0.14179,-0.04012 0.3344,-0.01522 0.57819,0.07608c0.24345,0.09233 0.39526,0.20887 0.45612,0.35065z" fill="#ff6100" stroke-width="1"/><path d="M243.07798,180.17707c0.02075,0.89642 -0.02147,1.86782 -0.12811,2.9131c-0.17142,1.83579 -0.65112,3.16932 -1.4409,4.00169c-0.36323,0.38434 -1.22726,0.82181 -2.59282,1.31242c-0.59798,0.19217 -1.25965,0.28825 -1.98501,0.28825c-1.15228,0 -2.18774,-0.21328 -3.10527,-0.64056c-1.00342,-0.46914 -1.62215,-1.07731 -1.8569,-1.82487c-0.08517,-0.10664 -0.18161,-0.25586 -0.28789,-0.44803c-0.10737,-0.6402 -0.2777,-1.60031 -0.51245,-2.88107v-3.16932c0,-0.29881 0.07461,-0.939 0.2242,-1.92096c0.14886,-0.98122 0.24531,-1.52534 0.28825,-1.63234c0.74684,-1.98501 1.56865,-3.07324 2.46471,-3.26577c0.40508,-0.0848 0.85348,-0.12811 1.34445,-0.12811c1.5792,0 3.00955,0.38434 4.28994,1.15265c0.0848,0.04295 0.1918,0.06406 0.31992,0.06406c0.02147,-0.06406 0.04258,-0.33047 0.06442,-0.80034c0.02111,0 0.02111,-0.37305 0,-1.12025c-0.02184,-0.51245 0.02875,-0.87495 0.15141,-1.08859c0.12193,-0.21291 0.36687,-0.32028 0.73301,-0.32028c0.62964,0 0.9754,0.19217 1.03654,0.57651c0,0.02147 0,0.81126 0,2.36899c0,1.17412 0,1.9104 0,2.20884c0,0.36323 0,0.52337 0,0.48006c-0.08589,0.32028 -0.23512,0.51209 -0.44839,0.57614c-0.57578,0.19217 -0.97103,0.20345 -1.18431,0.03203c-0.107,0 -0.22383,-0.03203 -0.35231,-0.09608c-0.107,-0.29844 -0.34139,-0.69297 -0.70425,-1.18431c-0.49134,-0.40508 -1.13154,-0.75739 -1.92059,-1.05656c-0.79015,-0.29844 -1.46237,-0.44803 -2.01704,-0.44803c-0.70462,0 -1.26984,0.54411 -1.69676,1.6327c-0.59798,1.49404 -0.86439,3.42518 -0.80034,5.79453c0.04258,1.04601 0.07461,1.70768 0.09645,1.98465c0.10627,0.87531 0.34139,1.62215 0.70425,2.24087c0.25622,0.42728 0.65075,0.77959 1.18467,1.05656c0.53319,0.2777 1.0562,0.42692 1.56865,0.44803c2.54004,0.107 4.0228,-1.01362 4.45045,-3.36149c0.23475,-1.25892 0.25586,-2.31548 0.06406,-3.16932c-0.04331,-0.1707 -0.0222,-0.40035 0.06406,-0.6886c0.08444,-0.28789 0.45858,-0.46404 1.12025,-0.5281c0.14922,0 0.33047,0.06952 0.54448,0.20818c0.21182,0.13976 0.31919,0.28352 0.31919,0.43274z" fill="#ff6100" stroke-width="1"/><path d="M275.0746,175.56379c0.43229,0.14361 0.97374,0.50337 0.97374,1.40458c0,1.5 -1.5,1.5 -1.5,1.5l-1.4213,-0.56296c-1.318,-1.66927 -3.66501,-2.30459 -4.22347,-4.20872c-0.0487,-0.0621 -0.09598,-0.13076 -0.14147,-0.20658c-0.50424,-0.8404 -0.12992,-1.46117 0.19016,-1.79053c0.6325,-1.76248 3.4012,-4.13923 4.34801,-5.56326c0,0 0.83205,-1.24808 2.08013,-0.41603c1.24808,0.83205 0.41603,2.08013 0.41603,2.08013c-0.63647,0.95236 -1.32866,1.86778 -2.04717,2.76043c2.76974,0.38753 5.65173,0.36164 8.36283,0.9407c1.51341,0.32325 3.32864,1.13174 4.67001,1.90853c4.13576,2.39504 4.66232,6.57946 1.66079,10.27786c-3.46294,4.26694 -9.00532,5.76779 -13.78532,7.90115c0,0 -1.37072,0.60921 -1.97993,-0.76151c-0.60921,-1.37072 0.76151,-1.97993 0.76151,-1.97993c3.99691,-1.76957 8.27072,-2.95993 11.5977,-5.98692c2.40178,-2.18522 3.57324,-5.05202 0.27777,-6.83407c-1.17098,-0.63322 -2.51027,-1.3185 -3.82999,-1.59147c-2.78553,-0.57616 -5.73707,-0.49117 -8.55999,-0.97194c-0.16032,0.0005 -0.32064,0.00101 -0.48097,0.00151c1.03296,0.59997 1.79147,1.15183 2.63094,2.09902z" fill="#000000" stroke-width="0.5"/></g></g></svg>